<svg id="Group_472" data-name="Group 472" xmlns="http://www.w3.org/2000/svg" width="1099.332" height="1036.164" viewBox="0 0 1099.332 1036.164">
  <path id="Path_907" data-name="Path 907" d="M495.191,6.563C263.169,24.171-13.555,203.886.516,388.959S282.6,746.283,514.622,728.675,880.173,365.131,866.1,180.058C852.032-4.92,727.214-11.14,495.191,6.563Z" transform="matrix(0.899, 0.438, -0.438, 0.899, 319.975, 0)" fill="#5491f5" opacity="0.6"/>
  <g id="WTM_logo_horiz_stacked_white_rgb" data-name="WTM logo_horiz_stacked_white_rgb" transform="translate(357.737 328.336)">
    <g id="Group_323" data-name="Group 323" transform="translate(0 0)">
      <g id="Group_320" data-name="Group 320" transform="translate(0 0)">
        <path id="Path_1345" data-name="Path 1345" d="M331.519,469.757H230.5a7.378,7.378,0,0,1-7.4-7.4V106.7a7.378,7.378,0,0,1,7.4-7.4h101.02a7.378,7.378,0,0,1,7.4,7.4v31.5a7.378,7.378,0,0,1-7.4,7.4H276.8a7.379,7.379,0,0,0-7.4,7.4v262.77a7.379,7.379,0,0,0,7.4,7.4h54.723a7.378,7.378,0,0,1,7.4,7.4v31.72A7.349,7.349,0,0,1,331.519,469.757Z" transform="translate(-223.1 -99.3)" fill="#fff"/>
      </g>
      <g id="Group_321" data-name="Group 321" transform="translate(325.771)">
        <path id="Path_1346" data-name="Path 1346" d="M675.2,99.3H775.78a7.378,7.378,0,0,1,7.4,7.4V462.358a7.378,7.378,0,0,1-7.4,7.4H675.2a7.379,7.379,0,0,1-7.4-7.4v-31.5a7.378,7.378,0,0,1,7.4-7.4h54.5a7.378,7.378,0,0,0,7.4-7.4V153.29a7.378,7.378,0,0,0-7.4-7.4H675.2a7.379,7.379,0,0,1-7.4-7.4v-31.72A7.489,7.489,0,0,1,675.2,99.3Z" transform="translate(-667.8 -99.3)" fill="#fff"/>
      </g>
      <g id="Group_322" data-name="Group 322" transform="translate(93.988 69.447)">
        <path id="Path_1347" data-name="Path 1347" d="M584.65,336.932,566.408,309.9a14.024,14.024,0,0,1-1.612,4.542l-.073.146L530,367.04l55.235,83.219c2.857,5.055,6.081,6.3,10.4,6.373h47.4A11.13,11.13,0,0,0,654.169,445.5V439.71L584.65,336.932Z" transform="translate(-399.164 -225.069)" fill="#fff"/>
        <path id="Path_1348" data-name="Path 1348" d="M674.02,205.235A11.129,11.129,0,0,0,662.885,194.1h-47.25A11.273,11.273,0,0,0,604.5,205.235v92.376l69.447,102.778V205.235Z" transform="translate(-419.088 -194.1)" fill="#fff"/>
        <path id="Path_1349" data-name="Path 1349" d="M420.92,205.235A11.13,11.13,0,0,0,409.785,194.1h-47.25A11.13,11.13,0,0,0,351.4,205.235v196.18L420.847,298.93V205.235Z" transform="translate(-351.4 -194.1)" fill="#fff"/>
        <path id="Path_1350" data-name="Path 1350" d="M512.49,295.007a14.61,14.61,0,0,0-1.758-2.418,11.692,11.692,0,0,0-8.571-3.59H456.889c-4.469,0-8.059,2.344-10.769,6.373l-24.175,35.6L351.4,435.073v4.835a8.811,8.811,0,0,0,1.025,4.176,11.407,11.407,0,0,0,10.915,6.886h47.617c4.469,0,8.132-2.345,10.769-6.374l57.8-87.468h0l33.551-50.767C514.908,303.138,514.688,298.743,512.49,295.007Z" transform="translate(-351.4 -219.48)" fill="#fff"/>
      </g>
    </g>
  </g>
</svg>
