<svg width="505" height="403" xmlns="http://www.w3.org/2000/svg">
 <!-- Created with Method Draw - http://github.com/duopixel/Method-Draw/ -->

 <g>
  <title>background</title>
  <rect fill="none" id="canvas_background" height="405" width="507" y="-1" x="-1"/>
  <g display="none" overflow="visible" y="0" x="0" height="100%" width="100%" id="canvasGrid">
   <rect fill="url(#gridpattern)" stroke-width="0" y="0" x="0" height="100%" width="100%"/>
  </g>
 </g>
 <g>
  <title>Layer 1</title>
  <g stroke="null" id="svg_29">
   <path stroke="null" fill="#f2f2f2" d="m348.838975,27.755303c-119.030152,-47.213645 -299.24826,-25.004232 -336.895535,69.946761s53.426303,244.766765 172.456466,291.980422s268.471292,-91.743276 306.117568,-186.694745c37.62586,-94.903268 -22.62496,-128.065545 -141.6785,-175.232438z" id="svg_30"/>
   <path stroke="null" opacity="0.6" fill="#5491f5" d="m333.566127,55.299466c-100.160012,-39.728754 -251.807697,-21.040249 -283.486655,58.857925s44.956503,205.963296 145.116514,245.692051s225.909881,-77.198991 257.588007,-157.09757c31.660939,-79.858017 -19.03817,-107.762995 -119.217866,-147.452405z" id="svg_27"/>
   <g stroke="null" transform="matrix(0.4630604422909393,0,0,0.4630604422909393,-8872.847266517545,-6122.734277912409) " id="svg_16">
    <g stroke="null" id="svg_17">
     <g stroke="null" id="svg_25">
      <path stroke="null" fill="#fff" d="m19585.545296,13817.742553l-101.019,0a7.378,7.378 0 0 1 -7.4,-7.4l0,-355.657a7.378,7.378 0 0 1 7.4,-7.4l101.02,0a7.378,7.378 0 0 1 7.4,7.4l0,31.5a7.378,7.378 0 0 1 -7.4,7.4l-54.72,0a7.379,7.379 0 0 0 -7.4,7.4l0,262.77a7.379,7.379 0 0 0 7.4,7.4l54.723,0a7.378,7.378 0 0 1 7.4,7.4l0,31.72a7.349,7.349 0 0 1 -7.404,7.467z" id="svg_26"/>
     </g>
     <g stroke="null" id="svg_23">
      <path stroke="null" fill="#fff" d="m19810.29731,13447.285553l100.58,0a7.378,7.378 0 0 1 7.4,7.4l0,355.658a7.378,7.378 0 0 1 -7.4,7.4l-100.58,0a7.379,7.379 0 0 1 -7.4,-7.4l0,-31.5a7.378,7.378 0 0 1 7.4,-7.4l54.5,0a7.378,7.378 0 0 0 7.4,-7.4l0,-262.768a7.378,7.378 0 0 0 -7.4,-7.4l-54.5,0a7.379,7.379 0 0 1 -7.4,-7.4l0,-31.72a7.489,7.489 0 0 1 7.4,-7.47z" id="svg_24"/>
     </g>
     <g stroke="null" id="svg_18">
      <path stroke="null" fill="#fff" d="m19756.600299,13628.595554l-18.242,-27.032a14.024,14.024 0 0 1 -1.612,4.542l-0.073,0.146l-34.723,52.452l55.235,83.219c2.857,5.055 6.081,6.3 10.4,6.373l47.4,0a11.13,11.13 0 0 0 11.134,-11.132l0,-5.79l-69.519,-102.778z" id="svg_22"/>
      <path stroke="null" fill="#fff" d="m19826.046288,13527.867548a11.129,11.129 0 0 0 -11.135,-11.135l-47.25,0a11.273,11.273 0 0 0 -11.135,11.135l0,92.376l69.447,102.778l0,-195.154l0.073,0z" id="svg_21"/>
      <path stroke="null" fill="#fff" d="m19640.634307,13527.867548a11.13,11.13 0 0 0 -11.135,-11.135l-47.25,0a11.13,11.13 0 0 0 -11.135,11.135l0,196.18l69.447,-102.485l0,-93.695l0.073,0z" id="svg_20"/>
      <path stroke="null" fill="#fff" d="m19732.204307,13592.259559a14.61,14.61 0 0 0 -1.758,-2.418a11.692,11.692 0 0 0 -8.571,-3.59l-45.272,0c-4.469,0 -8.059,2.344 -10.769,6.373l-24.175,35.6l-70.545,104.101l0,4.835a8.811,8.811 0 0 0 1.025,4.176a11.407,11.407 0 0 0 10.915,6.886l47.617,0c4.469,0 8.132,-2.345 10.769,-6.374l57.8,-87.468l0,0l33.551,-50.767c1.831,-3.223 1.611,-7.618 -0.587,-11.354z" id="svg_19"/>
     </g>
    </g>
   </g>
  </g>
 </g>
</svg>