<svg xmlns="http://www.w3.org/2000/svg" width="1136" height="502.375" viewBox="0 0 1136 502.375">
  <g id="Group_478" data-name="Group 478" transform="translate(-360 -278.738)">
    <g id="Group_464" data-name="Group 464">
      <path id="Path_1475" data-name="Path 1475" d="M161.118,313.359c100.513-7.628,220.39-85.481,214.295-165.655S253.213-7.089,152.7.538-5.657,158.027.438,238.2C6.534,318.334,60.6,321.028,161.118,313.359Z" transform="translate(703.614 470.168) rotate(-26)" fill="none" stroke="#03bfa6" stroke-width="40"/>
      <g id="undraw_arrived_f58d" transform="matrix(0.848, 0.53, -0.53, 0.848, 911.812, 312.988)">
        <circle id="Ellipse_492" data-name="Ellipse 492" cx="28.079" cy="28.079" r="28.079" transform="translate(145.561 21.902)" fill="#2f2e41"/>
        <path id="Path_1455" data-name="Path 1455" d="M9.209,2S5.148,53.148.274,53.148s56.86-2.407,56.86-2.407-25.993-33.7-13-44.527S9.209,2,9.209,2Z" transform="translate(144.589 65.112)" fill="#9f616a"/>
        <path id="Path_1456" data-name="Path 1456" d="M9.209,2S5.148,53.148.274,53.148s56.86-2.407,56.86-2.407-25.993-33.7-13-44.527S9.209,2,9.209,2Z" transform="translate(144.589 65.112)" opacity="0.1"/>
        <path id="Path_1458" data-name="Path 1458" d="M115.318,0,86.936,8.122l39.645-1.808a34.909,34.909,0,0,1,24.475,8.235c7.063,6.115,12.756,15.814,7.274,30.151C147.367,73.375,130.5,100.363,130.5,100.363l-10.964,21.085s-22.771,3.374-23.615-3.374,0-10.121,4.217-13.494,6.747-10.121,6.747-13.494-.843-6.747,1.687-8.434,3.374-4.217,3.374-9.277,14.63-27.3,14.63-27.3S95.92,35.423,82.719,44.387,42.787,92.773,42.787,92.773a25.379,25.379,0,0,0-4.358,6.192,21.886,21.886,0,0,1-5.513,6.857c-2.453,2.155-.194,8.092.594,8.88.843.843,9.277,34.579,9.277,34.579s9.277,16.024-.843,16.868-19.4,1.687-20.241,0a45.85,45.85,0,0,0-3.373-6.747c-2.53-4.217,0-13.494,0-13.494S-6.13,114.7,1.461,95.3,25.076,32.049,25.076,32.049L49.534,21.928,94.234,5.9Z" transform="translate(111.413 179.015)" fill="#2f2e41"/>
        <path id="Path_1459" data-name="Path 1459" d="M56.367,32.325,21.788,25.578S13.354-3.1,3.234.276,9.981,32.325,9.981,32.325L58.054,54.253Z" transform="translate(0 55.604)" fill="#a0616a"/>
        <path id="Path_1460" data-name="Path 1460" d="M17.711,0,32.892,19.4s21.928-.843,15.181,10.964-21.928,5.06-22.771,2.53S0,8.434,0,8.434Z" transform="translate(248.659 116.604)" fill="#a0616a"/>
        <path id="Path_1461" data-name="Path 1461" d="M140,9.277,118.074,26.145,104.58,5.9,0,0V34.579c25.737-7.431,49.427-9.733,68.314,0,23.906,31.833,29.167,66.4,14.045,103.958L205.786,95.3c-36.993-13.775-54.166-33.746-48.916-60.724L199.883,49.76l26.145-19.4C202.647,14.629,167.853,4.762,140,9.277Z" transform="translate(47.383 81.713)" fill="#4285f4"/>
        <path id="Path_1468" data-name="Path 1468" d="M27.053.75s5.06,19.4,6.747,20.241,20.241,16.868,7.59,19.4-21.928,1.687-24.458-.843-1.687-5.06-5.9-5.9S-.779,30.268.065,24.364,5.125,2.436,7.655.75,27.053.75,27.053.75Z" transform="translate(201.365 295.496)" fill="#2f2e41"/>
        <path id="Path_1469" data-name="Path 1469" d="M32.908,0s7.59,5.9,3.374,16.868S26.161,39.639,26.161,39.639,19.414,60.724,8.45,57.35C4,55.98,1.768,52.243.694,48.289A21.672,21.672,0,0,1,3.757,30.654l6.379-9.569L16.883,3.374Z" transform="translate(122.136 339.258)" fill="#2f2e41"/>
        <circle id="Ellipse_498" data-name="Ellipse 498" cx="20.238" cy="20.238" r="20.238" transform="translate(151.128 45.644)" fill="#a0616a"/>
        <path id="Path_1471" data-name="Path 1471" d="M11.622,0A15.349,15.349,0,0,1,2.766,6.088c-6.193,1.658-.051,10.965-.051,10.965A5.732,5.732,0,0,1,3.7,10.085C6.925,6.5,12.109,4.051,11.622,0Z" transform="translate(176.676 0)" fill="#2f2e41"/>
        <circle id="Ellipse_499" data-name="Ellipse 499" cx="7.825" cy="7.825" r="7.825" transform="translate(170.467 11.46)" fill="#2f2e41"/>
        <path id="Path_1472" data-name="Path 1472" d="M22.466,8.273C16.087,5.86,5.465,4.636,0,5.473L.75,0C6,2.715,16.577,3.991,23.216,2.8Z" transform="translate(165.818 17.572)" fill="#3f3d56"/>
        <path id="Path_1473" data-name="Path 1473" d="M34.889,0s-8,13.3-26.586,18.277S8.15,51.193,8.15,51.193,1.445,41.033,11.117,30.275,36.352,12.161,34.889,0Z" transform="translate(139.364 32.02)" fill="#2f2e41"/>
        <path id="Path_1474" data-name="Path 1474" d="M.2,0S7.878,18.266,16.31,19.993,24.1,50.582,10.916,54.91c0,0,9.615-16.92,1.4-28.268S-1.1,6.324.2,0Z" transform="translate(174.69 31.212)" fill="#2f2e41"/>
        <g id="WTM_logo_horiz_stacked_white_rgb" data-name="WTM logo_horiz_stacked_white_rgb" transform="translate(147.544 140.07) rotate(-13)">
          <g id="Group_323" data-name="Group 323" transform="translate(0 0)">
            <g id="Group_320" data-name="Group 320" transform="translate(0 0)">
              <path id="Path_1345" data-name="Path 1345" d="M235.227,140.736h-11.3a.825.825,0,0,1-.828-.828V100.128a.825.825,0,0,1,.828-.828h11.3a.825.825,0,0,1,.828.828v3.523a.825.825,0,0,1-.828.828h-6.121a.825.825,0,0,0-.828.828V134.7a.825.825,0,0,0,.828.828h6.121a.825.825,0,0,1,.828.828V139.9A.822.822,0,0,1,235.227,140.736Z" transform="translate(-223.1 -99.3)" fill="#fff"/>
            </g>
            <g id="Group_321" data-name="Group 321" transform="translate(36.438)">
              <path id="Path_1346" data-name="Path 1346" d="M668.628,99.3h11.25a.825.825,0,0,1,.828.828v39.781a.825.825,0,0,1-.828.828h-11.25a.825.825,0,0,1-.828-.828v-3.523a.825.825,0,0,1,.828-.828h6.1a.825.825,0,0,0,.828-.828V105.339a.825.825,0,0,0-.828-.828h-6.1a.825.825,0,0,1-.828-.828v-3.548A.838.838,0,0,1,668.628,99.3Z" transform="translate(-667.8 -99.3)" fill="#fff"/>
            </g>
            <g id="Group_322" data-name="Group 322" transform="translate(10.513 7.768)">
              <path id="Path_1347" data-name="Path 1347" d="M536.113,312.924l-2.04-3.024a1.569,1.569,0,0,1-.18.508l-.008.016L530,316.291l6.178,9.308a1.206,1.206,0,0,0,1.164.713h5.3a1.245,1.245,0,0,0,1.245-1.245v-.647l-7.776-11.5Z" transform="translate(-515.366 -300.411)" fill="#fff"/>
              <path id="Path_1348" data-name="Path 1348" d="M612.276,195.345a1.245,1.245,0,0,0-1.245-1.245h-5.285a1.261,1.261,0,0,0-1.245,1.245v10.333l7.768,11.5V195.345Z" transform="translate(-583.761 -194.1)" fill="#fff"/>
              <path id="Path_1349" data-name="Path 1349" d="M359.176,195.345a1.245,1.245,0,0,0-1.245-1.245h-5.285a1.245,1.245,0,0,0-1.245,1.245v21.943l7.768-11.463v-10.48Z" transform="translate(-351.4 -194.1)" fill="#fff"/>
              <path id="Path_1350" data-name="Path 1350" d="M369.418,289.672a1.634,1.634,0,0,0-.2-.27,1.308,1.308,0,0,0-.959-.4H363.2a1.429,1.429,0,0,0-1.2.713l-2.7,3.982L351.4,305.339v.541a.986.986,0,0,0,.115.467,1.276,1.276,0,0,0,1.221.77h5.326a1.418,1.418,0,0,0,1.2-.713l6.465-9.783h0l3.753-5.678A1.287,1.287,0,0,0,369.418,289.672Z" transform="translate(-351.4 -281.224)" fill="#fff"/>
            </g>
          </g>
        </g>
      </g>
      <path id="Path_1855" data-name="Path 1855" d="M274.2-86.4V0H219V-86.4H24v-42l190.2-282h60V-138H327v51.6ZM86.4-138H219V-329.4h-2.4Z" transform="translate(336 742)" fill="#3f3d56"/>
      <path id="Path_1854" data-name="Path 1854" d="M274.2-86.4V0H219V-86.4H24v-42l190.2-282h60V-138H327v51.6ZM86.4-138H219V-329.4h-2.4Z" transform="translate(1169 742)" fill="#3f3d56"/>
    </g>
  </g>
</svg>
