<svg id="Group_475" data-name="Group 475" xmlns="http://www.w3.org/2000/svg" xmlns:xlink="http://www.w3.org/1999/xlink" width="657.828" height="627.884" viewBox="0 0 657.828 627.884">
  <defs>
    <clipPath id="clip-path">
      <path id="Path_1391" data-name="Path 1391" d="M880.191,465.367A294.522,294.522,0,0,1,695.5,738.661,287.923,287.923,0,0,1,664.991,749a295.756,295.756,0,0,1-157.733.02q-10.585-2.938-20.838-6.641a290.333,290.333,0,0,1-44.96-20.664A294.248,294.248,0,0,1,291.977,465.367c-.09-157.284,123.449-286.817,280.436-294.041q6.806-.317,13.671-.311,7.543,0,15.007.372C757.5,179.364,880.217,308.626,880.191,465.367Z" transform="translate(-291.977 -171.015)" fill="#4285f4"/>
    </clipPath>
  </defs>
  <g id="undraw_celebrating_bol5_1_" data-name="undraw_celebrating_bol5 (1)" transform="translate(0 0)">
    <path id="Path_1358" data-name="Path 1358" d="M578.711,756.611a313.454,313.454,0,0,1-83.942-11.393c-7.567-2.1-15.034-4.48-22.193-7.072A310.2,310.2,0,0,1,424.7,716.14a313.729,313.729,0,0,1,15.779-554.3,309.938,309.938,0,0,1,123.676-31.783c9.7-.452,19.966-.449,30.535.064A313.552,313.552,0,0,1,695.172,734.21,308.343,308.343,0,0,1,662.738,745.2a313.6,313.6,0,0,1-84.027,11.414Zm0-624.871c-4.9,0-9.768.111-14.465.33a307.933,307.933,0,0,0-122.881,31.578,311.687,311.687,0,0,0,31.894,572.608c7.112,2.576,14.529,4.94,22.047,7.025a312.946,312.946,0,0,0,166.9-.021,306.107,306.107,0,0,0,32.222-10.916,311.526,311.526,0,0,0-99.833-600.212c-5.383-.261-10.726-.393-15.88-.393Z" transform="translate(-234.052 -129.731)" fill="#3f3d56"/>
    <path id="Path_1356" data-name="Path 1356" d="M880.191,465.367A294.522,294.522,0,0,1,695.5,738.661,287.923,287.923,0,0,1,664.991,749a295.756,295.756,0,0,1-157.733.02q-10.585-2.938-20.838-6.641a290.333,290.333,0,0,1-44.96-20.664A294.248,294.248,0,0,1,291.977,465.367c-.09-157.284,123.449-286.817,280.436-294.041q6.806-.317,13.671-.311,7.543,0,15.007.372C757.5,179.364,880.217,308.626,880.191,465.367Z" transform="translate(-235.397 -131.836)" fill="#03bfa6" opacity="0.5"/>
    <g id="Mask_Group_1" data-name="Mask Group 1" transform="translate(56.58 39.179)" clip-path="url(#clip-path)">
      <g id="undraw_candidate_ubwv_1_" data-name="undraw_candidate_ubwv (1)" transform="translate(-56.532 66.088)">
        <ellipse id="Ellipse_477" data-name="Ellipse 477" cx="88.006" cy="80.152" rx="88.006" ry="80.152" transform="translate(52.696 40.268)" fill="#3f3d56"/>
        <path id="Path_1374" data-name="Path 1374" d="M494.776,593.279h0s29.644-20.4,29.644-29.669,20.38-69.536,31.5-42.648-15.748,64.9-15.748,64.9-29.644,53.775-47.245,63.047-32.423,3.709-32.423,3.709V627.584L477.436,602.5A20.922,20.922,0,0,1,494.776,593.279Z" transform="translate(-209.096 -210.939)" fill="#ffb9b9"/>
        <path id="Path_1375" data-name="Path 1375" d="M406.544,446.336s44.425,14.059,49.057,20.55,6.484-4.636,19.454,38.013,16.211,83.907,16.211,83.907-31.96,10.662-28.254,52.384-5.558,87.152-5.558,87.152H445.889L420.4,649.534l30.57-119.6S407.51,456.384,406.544,446.336Z" transform="translate(-205.124 -206.002)" fill="#575a89"/>
        <ellipse id="Ellipse_478" data-name="Ellipse 478" cx="55.583" cy="55.629" rx="55.583" ry="55.629" transform="translate(130.975 90.287)" fill="#ffb9b9"/>
        <path id="Path_1376" data-name="Path 1376" d="M406.579,387.8s-15.748,51.92-1.853,59.338,29.644,40.795,29.644,40.795L410.285,514.82H354.7L329.69,487.006,319.5,439.721,333.4,428.6s14.822-37.086,14.822-56.556S406.579,387.8,406.579,387.8Z" transform="translate(-198.715 -200.162)" fill="#ffb9b9"/>
        <path id="Path_1377" data-name="Path 1377" d="M409.444,450.08s-11.117-2.781-4.632,8.344,12.969,31.523-10.19,32.451-46.319-11.126-53.73-36.159-10.19-23.179-12.969-22.252S295.5,463.988,295.5,463.988l10.19,57.483L309.4,727.3H444.646s5.558-59.338-3.706-73.245,8.337-49.139,8.337-49.139,15.749-24.106,3.706-70.464S414.076,450.08,409.444,450.08Z" transform="translate(-196.948 -204.959)" fill="#f2f2f2"/>
        <path id="Path_1378" data-name="Path 1378" d="M330.359,432.352s-13.9-6.49-25.939,4.636-38.908,20.4-38.908,25.96,23.16,164.105,7.411,191.92S240.5,727.186,240.5,727.186h77.272s12.586-46.358,25.556-71.391,12.043-95.5,8.337-116.821S330.359,432.352,330.359,432.352Z" transform="translate(-192.899 -204.847)" fill="#575a89"/>
        <path id="Path_1379" data-name="Path 1379" d="M118.5,548.553l4.511,49.139h50.068L168.524,536.5Z" transform="translate(-62.562 -75.352)" fill="#ffb9b9"/>
        <path id="Path_1380" data-name="Path 1380" d="M364.5,515.526l12.043,75.1H644.265L667.425,439.5Z" transform="translate(-80.673 -68.286)" fill="#3f3d56"/>
        <path id="Path_1381" data-name="Path 1381" d="M675.185,428.5l2.779,13.907L331.5,525.851V513.8Z" transform="translate(-78.244 -67.485)" fill="#3f3d56"/>
        <path id="Path_1382" data-name="Path 1382" d="M544.353,455.281,542.5,471.043l20.38-2.782L554.543,452.5Z" transform="translate(-93.778 -69.233)" fill="#3f3d56"/>
        <path id="Path_1383" data-name="Path 1383" d="M554.5,431.5s40.761-2.782,51.877,28.742,37.055,88.079,47.245,96.424,21.307,30.6,19.454,38.013" transform="translate(-216.017 -204.916)" fill="none" stroke="#3f3d56" stroke-miterlimit="10" stroke-width="5"/>
        <path id="Path_1384" data-name="Path 1384" d="M559.159,430.381c0,4.353-4.624,7.881-12.043,7.881S536,434.733,536,430.381s3.7-7.881,11.117-7.881S559.159,426.029,559.159,430.381Z" transform="translate(-214.655 -204.266)" fill="#f2f2f2"/>
        <path id="Path_1385" data-name="Path 1385" d="M481.077,576.753s6.948-29.205-6.022-71.854-14.822-31.523-19.454-38.013-49.058-20.549-49.058-20.549c.318,3.3,5.223,13.459,11.668,25.611a49.347,49.347,0,0,0-5.223-12.479c-6.485-11.126,4.632-8.344,4.632-8.344,4.632,0,31.5,38.013,43.54,84.371s-3.706,70.464-3.706,70.464Z" transform="translate(-205.124 -206.002)" fill="#575a89"/>
        <path id="Path_1386" data-name="Path 1386" d="M407,446s5.484,20.822,10.153,23.854,32.358,31.824,32.358,31.824l-3.6-23.228L431.086,456.2l-3.943-2.863Z" transform="translate(-205.157 -205.978)" fill="#575a89"/>
        <path id="Path_1387" data-name="Path 1387" d="M271.413,511.248,272.7,463.5s-30.472,12.98-33.252,68.609,4.632,160.4,14.822,161.324,58.362-10.2,58.362-10.2,7.411-134.437,4.632-152.053S271.413,511.248,271.413,511.248Z" transform="translate(-192.779 -207.253)" opacity="0.1"/>
        <path id="Path_1388" data-name="Path 1388" d="M273.214,463.5H265.7s-30.472,12.98-33.252,68.609,4.632,160.4,14.822,161.324,58.362-10.2,58.362-10.2,7.411-134.437,4.632-152.053S273.214,463.5,273.214,463.5Z" transform="translate(-192.263 -207.253)" fill="#575a89"/>
        <ellipse id="Ellipse_479" data-name="Ellipse 479" cx="57.435" cy="64.437" rx="57.435" ry="64.437" transform="translate(62.886 66.645)" fill="#3f3d56"/>
        <ellipse id="Ellipse_480" data-name="Ellipse 480" cx="11.58" cy="17.152" rx="11.58" ry="17.152" transform="translate(149.965 149.161)" fill="#ffb9b9"/>
        <ellipse id="Ellipse_481" data-name="Ellipse 481" cx="47.245" cy="47.285" rx="47.245" ry="47.285" transform="translate(15.641 19.36)" fill="#3f3d56"/>
        <path id="Path_1389" data-name="Path 1389" d="M258.109,296.9a47.239,47.239,0,0,1-68.452-37.654,47.244,47.244,0,1,0,93.727,2.632A47.209,47.209,0,0,1,258.109,296.9Z" transform="translate(-189.116 -192.373)" fill="#3f3d56"/>
        <path id="Path_1390" data-name="Path 1390" d="M227.314,261.579a47.3,47.3,0,0,1,23.791-74.461,47.276,47.276,0,1,0,15.4,92.568A47.156,47.156,0,0,1,227.314,261.579Z" transform="translate(-190.347 -187.119)" fill="#3f3d56"/>
        <ellipse id="Ellipse_482" data-name="Ellipse 482" cx="33.35" cy="24.106" rx="33.35" ry="24.106" transform="translate(156.45 78.698)" fill="#3f3d56"/>
      </g>
    </g>
    <g id="undraw_candidate_ubwv_1_2" data-name="undraw_candidate_ubwv (1)" transform="translate(0 105.267)">
      <ellipse id="Ellipse_477-2" data-name="Ellipse 477" cx="88.079" cy="80.152" rx="88.079" ry="80.152" transform="translate(52.74 40.268)" fill="#3f3d56"/>
      <ellipse id="Ellipse_478-2" data-name="Ellipse 478" cx="55.629" cy="55.629" rx="55.629" ry="55.629" transform="translate(131.085 90.287)" fill="#ffb9b9"/>
      <path id="Path_1386-2" data-name="Path 1386" d="M407,446s5.489,20.822,10.162,23.854,32.385,31.824,32.385,31.824L445.94,478.45,431.106,456.2l-3.946-2.863Z" transform="translate(-204.988 -205.978)" fill="#575a89"/>
      <ellipse id="Ellipse_479-2" data-name="Ellipse 479" cx="57.483" cy="64.437" rx="57.483" ry="64.437" transform="translate(62.939 66.645)" fill="#3f3d56"/>
      <ellipse id="Ellipse_480-2" data-name="Ellipse 480" cx="11.589" cy="17.152" rx="11.589" ry="17.152" transform="translate(150.091 149.161)" fill="#ffb9b9"/>
      <ellipse id="Ellipse_481-2" data-name="Ellipse 481" cx="47.285" cy="47.285" rx="47.285" ry="47.285" transform="translate(15.654 19.36)" fill="#3f3d56"/>
      <path id="Path_1389-2" data-name="Path 1389" d="M258.167,296.9a47.281,47.281,0,0,1-68.509-37.654,47.28,47.28,0,1,0,93.806,2.632A47.212,47.212,0,0,1,258.167,296.9Z" transform="translate(-189.116 -192.373)" fill="#3f3d56"/>
      <path id="Path_1390-2" data-name="Path 1390" d="M227.332,261.579a47.281,47.281,0,0,1,23.811-74.461,47.28,47.28,0,1,0,15.414,92.568A47.211,47.211,0,0,1,227.332,261.579Z" transform="translate(-190.334 -187.119)" fill="#3f3d56"/>
      <ellipse id="Ellipse_482-2" data-name="Ellipse 482" cx="33.377" cy="24.106" rx="33.377" ry="24.106" transform="translate(156.581 78.698)" fill="#3f3d56"/>
    </g>
  </g>
</svg>
