<svg id="undraw_social_notifications_ro8o" xmlns="http://www.w3.org/2000/svg" width="767.684" height="819.26" viewBox="0 0 767.684 819.26">
  <path id="Path_1552" data-name="Path 1552" d="M532.306,556.052c3.843-2.411,7.716-4.932,11.507-7.492l2.575,3.815c-3.834,2.588-7.749,5.137-11.635,7.577Z" transform="translate(92.411 196.759)" fill="#e6e6e6"/>
  <path id="Path_1553" data-name="Path 1553" d="M400.672,246.341c5.127-3.461,10.375-6.836,15.6-10.032l2.4,3.926c-7.824,4.785-15.655,9.949-23.177,15.282l-2.66-3.757Q396.711,249.015,400.672,246.341ZM370.5,268.758l2.911,3.566c-7.154,5.837-14.18,11.984-20.89,18.271l-3.146-3.359c6.786-6.357,13.891-12.574,21.125-18.478Zm70.2-46.281c8.276-4.32,16.791-8.4,25.312-12.13l1.842,4.217c-8.421,3.686-16.841,7.721-25.023,11.995ZM329.561,307.119l3.37,3.137c-6.275,6.746-12.394,13.8-18.186,20.963l-3.579-2.893c5.862-7.248,12.051-14.383,18.4-21.207ZM492.094,199.986c8.77-3.138,17.768-6.01,26.742-8.537l1.248,4.428c-8.874,2.5-17.769,5.342-26.442,8.443ZM294.281,350.75l3.771,2.638c-5.282,7.546-10.367,15.368-15.112,23.245L279,374.256C283.8,366.292,288.937,358.384,294.281,350.75ZM546.146,184.765c9.146-1.9,18.464-3.511,27.7-4.776l.625,4.561c-9.126,1.25-18.341,2.839-27.384,4.722Zm-280.784,214,4.1,2.1c-4.2,8.2-8.166,16.65-11.788,25.108l-4.232-1.812C257.1,415.606,261.117,407.063,265.362,398.766ZM601.791,177.132c9.317-.63,18.761-.946,28.076-.935l-.006,4.6c-9.208-.009-18.548.3-27.76.923ZM243.279,450.315l4.344,1.52c-3.043,8.7-5.823,17.611-8.263,26.492l-4.438-1.217C237.39,468.126,240.2,459.11,243.279,450.315ZM657.937,177.184c9.293.646,18.69,1.621,27.93,2.9l-.632,4.559c-9.135-1.263-18.427-2.227-27.618-2.866ZM228.409,504.414l4.51.914c-1.83,9.033-3.375,18.245-4.587,27.381l-4.563-.606C225,522.863,226.557,513.547,228.409,504.414ZM713.531,184.878c9.128,1.9,18.3,4.149,27.269,6.667l-1.245,4.43c-8.866-2.491-17.937-4.707-26.963-6.591Zm-492.5,375.175,4.591.3c-.587,9.188-.863,18.528-.82,27.756l-4.6.02C220.156,578.792,220.437,569.346,221.031,560.053Zm546.513-360c8.781,3.126,17.561,6.6,26.1,10.31l-1.836,4.221c-8.44-3.673-17.122-7.1-25.807-10.2ZM221.3,616.2l4.588-.337c.675,9.2,1.678,18.493,2.984,27.622l-4.555.651C222.993,634.9,221.976,625.5,221.3,616.2ZM818.966,222.428c8.266,4.292,16.486,8.927,24.432,13.774L841,240.13c-7.856-4.791-15.984-9.374-24.156-13.619ZM229.246,671.8l4.5-.966c1.934,9.023,4.208,18.1,6.759,26.963l-4.423,1.272C233.5,690.1,231.2,680.923,229.246,671.8ZM866.815,251.615c7.606,5.391,15.119,11.116,22.331,17.014l-2.915,3.562c-7.129-5.832-14.556-11.49-22.076-16.822ZM244.776,725.765l4.326-1.576c3.154,8.661,6.651,17.32,10.391,25.735l-4.205,1.869C251.505,743.281,247.968,734.526,244.776,725.765ZM910.243,287.144c6.786,6.383,13.44,13.087,19.772,19.924L926.64,310.2c-6.262-6.76-12.839-13.388-19.55-19.7ZM267.56,777.035l4.068-2.152c4.3,8.132,8.952,16.23,13.812,24.073l-3.912,2.423C276.611,793.451,271.914,785.26,267.56,777.035ZM948.374,328.3c5.841,7.242,11.516,14.79,16.871,22.433l-3.771,2.64c-5.293-7.559-10.907-15.022-16.683-22.184ZM300.854,822.043c5.376,7.5,11.071,14.9,16.927,22l-3.549,2.928c-5.924-7.177-11.682-14.66-17.12-22.242Zm35.314,42.785c6.351,6.7,13,13.25,19.775,19.475l-3.114,3.387c-6.85-6.3-13.579-12.922-20-19.7Zm40.845,37.539c7.192,5.747,14.674,11.316,22.24,16.552l-2.619,3.784c-7.653-5.3-15.22-10.928-22.492-16.741ZM422.588,933.9c7.924,4.71,16.106,9.2,24.316,13.347l-2.075,4.108c-8.3-4.193-16.578-8.735-24.592-13.5Zm49.5,25c8.5,3.585,17.224,6.916,25.922,9.9l-1.493,4.35c-8.8-3.019-17.62-6.389-26.218-10.013Zm52.466,18.016c8.9,2.392,17.993,4.508,27.036,6.29l-.889,4.514c-9.146-1.8-18.345-3.941-27.343-6.359Zm54.441,10.721c9.156,1.16,18.459,2.021,27.65,2.555l-.266,4.594c-9.3-.54-18.7-1.409-27.961-2.583Zm55.41,3.222c9.233-.1,18.568-.515,27.746-1.24l.365,4.588c-9.285.733-18.725,1.156-28.064,1.254Zm55.348-4.384c9.129-1.358,18.321-3.052,27.322-5.035l.99,4.495c-9.1,2.005-18.4,3.718-27.635,5.093Zm54.236-11.945c8.84-2.6,17.7-5.541,26.343-8.743l1.6,4.315c-8.739,3.24-17.7,6.215-26.644,8.843Zm52.021-19.282c8.391-3.788,16.765-7.918,24.892-12.279l2.175,4.058c-8.219,4.408-16.689,8.586-25.173,12.417Z" transform="translate(-220.196 -176.197)" fill="#fff"/>
  <path id="Path_1554" data-name="Path 1554" d="M598.285,277.814l3.944-2.374c2.4,3.981,4.737,8.022,6.96,12.012l-4.02,2.239C602.971,285.745,600.656,281.749,598.285,277.814Z" transform="translate(158.496 -76.795)" fill="#e6e6e6"/>
  <path id="Path_1856" data-name="Path 1856" d="M74.06,148.117A74.078,74.078,0,0,1,45.232,5.82,74.078,74.078,0,0,1,102.886,142.3,73.581,73.581,0,0,1,74.06,148.117ZM41.145,36.776a12.61,12.61,0,0,0-12.6,12.6V90.026a12.619,12.619,0,0,0,12.552,12.6v18.449l26.513-18.449h39.963a12.611,12.611,0,0,0,12.6-12.6V49.373a12.611,12.611,0,0,0-12.6-12.6ZM46.469,110.8V97.255H41.145a7.236,7.236,0,0,1-7.228-7.229V49.373a7.236,7.236,0,0,1,7.228-7.229h66.433a7.236,7.236,0,0,1,7.227,7.229V90.026a7.236,7.236,0,0,1-7.227,7.229H65.929L46.471,110.794Zm6.6-32.144V84.02H95.65V78.651Zm0-11.453v5.368H95.65V67.2Zm0-11.452v5.368H95.65V55.747Z" transform="translate(383.823 543.038)" fill="#3f3d56"/>
  <path id="Path_1854" data-name="Path 1854" d="M74.06,148.117A74.078,74.078,0,0,1,45.232,5.82,74.078,74.078,0,0,1,102.887,142.3,73.584,73.584,0,0,1,74.06,148.117Zm.967-49.643h0L96.04,112.132a1.809,1.809,0,0,0,.987.291,1.829,1.829,0,0,0,.571-.091,1.807,1.807,0,0,0,1.128-1.094l25.354-68.819a1.828,1.828,0,0,0,.06-.189c0-.016.006-.033.008-.049l0-.031a.462.462,0,0,0,.014-.064c0-.016.006-.033.01-.049a.8.8,0,0,0,.014-.081,2.014,2.014,0,0,0-.017-.4.359.359,0,0,1,0-.049.285.285,0,0,0,0-.054,1.829,1.829,0,0,0-.181-.523.6.6,0,0,0-.031-.053l-.011-.017-.009-.015a.022.022,0,0,1,0-.007.018.018,0,0,0,0-.007l0-.006s0,0,0,0l-.009-.015-.009-.015-.018-.031a1.762,1.762,0,0,0-.4-.416.414.414,0,0,0-.063-.036.533.533,0,0,1-.048-.026,1.7,1.7,0,0,0-.428-.21,1.2,1.2,0,0,0-.19-.043l-.012,0a1.728,1.728,0,0,0-.361-.038h-.041c-.071,0-.141.006-.214.016a.47.47,0,0,1-.064,0,.425.425,0,0,0-.077.007L16.839,61.741a1.812,1.812,0,0,0-.48,3.377L46.488,81.01l5.284,29.324a.215.215,0,0,0,0,.034v.01c0,.007,0,.016,0,.024a1.7,1.7,0,0,0,0,.429,1.61,1.61,0,0,0,.036.212,1.811,1.811,0,0,0,.2.486.16.16,0,0,1,.019.045.161.161,0,0,0,.02.046.072.072,0,0,0,.012.015l.009.009a.523.523,0,0,0,.045.053c.013.015.026.029.038.044a1.862,1.862,0,0,0,.275.283.136.136,0,0,1,.021.021.172.172,0,0,0,.025.024.229.229,0,0,0,.045.023.322.322,0,0,1,.04.02,1.847,1.847,0,0,0,.345.179l.05.019a.994.994,0,0,0,.1.035,1.789,1.789,0,0,0,.5.079.038.038,0,0,0,.016,0h.1a1.8,1.8,0,0,0,1.29-.569l20.069-13.38Zm21.085,9.385v0h0l-27.9-18.135L63.98,86.973,118.6,46.809,96.112,107.858Zm-39.22-1.648v0L61.829,89.9l7.689,5,2.2,1.429-7.471,4.979-7.351,4.9Zm-2.807-3.491h0l-3.945-21.9,53.05-27.173L59.723,85.607a1.22,1.22,0,0,0-.143.133l-.044.046-.01.009-.009.008a.311.311,0,0,0-.048.046c-.036.04-.069.081-.106.128-.02.026-.037.054-.054.081l-.034.053a1.934,1.934,0,0,0-.166.341.169.169,0,0,1-.014.027l0,.006h0a.182.182,0,0,0-.014.031.035.035,0,0,1-.005.01.027.027,0,0,0-.005.007ZM48.13,77.778,22.515,64.268l87.157-18.012L48.13,77.778Z" transform="translate(147.333 338.876)" fill="#3f3d56"/>
  <ellipse id="Ellipse_513" data-name="Ellipse 513" cx="38.978" cy="39.406" rx="38.978" ry="39.406" transform="translate(423.659 250.913)" fill="#3f3d56"/>
  <path id="Path_1574" data-name="Path 1574" d="M464.329,352.774h-7.936v-30.24a27.306,27.306,0,0,1-10.255,6.08v-7.281a22.87,22.87,0,0,0,6.749-3.9,14.782,14.782,0,0,0,5-6.7h6.441Z" transform="translate(6.106 -41.439)" fill="#3f3d56"/>
  <circle id="Ellipse_515" data-name="Ellipse 515" cx="39.406" cy="39.406" r="39.406" transform="translate(182.271 465.572)" fill="#3f3d56"/>
  <path id="Path_1576" data-name="Path 1576" d="M332.837,445.446a9.232,9.232,0,0,0,1.69,5.939,4.9,4.9,0,0,0,3.864,2.093,4.323,4.323,0,0,0,3.488-1.714,8.94,8.94,0,0,0,1.4-5.616,9.348,9.348,0,0,0-1.5-5.883,4.7,4.7,0,0,0-7.433-.085A7.994,7.994,0,0,0,332.837,445.446Zm17.093-17.213-7.3.845a5.674,5.674,0,0,0-1.4-3.481,3.958,3.958,0,0,0-2.923-1.123,4.885,4.885,0,0,0-4.039,2.245q-1.653,2.249-2.08,9.354a8.66,8.66,0,0,1,7-3.486,10.485,10.485,0,0,1,8.088,3.765,14.013,14.013,0,0,1,3.368,9.715A14.306,14.306,0,0,1,347.11,456.2a12.516,12.516,0,0,1-18.888-1.026q-3.839-4.842-3.839-15.877,0-11.318,4-16.315a12.676,12.676,0,0,1,10.384-5,10.723,10.723,0,0,1,7.419,2.623A12.51,12.51,0,0,1,349.93,428.234Z" transform="translate(-115.842 65.973)" fill="#3f3d56"/>
  <path id="Path_1858" data-name="Path 1858" d="M39.406,0A39.406,39.406,0,1,1,0,39.406,39.406,39.406,0,0,1,39.406,0Z" transform="translate(182.271 465.572)" fill="#4285f4"/>
  <path id="Path_1577" data-name="Path 1577" d="M332.837,445.446a9.232,9.232,0,0,0,1.69,5.939,4.9,4.9,0,0,0,3.864,2.093,4.323,4.323,0,0,0,3.488-1.714,8.94,8.94,0,0,0,1.4-5.616,9.348,9.348,0,0,0-1.5-5.883,4.7,4.7,0,0,0-7.433-.085A7.994,7.994,0,0,0,332.837,445.446Zm17.093-17.213-7.3.845a5.674,5.674,0,0,0-1.4-3.481,3.958,3.958,0,0,0-2.923-1.123,4.885,4.885,0,0,0-4.039,2.245q-1.653,2.249-2.08,9.354a8.66,8.66,0,0,1,7-3.486,10.485,10.485,0,0,1,8.088,3.765,14.013,14.013,0,0,1,3.368,9.715A14.306,14.306,0,0,1,347.11,456.2a12.516,12.516,0,0,1-18.888-1.026q-3.839-4.842-3.839-15.877,0-11.318,4-16.315a12.676,12.676,0,0,1,10.384-5,10.723,10.723,0,0,1,7.419,2.623A12.51,12.51,0,0,1,349.93,428.234Z" transform="translate(-115.842 65.973)" fill="#fff"/>
  <circle id="Ellipse_517" data-name="Ellipse 517" cx="39.406" cy="39.406" r="39.406" transform="translate(417.969 667.102)" fill="#3f3d56"/>
  <path id="Path_1578" data-name="Path 1578" d="M450.4,529.838a5.011,5.011,0,0,0,1.3,3.674,4.6,4.6,0,0,0,3.446,1.319,4.668,4.668,0,0,0,3.487-1.332,5.046,5.046,0,0,0,1.308-3.69,4.885,4.885,0,0,0-1.293-3.55,4.545,4.545,0,0,0-3.42-1.332,4.666,4.666,0,0,0-3.515,1.345A4.91,4.91,0,0,0,450.4,529.838Zm-.707,17.622a7.368,7.368,0,0,0,1.623,5.077,5.192,5.192,0,0,0,4.046,1.825,5.009,5.009,0,0,0,3.923-1.756,7.394,7.394,0,0,0,1.552-5.062,6.648,6.648,0,0,0-1.578-4.641,5.144,5.144,0,0,0-4.005-1.757,4.735,4.735,0,0,0-4.184,1.993A7.453,7.453,0,0,0,449.695,547.459Zm-.871-9.682a8.962,8.962,0,0,1-4.32-3.55,9.432,9.432,0,0,1-1.348-4.949,10.1,10.1,0,0,1,3.118-7.606,14.567,14.567,0,0,1,17.715,0,10.05,10.05,0,0,1,3.147,7.606,9.02,9.02,0,0,1-5.506,8.5,10.433,10.433,0,0,1,6.788,10.1A12.179,12.179,0,0,1,455.5,560.7a13.928,13.928,0,0,1-9.075-2.945,11.641,11.641,0,0,1-4.278-9.544,12.045,12.045,0,0,1,1.608-6.126A10.429,10.429,0,0,1,448.824,537.777Z" transform="translate(2.096 166.823)" fill="#3f3d56"/>
  <path id="Path_1857" data-name="Path 1857" d="M39.406,0A39.406,39.406,0,1,1,0,39.406,39.406,39.406,0,0,1,39.406,0Z" transform="translate(417.969 667.102)" fill="#4285f4"/>
  <path id="Path_1579" data-name="Path 1579" d="M450.4,529.838a5.011,5.011,0,0,0,1.3,3.674,4.6,4.6,0,0,0,3.446,1.319,4.668,4.668,0,0,0,3.487-1.332,5.046,5.046,0,0,0,1.308-3.69,4.885,4.885,0,0,0-1.293-3.55,4.545,4.545,0,0,0-3.42-1.332,4.666,4.666,0,0,0-3.515,1.345A4.91,4.91,0,0,0,450.4,529.838Zm-.707,17.622a7.368,7.368,0,0,0,1.623,5.077,5.192,5.192,0,0,0,4.046,1.825,5.009,5.009,0,0,0,3.923-1.756,7.394,7.394,0,0,0,1.552-5.062,6.648,6.648,0,0,0-1.578-4.641,5.144,5.144,0,0,0-4.005-1.757,4.735,4.735,0,0,0-4.184,1.993A7.453,7.453,0,0,0,449.695,547.459Zm-.871-9.682a8.962,8.962,0,0,1-4.32-3.55,9.432,9.432,0,0,1-1.348-4.949,10.1,10.1,0,0,1,3.118-7.606,14.567,14.567,0,0,1,17.715,0,10.05,10.05,0,0,1,3.147,7.606,9.02,9.02,0,0,1-5.506,8.5,10.433,10.433,0,0,1,6.788,10.1A12.179,12.179,0,0,1,455.5,560.7a13.928,13.928,0,0,1-9.075-2.945,11.641,11.641,0,0,1-4.278-9.544,12.045,12.045,0,0,1,1.608-6.126A10.429,10.429,0,0,1,448.824,537.777Z" transform="translate(2.096 166.823)" fill="#fff"/>
  <path id="Path_1855" data-name="Path 1855" d="M74.06,148.117A74.078,74.078,0,0,1,45.232,5.82,74.078,74.078,0,0,1,102.887,142.3,73.584,73.584,0,0,1,74.06,148.117Zm.461-121.456a4.223,4.223,0,0,0-2.584.888l-6.145,4.773H50.443A4.253,4.253,0,0,0,46.2,36.57V47.532L32.579,58.111a.174.174,0,0,0-.03.034.132.132,0,0,1-.027.032,1.263,1.263,0,0,0-.188.22,1.617,1.617,0,0,0-.281.745.149.149,0,0,1-.008.042.15.15,0,0,0-.008.043v48.156a4.227,4.227,0,0,0,.831,2.5.085.085,0,0,1,.009.019.069.069,0,0,0,.011.021l.014.013a.21.21,0,0,1,.031.027,4.254,4.254,0,0,0,3.348,1.669H112.76a4.253,4.253,0,0,0,3.359-1.676.069.069,0,0,1,.021-.018.1.1,0,0,0,.018-.016.194.194,0,0,0,.009-.018.079.079,0,0,1,.011-.022,4.221,4.221,0,0,0,.831-2.5V59.23a.149.149,0,0,0-.008-.044.213.213,0,0,1-.008-.041,1.262,1.262,0,0,0-.06-.287,1.3,1.3,0,0,0-.081-.244,1.183,1.183,0,0,0-.141-.216,1.3,1.3,0,0,0-.188-.219.173.173,0,0,1-.026-.031.151.151,0,0,0-.031-.035l-13.62-10.579V36.57A4.253,4.253,0,0,0,98.6,32.322H83.248L77.1,27.549A4.22,4.22,0,0,0,74.521,26.661ZM112.4,108.8H36.637L73.671,80.032a1.365,1.365,0,0,1,1.689,0L112.4,108.8Zm-77.541-2.2v0l0-45.2,23.21,18.022A1.416,1.416,0,1,0,59.81,77.17L36.231,58.86,46.2,51.119V62.062a1.416,1.416,0,0,0,2.831,0V36.57a1.419,1.419,0,0,1,1.417-1.417H98.6a1.418,1.418,0,0,1,1.416,1.417V62.062a1.416,1.416,0,0,0,2.833,0V51.119l9.964,7.741L89.19,77.2a1.416,1.416,0,1,0,1.736,2.238l23.25-18.053v45.2L77.1,77.8a4.2,4.2,0,0,0-5.166,0L34.863,106.592ZM74.52,37.985a17,17,0,0,0,0,33.992,1.417,1.417,0,0,0,0-2.834A14.162,14.162,0,1,1,88.683,54.982v5.664a2.833,2.833,0,1,1-5.667,0V54.982a1.416,1.416,0,1,0-2.831,0,5.665,5.665,0,1,1-5.665-5.666,1.416,1.416,0,1,0,0-2.831H74.5a8.5,8.5,0,1,0,5.751,14.758,5.632,5.632,0,0,0,5.617,5.071c.093,0,.192,0,.3-.008a5.647,5.647,0,0,0,5.35-5.661V54.98A17.013,17.013,0,0,0,74.52,37.985Zm4.108-5.664H70.414l3.257-2.538a1.358,1.358,0,0,1,1.689,0l3.265,2.535Z" transform="translate(367.533 128.918)" fill="#3f3d56"/>
  <path id="Path_1859" data-name="Path 1859" d="M38.978,0A39.194,39.194,0,0,1,77.956,39.406,39.194,39.194,0,0,1,38.978,78.813,39.194,39.194,0,0,1,0,39.406,39.194,39.194,0,0,1,38.978,0Z" transform="translate(423.659 250.913)" fill="#4285f4"/>
  <path id="Path_1575" data-name="Path 1575" d="M464.329,352.774h-7.936v-30.24a27.306,27.306,0,0,1-10.255,6.08v-7.281a22.87,22.87,0,0,0,6.749-3.9,14.782,14.782,0,0,0,5-6.7h6.441Z" transform="translate(6.106 -41.439)" fill="#fff"/>
</svg>
