<?xml version="1.0" encoding="utf-8"?>
<svg id="master-artboard" viewBox="0 0 1400 423.4669494628906" version="1.1" xmlns="http://www.w3.org/2000/svg" x="0px" y="0px" style="enable-background:new 0 0 336 235.2;" width="1400px" height="423.4669494628906px"><defs><clipPath id="clip-path">
      <path id="Subtraction_4" data-name="Subtraction 4" d="M230.354,491.217h0L0,451.839,72.848,284.487,265.794,46.258,427.152,0l112.31,101.386L655.625,302.207,559.151,414.432l-43.9,10.758-14.713-15.105c-37.89-35.693-66.243-59.324-113.244-62.47-1.644-.11-3.1-.166-4.327-.166a14.837,14.837,0,0,0-2.807.166l-27.291,19.064-48.918,75.3-9.455,6.842-22.945,13.839-41.193,28.556Z" transform="translate(0 0)" fill="red"/>
    </clipPath><clipPath id="path-1">
      <path id="path-2" data-name="Subtraction 4" d="M230.354,491.217h0L0,451.839,72.848,284.487,265.794,46.258,427.152,0l112.31,101.386L655.625,302.207,559.151,414.432l-43.9,10.758-14.713-15.105c-37.89-35.693-66.243-59.324-113.244-62.47-1.644-.11-3.1-.166-4.327-.166a14.837,14.837,0,0,0-2.807.166l-27.291,19.064-48.918,75.3-9.455,6.842-22.945,13.839-41.193,28.556Z" transform="translate(0 0)" fill="red"/>
    </clipPath></defs><rect id="ee-background" x="0" y="0" width="1400" height="423.4669494628906" style="fill: white; fill-opacity: 0; pointer-events: none;"/>














<g transform="matrix(0.5795105695724487, 0, 0, 0.5795105695724487, -39.99199295043945, -147.73638916015625)"><g id="Group_477" data-name="Group 477" transform="translate(85.904 -6570.878)">
    <path id="XMLID_1_" d="M0,71.067S179.066-1.346,183.934.019c79.989,22.419,164.248,66.07,223.489,139.81C493.838,247.2,449.339,322.705,553.839,419.741c79.811,73.782,156.464,76.94,177.134,149.573,15.5,54.26-9.474,114.549-36.747,148.138-69.317,85.7-234.985,102-404.858,70.213h0L0,71.067Z" transform="translate(-85.905 7528.792) rotate(-68)" fill="#03bfa6" opacity="0.32"/>
    <path id="XMLID_1_2" data-name="XMLID_1_" d="M300.943,336.087C349.648,202.483,222.3,108.2,271.452,43.41,322.629-23.879,526.433-14.464,711.48,82.333h0L631.149,1232.751h0c-283.929-73.178-548.743-226.646-609.924-415.87C9.16,779.347-13.629,708.747,10.947,631.892,61.886,476.393,248.663,480.415,300.943,336.087Z" transform="translate(2273.435 6839.957) rotate(86)" fill="#5390f5" opacity="0.32"/>
    <path id="Path_1587" data-name="Path 1587" d="M0,125.124,398.362,14.05S439.175,3.151,466.757.379,545.42,10.956,545.42,10.956L1897.7,408.362c70.216,19.333,90.411,58.919,115.074,115.073l212.381,546.235Z" transform="matrix(0.921, -0.391, 0.391, 0.921, -69.051, 7440.313)" fill="#fff"/>
    <g id="undraw_feedback_h2ft" transform="translate(434.28 6991.811)">
      <path id="Path_1694" data-name="Path 1694" d="M562.592,105.392h0c20.187,0,36.552,18.161,36.552,40.564V174.42h-8.755l-5.068-10.546,1.267,10.546H530.32l-4.608-9.587,1.152,9.587H520.53V152.071C520.53,126.291,539.361,105.392,562.592,105.392Z" transform="translate(-504.723 -105.392)" fill="#2f2e41"/>
      <path id="Path_1695" data-name="Path 1695" d="M619.5,326.777l22.443,9.538,77.987,63.4a22.955,22.955,0,0,1,5.05,12.343c.561,7.294,24.125,45.446,15.709,50.5s-38.713,20.2-40.4,10.1-10.661-53.3-10.661-53.3l-75.182-67.327Z" transform="translate(-519.75 -140.813)" fill="#2f2e41"/>
      <path id="Path_1696" data-name="Path 1696" d="M725.326,489.992l9.538,28.053s-10.1,10.66-5.049,19.637v30.859h7.855l2.244-16.271s8.947,16.065,13.466,16.271c9.473.431,28.231,3.8,28.793-1.249s-14.206-9.972-14.206-9.972l-15.71-43.2-6.732-26.37Z" transform="translate(-537.49 -166.568)" fill="#2f2e41"/>
      <path id="Path_1697" data-name="Path 1697" d="M550.836,312.964s-5.05,49.373,9.538,58.351,79.11,37.591,79.11,37.591-27.492,25.809-21.881,31.98,30.858,23,34.225,19.637,40.957-43.763,36.469-56.667-66.766-54.984-66.766-54.984l-7.294-26.37-2.244-21.32-23.565-15.149Z" transform="translate(-509.437 -134.294)" fill="#2f2e41"/>
      <path d="M 46.779999 23.389999 A 23.389999 23.389999 0 0 1 23.389999 46.779999 A 23.389999 23.389999 0 0 1 0 23.389999 A 23.389999 23.389999 0 0 1 23.389999 0 A 23.389999 23.389999 0 0 1 46.779999 23.389999 Z" id="Ellipse_534" data-name="Ellipse 534" transform="translate(43.714 16.938)" fill="#ffb9b9"/>
      <path id="Path_1698" data-name="Path 1698" d="M556.319,164.8s1.122,21.32-16.271,28.053,43.2,50.5,43.2,50.5V194.541s-7.855-8.416,0-21.32Z" transform="translate(-507.344 -114.898)" fill="#ffb9b9"/>
      <path id="Path_1699" data-name="Path 1699" d="M515.6,284.03l4.489,21.881,13.465,75.182s-11.221,31.98,3.928,31.419,7.855-34.786,7.855-34.786l-7.855-62.278V291.324Z" transform="translate(-503.934 -133.974)" fill="#ffb9b9"/>
      <path id="Path_1700" data-name="Path 1700" d="M628.878,271.339l5.05,19.637,23,55.545s15.71,26.37,2.805,25.809-12.9-25.809-12.9-25.809l-26.37-44.885V276.389Z" transform="translate(-520.713 -131.943)" fill="#ffb9b9"/>
      <path id="Path_1701" data-name="Path 1701" d="M626.607,466.374l-18.515,17.393s-12.9-2.805-17.954,12.343-8.416,24.687-8.416,24.687l6.733,3.927,8.416-11.782s5.05,21.321,10.1,23,30.3,12.9,28.053,0l-12.344-17.954s-1.683-20.2,3.367-21.882S644.561,477.6,644.561,477.6Z" transform="translate(-514.514 -163.148)" fill="#2f2e41"/>
      <path id="Path_1702" data-name="Path 1702" d="M549.618,333.742s52.74-19.076,56.106-17.393a25.3,25.3,0,0,0,7.9,2.051l-.048-7.661s-17.393-6.172-26.931-2.245-38.713,21.32-38.713,21.32Z" transform="translate(-509.108 -137.679)" fill="#3f3d56"/>
      <path id="Path_1703" data-name="Path 1703" d="M575.242,236.885s-15.149-17.393-19.638-28.053a27.541,27.541,0,0,0-14.561-14.319s-33.69,7.586-33.129,21.052,21.32,34.225,21.32,34.225-2.805,74.621,12.344,73.5a32.495,32.495,0,0,0,6.733-13.465c1.683-7.855,53.862-16.271,53.862-16.271s4.489,7.855,5.05,4.488-4.489-85.842-4.489-85.842l-26.755-17.685Z" transform="translate(-502.704 -119.651)" fill="#d0cde1"/>
      <path id="Path_1704" data-name="Path 1704" d="M511.245,212.934l-.376.211a7.741,7.741,0,0,0-3.952,6.752l.006,41.638a7.8,7.8,0,0,1-2.775,5.938c-2.161,1.838-4.165,4.487-.03,5.866,6.733,2.244,33.1,13.466,33.663,9.538s1.683-8.416,0-8.416c-1.318,0-9.169-40.233-15.478-57.435a7.742,7.742,0,0,0-11.059-4.092Z" transform="translate(-501.713 -122.44)" fill="#d0cde1"/>
      <path id="Path_1705" data-name="Path 1705" d="M611.779,213.23l7.855,2.244,8.977,38.713s10.66,2.245,7.294,6.172-17.393,14.027-17.393,14.027Z" transform="translate(-519.323 -122.646)" fill="#d0cde1"/>
      <path id="Path_1706" data-name="Path 1706" d="M553.846,117.225a19.171,19.171,0,0,1,15.126-7.719h.717c13.837,0,25.053,12.52,25.053,27.965h-4.637l-.749-5.7-1.1,5.7h-27.5l-2.3-4.821.576,4.821h-5.409q-3.786,18.8,10.881,37.608h-9.215l-4.608-9.643,1.152,9.643H534.27L530.815,152.9C530.814,136.29,540.465,122.2,553.846,117.225Z" transform="translate(-506.369 -106.05)" fill="#2f2e41"/>
    </g>
    <g id="Mask_Group_4" data-name="Mask Group 4" transform="translate(1491.364 6725.601)" clip-path="url(#clip-path)">
      <g id="undraw_fall_thyk_2_" data-name="undraw_fall_thyk (2)" transform="translate(220.138 114.891)">
        <path id="Path_1710" data-name="Path 1710" d="M699.088,263.095c-14.627-24.715-43.565-25.866-43.565-25.866s-28.2-3.606-46.287,34.035c-6.762,10.614,1.825,34.7,0,43.639-3.139,15.367-10.944,12.259-11.886,25.751-27.3,46.437-8.988,12.27,7.531,16l21.65,1.255c5.181.373,7.674-4.825,12.865-5.02,38.964-1.258,68.374-2.3,67.18-16.278C704.988,318.022,713.162,286.875,699.088,263.095Z" transform="translate(-437.99 -237.135)" fill="#3f3d56"/>
        <path id="Path_1711" data-name="Path 1711" d="M679.4,368.154c5.04,11.149,8.218,24.438,10.116,39.2l40.464-2.529c-9.3-13.182-12.392-28.312-8.852-45.521Z" transform="translate(-478.34 -290.469)" fill="#ffb8b8"/>
        <path id="Path_1712" data-name="Path 1712" d="M679.4,368.154c5.04,11.149,8.218,24.438,10.116,39.2l40.464-2.529c-9.3-13.182-12.392-28.312-8.852-45.521Z" transform="translate(-478.34 -290.469)" opacity="0.2"/>
        <path id="Path_1713" data-name="Path 1713" d="M335.874,751.748s-20.942,11.218-10.315,20.8,24.665-12.677,24.665-12.677Z" transform="translate(-322.551 -461.797)" fill="#ffb8b8"/>
        <path id="Path_1714" data-name="Path 1714" d="M637.127,632.355,636.8,647.68l-.7,33.113-.586,28.093-42.4,16.739L501.39,693.651l6.035-33.508,4.874-27.056,2.175-12.114L624.484,605.8Z" transform="translate(-367.783 -375.113)" fill="#2f2e41"/>
        <path id="Path_1715" data-name="Path 1715" d="M703.869,673.119l-.328,15.325c-38.921-1-99.25-10.394-124.5-14.592l2.175-12.114,110.01-15.174Z" transform="translate(-434.525 -415.878)" fill="#3f3d56"/>
        <path d="M 63.223999 31.612 A 31.612 31.612 0 0 1 31.612 63.223999 A 31.612 31.612 0 0 1 0 31.612 A 31.612 31.612 0 0 1 31.612 0 A 31.612 31.612 0 0 1 63.223999 31.612 Z" id="Ellipse_535" data-name="Ellipse 535" transform="translate(189.049 25.209)" fill="#ffb8b8"/>
        <path id="Path_1716" data-name="Path 1716" d="M701.4,580.237s3.794,34.141-18.967,31.612l-3.793-34.141-20.232-20.232-56.9-1.264-41.728,39.2s-1.265-40.463,3.793-44.257S580.01,538.51,580.01,538.51v-6.323l-34.14-69.546s20.231-41.728,36.67-42.992l21.5-1.265s7.587-3.793,7.587-5.058-1.265-11.38,5.058-8.852c0,0,.568-12.973,7.232-9.016,0,0,20.978,16.438,42.272.721,0,0,9.927-1.821,8.662,3.237s0,8.851,2.53,8.851,13.909,3.794,13.909,6.323c0,.544.822,5.779,2.111,13.656v.013c4.692,28.716,15.591,92.547,15.591,92.547S720.368,537.245,701.4,580.237Z" transform="translate(-420.044 -305.926)" fill="#6c63ff"/>
        <path id="Path_1717" data-name="Path 1717" d="M458.7,504.056l-8.851,6.323L368.926,614.066l-42.992,34.142s24.025-3.794,18.967,16.438l147.945-84.721Z" transform="translate(-324.028 -353.664)" fill="#6c63ff"/>
        <path id="Path_1718" data-name="Path 1718" d="M737.731,427.374v.013c-1.681,9.888-56.485,7.827-64.071,7.827s-13.909-1.264-21.5-6.322-3.793-11.38-3.793-11.38,6.459-4.92,6.459-6.185-1.264-11.38,5.058-8.852c0,0,.569-12.973,7.233-9.016,0,0,22.1,17.565,43.4,1.848,0,0,9.926-1.821,8.661,3.237s0,8.851,2.529,8.851,13.909,3.794,13.909,6.322C735.619,414.261,736.441,419.5,737.731,427.374Z" transform="translate(-464.378 -305.053)" fill="#3f3d56"/>
        <path id="Path_1719" data-name="Path 1719" d="M778.329,359.609s-10.116-21.5-20.232-11.38,11.381,25.29,11.381,25.29Z" transform="translate(-511.514 -284.453)" fill="#ffb8b8"/>
        <path id="Path_1720" data-name="Path 1720" d="M780.254,361.547s-15.62,19.741-20.456,21.25c0,0,14.133,55.883,31.836,71.057L801.749,505.7s42.993-17.7,32.877-46.786l-.3-.867a286.864,286.864,0,0,0-34.659-68.318Z" transform="translate(-513.437 -291.449)" fill="#6c63ff"/>
        <path id="Path_1721" data-name="Path 1721" d="M723,424.7,754.1,510.3l-11.38-51.844Z" transform="translate(-464.529 -296.05)" opacity="0.2"/>
        <path id="Path_1722" data-name="Path 1722" d="M657.117,226.612l-28.589-14.975-39.479,6.126L580.88,253.84l14.54-7.534a37.179,37.179,0,0,1,11.609-5.961c7.059-2.2,9.491-2.667,17.884-2.2s7.3.483,15.689,4.079,17.875,10.932,17.875,10.932Z" transform="translate(-402.485 -203.035)" fill="#3f3d56"/>
        <path id="Path_1783" data-name="Path 1783" d="M430.393,259.915s11.047,9.608,23.022,8.911a39.752,39.752,0,0,0,15.224-4.27,35.963,35.963,0,0,0,9.655-7.426l7.241,9.469-7.241,5.384,7.241,23.579s-7.8,7.8-20.052,3.713-18.383,4.562-26.735,3.9-20.4.557-32.862,1.114a20.525,20.525,0,0,1-18.195-9.469Z" transform="translate(-232.304 -180.639)" fill="#3f3d56"/>
      </g>
    </g>
  </g></g></svg>