<svg id="Group_474" data-name="Group 474" xmlns="http://www.w3.org/2000/svg" xmlns:xlink="http://www.w3.org/1999/xlink" width="653.362" height="627.884" viewBox="0 0 653.362 627.884">
  <defs>
    <clipPath id="clip-path">
      <path id="Path_1453" data-name="Path 1453" d="M880.546,465.367a294.523,294.523,0,0,1-184.8,273.293A288.182,288.182,0,0,1,665.217,749a296.107,296.107,0,0,1-157.829.02q-10.591-2.938-20.851-6.641a290.586,290.586,0,0,1-44.987-20.664A294.219,294.219,0,0,1,291.977,465.367c-.09-157.284,123.524-286.817,280.6-294.041q6.81-.317,13.68-.311,7.548,0,15.016.372C757.779,179.364,880.572,308.626,880.546,465.367Z" transform="translate(-291.977 -171.015)" fill="#4285f4"/>
    </clipPath>
  </defs>
  <g id="undraw_celebrating_bol5_1_" data-name="undraw_celebrating_bol5 (1)" transform="translate(0 0)">
    <path id="Path_1358" data-name="Path 1358" d="M578.889,756.611a313.8,313.8,0,0,1-83.99-11.393c-7.571-2.1-15.042-4.48-22.205-7.072a310.467,310.467,0,0,1-47.9-22.005,313.646,313.646,0,0,1,15.788-554.3,310.254,310.254,0,0,1,123.746-31.783c9.7-.452,19.977-.449,30.553.064A313.52,313.52,0,0,1,695.416,734.21,308.647,308.647,0,0,1,662.963,745.2a313.939,313.939,0,0,1-84.075,11.414Zm0-624.871c-4.9,0-9.773.111-14.474.33a308.247,308.247,0,0,0-122.951,31.578,311.619,311.619,0,0,0,31.913,572.608c7.117,2.576,14.538,4.94,22.06,7.025a313.294,313.294,0,0,0,166.991-.021,306.4,306.4,0,0,0,32.24-10.916,311.495,311.495,0,0,0-99.89-600.212c-5.386-.261-10.732-.393-15.889-.393Z" transform="translate(-265.608 -129.731)" fill="#3f3d56"/>
    <path id="Path_1356" data-name="Path 1356" d="M880.546,465.367a294.523,294.523,0,0,1-184.8,273.293A288.182,288.182,0,0,1,665.217,749a296.107,296.107,0,0,1-157.829.02q-10.591-2.938-20.851-6.641a290.586,290.586,0,0,1-44.987-20.664A294.219,294.219,0,0,1,291.977,465.367c-.09-157.284,123.524-286.817,280.6-294.041q6.81-.317,13.68-.311,7.548,0,15.016.372C757.779,179.364,880.572,308.626,880.546,465.367Z" transform="translate(-266.953 -131.836)" fill="#03bfa6" opacity="0.5"/>
    <g id="Mask_Group_3" data-name="Mask Group 3" transform="translate(25.024 39.179)" clip-path="url(#clip-path)">
      <g id="undraw_happy_women_day_fbjt" transform="translate(-23.151 91.472)">
        <path id="Path_1398" data-name="Path 1398" d="M356.775,569.574s-18.808,43.5,0,44.68,19.984-44.68,19.984-44.68Z" transform="translate(-66.889 -188.985)" fill="#ffb9b9"/>
        <path id="Path_1399" data-name="Path 1399" d="M200.77,499.944l32.914,156.378,17.633,77.6H294.81L247.79,495.24Z" transform="translate(-51.944 -135.815)" fill="#2f2e41"/>
        <path id="Path_1400" data-name="Path 1400" d="M200.77,499.944l32.914,156.378,17.633,77.6H294.81L247.79,495.24Z" transform="translate(-51.944 -135.815)" opacity="0.1"/>
        <path id="Path_1401" data-name="Path 1401" d="M239.107,678.009v18.813l24.685,4.7,2.351-18.813Z" transform="translate(-39.734 -77.548)" fill="#ffb9b9"/>
        <path id="Path_1402" data-name="Path 1402" d="M321.613,750.237,288.7,747.885s-9.4,41.152-9.4,44.68-22.335,38.8-7.053,41.152,37.616,4.7,39.967-2.352,2.351-27.043,7.053-35.273,9.4-17.637,8.229-22.34Z" transform="translate(-92.853 -132.139)" fill="#2f2e41"/>
        <path id="Path_1403" data-name="Path 1403" d="M297.2,560.659s-35.265,70.547-25.861,126.984,9.4,109.347,11.755,111.7,47.02,5.879,47.02,5.879,1.175-107-2.351-118.754,19.984-76.425,29.388-92.887S297.2,560.659,297.2,560.659Z" transform="translate(-91.947 -191.827)" fill="#2f2e41"/>
        <path id="Path_1404" data-name="Path 1404" d="M269.138,368.576s-50.547-10.582-43.494,16.461,35.265,34.1,35.265,34.1Z" transform="translate(-106.206 -253.713)" fill="#ff6584"/>
        <path id="Path_1405" data-name="Path 1405" d="M274.609,472.395s-24.685,8.231-24.685,50.558-11.755,74.074,0,75.25,79.934,2.351,79.934,2.351Z" transform="translate(-99.922 -219.965)" fill="#ff6584"/>
        <path id="Path_1406" data-name="Path 1406" d="M226.3,329.746l30.564-23.515,42.318,15.285,28.212-5.878L345.027,341.5l-37.615,28.218-50.547,15.285L223.95,361.493Z" transform="translate(-44.562 -196.071)" fill="#ff6584"/>
        <path id="Path_1407" data-name="Path 1407" d="M304.28,346.686s1.176,19.988-4.7,23.516,54.073,11.758,54.073,11.758l4.7-31.746Z" transform="translate(-82.573 -260.042)" fill="#ffb9b9"/>
        <path id="Path_1408" data-name="Path 1408" d="M304.28,346.686s1.176,19.988-4.7,23.516,54.073,11.758,54.073,11.758l4.7-31.746Z" transform="translate(-82.573 -260.042)" opacity="0.1"/>
        <ellipse id="Ellipse_486" data-name="Ellipse 486" cx="41.143" cy="41.152" rx="41.143" ry="41.152" transform="translate(212.303 27.856)" fill="#ffb9b9"/>
        <path id="Path_1409" data-name="Path 1409" d="M360.514,391.264l15.869.588s13.518-.588,15.87,60.553,0,146.972,0,146.972,7.053,43.5-11.755,41.153-37.616-1.176-29.388-8.231,11.755-47.031,11.755-47.031L344.058,441.821Z" transform="translate(-68.277 -245.83)" fill="#ff6584"/>
        <path id="Path_1410" data-name="Path 1410" d="M311.815,366.562s-44.669-3.4-51.722.125-12.931,37.625-12.931,37.625l-1.176,27.043s7.759,56.45,16.81,58.207,7.875,11.164,3.173,14.691,37.616,183.422,50.547,184.6,27.037-15.285,27.037-15.285,25.861-5.879,31.739-10.582,12.931-139.918,2.351-142.27c0,0-11.755-2.351-10.579-5.879S383.1,504.577,383.1,504.577l-5.455-54.41s8.228-45.855,29.388-50.558c0,0-9.4-11.758-12.93-11.758s-25.861,4.7-32.914,11.758S347.081,429,330.623,419.6s-29.388-24.692-25.861-31.746S311.815,366.562,311.815,366.562Z" transform="translate(-99.512 -254.176)" fill="#3f3d56"/>
        <path id="Path_1411" data-name="Path 1411" d="M249.607,300.543c4.528,3.774,9.1,7.6,12.3,12.117,4.166,5.9,5.754,12.691,6.312,19.4.47,5.647.133,11.648-3.773,16.432-2.82,3.454-7.355,6.076-9.238,9.893-2.08,4.215-.446,9.01,2.229,13.019s6.357,7.6,8.735,11.718a21.461,21.461,0,0,1,1.22,19.423c-2.506,5.793-7.648,11.452-6.007,17.427,1.33,4.846,6.994,9.692,3.948,14.05-1.7,2.43-5.55,3.439-9.108,3.672-8.7.568-17.66-2.456-23.038-7.777-5.324-5.267-7.948-12.947-16.061-15.253-2.978-.847-6.285-.787-9.269-1.62A14.31,14.31,0,0,1,197.5,400.727c-.913-8.539,4.482-16.715,10.737-23.786a126.683,126.683,0,0,1,14.724-14.114c7.462-6.1,16-11.8,20.292-19.512,4.931-8.858,3.2-19.726-4.358-27.4-2.8-2.841-6.322-5.26-8.722-8.313-2.888-3.674-7.919-16.82-1.947-19.937C234.751,284.263,245.976,297.517,249.607,300.543Z" transform="translate(-114.988 -279.033)" fill="#3f3d56"/>
        <path id="Path_1412" data-name="Path 1412" d="M191.766,705.09l-11.754,76.426S200,829.723,217.628,829.723s28.212-2.352,28.212-4.7-11.755-16.461-17.632-18.812-11.755-28.219-11.755-35.274,5.878-65.844,5.878-65.844Z" transform="translate(-120.525 -145.782)" fill="#a0616a"/>
        <path id="Path_1413" data-name="Path 1413" d="M191.766,705.09l-11.754,76.426S200,829.723,217.628,829.723s28.212-2.352,28.212-4.7-11.755-16.461-17.632-18.812-11.755-28.219-11.755-35.274,5.878-65.844,5.878-65.844Z" transform="translate(-120.525 -145.782)" opacity="0.1"/>
        <path id="Path_1414" data-name="Path 1414" d="M222.814,762.376s-37.616-5.879-41.143-8.231S166.39,800,185.2,814.11s31.739,11.758,35.265,11.758,21.159,0,24.686-2.352,5.877-16.46,2.351-22.339-17.632-11.758-18.808-17.637S222.814,762.376,222.814,762.376Z" transform="translate(-122.185 -130.17)" fill="#2f2e41"/>
        <path id="Path_1415" data-name="Path 1415" d="M222.814,762.376s-37.616-5.879-41.143-8.231S166.39,800,185.2,814.11s31.739,11.758,35.265,11.758,21.159,0,24.686-2.352,5.877-16.46,2.351-22.339-17.632-11.758-18.808-17.637S222.814,762.376,222.814,762.376Z" transform="translate(-122.185 -130.17)" opacity="0.1"/>
        <path id="Path_1416" data-name="Path 1416" d="M174.26,709.755s1.176,48.207-18.808,55.262,22.335,36.449,22.335,36.449l18.808-15.285L210.7,701.524Z" transform="translate(-130.054 -146.919)" fill="#a0616a"/>
        <path id="Path_1417" data-name="Path 1417" d="M168.521,736.294s3.868,33.644,33.085,25.64c0,0,3.356,43.731,8.058,49.61s17.633,23.516-3.527,23.516-35.265-1.176-42.318-9.406-23.51-27.043-28.212-29.395,15.282-52.91,18.808-52.91S168.521,736.294,168.521,736.294Z" transform="translate(-134.894 -135.834)" fill="#2f2e41"/>
        <path id="Path_1418" data-name="Path 1418" d="M149.076,523.213s-5.878,29.394,9.4,63.492,29.388,115.227,22.335,126.985-19.984,61.14-7.053,68.2,102.269,11.758,108.146,4.7,0-82.3-10.58-92.887,8.228-125.808,8.228-125.808l-5.878-27.043Z" transform="translate(-130.731 -203.765)" fill="#3f3d56"/>
        <ellipse id="Ellipse_487" data-name="Ellipse 487" cx="41.143" cy="41.152" rx="41.143" ry="41.152" transform="translate(64.189 18.448)" fill="#a0616a"/>
        <path id="Path_1419" data-name="Path 1419" d="M210.5,336.879S195.22,374.5,174.061,379.207s-27.037,72.9-27.037,72.9l96.391-18.812L272.8,420.359s2.351-28.219-8.229-34.1-31.739-3.527-31.739-3.527,0-23.516,10.58-28.219S210.5,336.879,210.5,336.879Z" transform="translate(-131.031 -263.168)" fill="#a0616a"/>
        <path id="Path_1420" data-name="Path 1420" d="M212.38,414.067s-2.351-45.856-36.441-39.977c0,0-7.053-2.352-22.335,19.988l-4.7-9.406s19.984-18.5,31.739-16.892,18.808-5.448,43.494,46.287l34.09-4.7L254.7,368.212h3.527l9.4,35.274s12.93,0,14.106,10.582v10.582s19.984,14.109,16.457,44.68-4.7,57.613-4.7,57.613-4.7,39.977,0,54.086,31.739,51.734,10.58,55.262-29.388,3.527-29.388,3.527l-4.7-30.57s3.526,12.934-18.808,14.11-88.163-17.637-88.163-19.989,2.351-25.867-3.527-21.164S151.254,611.6,143.025,611.6s12.931-96.414,12.931-96.414l-7.053-72.9v-8.23S194.748,438.758,212.38,414.067Z" transform="translate(-132.91 -253.348)" fill="#d0cde1"/>
        <path id="Path_1421" data-name="Path 1421" d="M172.291,377.218S147.6,398.382,145.254,465.4s75.232,123.457,75.232,123.457,21.159,70.547,36.441,54.086S236.943,572.4,236.943,572.4L182.87,500.675,199.327,396.03S199.328,371.339,172.291,377.218Z" transform="translate(-131.611 -250.596)" fill="#a0616a"/>
        <path id="Path_1422" data-name="Path 1422" d="M152.938,404.249s-9.73,1.848-12.081,17.133,9.4,29.395,15.282,29.395,63.477-10.582,70.53-19.988,25.861-5.879,25.861-5.879l-39.967-21.164S183.338,430.381,150.343,420Z" transform="translate(-133.093 -241.851)" fill="#d0cde1"/>
        <path id="Path_1423" data-name="Path 1423" d="M261.769,365.056c-2.378-4.12-6.06-7.708-8.735-11.718a15.98,15.98,0,0,1-3.144-9.552,41.091,41.091,0,0,1-33.883,17.932c-3.606,8.521-3.611,19.991-3.611,19.991s6.9,12.967-1.189,14.539c.512.1,1.02.209,1.516.35,8.113,2.306,10.738,9.986,16.061,15.253,5.378,5.32,14.336,8.345,23.038,7.777,3.559-.232,7.41-1.242,9.108-3.672,3.047-4.358-2.617-9.2-3.948-14.05-1.64-5.975,3.5-11.634,6.007-17.427A21.461,21.461,0,0,0,261.769,365.056Z" transform="translate(-110.589 -260.966)" fill="#3f3d56"/>
        <path id="Path_1424" data-name="Path 1424" d="M199.209,284.047a49.676,49.676,0,0,0-11.762,7.266c-8.954,7.105-16.731,16.022-20.987,26.632s-4.691,23.033.338,33.3c2.238,4.568,5.579,8.987,5.4,14.07-.231,6.475-6.065,11.253-11.769,14.323s-12.151,5.667-15.639,11.127c-5.833,9.133-.689,21.688-4.625,31.785-1.336,3.428-3.736,7-2.474,10.458,8,.828,15.8-2.995,22.183-7.886s11.851-10.917,18.381-15.609c8.8-6.321,19.489-10.208,26.76-18.242a33.247,33.247,0,0,0,7.33-30.332c-.75-2.8-1.885-5.58-1.8-8.482.132-4.778,3.5-8.827,7.086-11.992s7.649-5.994,10.037-10.134c2.4-4.16,2.808-9.14,4.3-13.707s4.8-9.223,9.585-9.616c2.913-.239,5.68,1.166,8.265,2.531l13.582,7.174a7.478,7.478,0,0,0,4.644,1.262c3-.54,4.1-4.3,3.976-7.34-.4-10.03-7.485-18.94-16.318-23.705-8.212-4.431-17.89-5.893-27.129-5.878C218.788,281.068,208.433,280.243,199.209,284.047Z" transform="translate(-134.118 -280.987)" fill="#3f3d56"/>
        <path id="Path_1425" data-name="Path 1425" d="M357.3,296.1c12.826,4.218,23.165,14.544,28.915,26.763a43.948,43.948,0,0,1,4.156,14.144c.938,9.173-1.8,18.3-4.936,26.973-2.472,6.827-5.236,14.322-2.706,21.128.878,2.36,2.356,4.476,3.082,6.887a12.063,12.063,0,0,1-4.058,12.686c-2.588,2-6.146,3.083-7.6,6.017,2.844.027,4.847,2.7,6.377,5.1l7.29,11.429L360.5,443.154a106.144,106.144,0,0,0-5.636-29.091,3.286,3.286,0,0,0-1.016-1.7,3.24,3.24,0,0,0-2.177-.347c-5.347.447-10.583,1.739-15.882,2.584-11.922,1.9-24.536,1.437-35.514-3.587a23.762,23.762,0,0,1-10.077-7.8c-2.411-3.562-3.245-8.407-1.267-12.227,3.012-5.815,10.776-7.1,15.573-11.555,2.134,8.5,11.736,13.514,20.477,12.894a17.055,17.055,0,0,0,6.134-1.476c3.989-1.9,6.69-5.705,8.967-9.491a150.036,150.036,0,0,0,14.338-33.726,47.639,47.639,0,0,0,2.192-9.853c.866-10.318-4.848-20.726-13.657-26.166s-17.819-3.186-27.425.675c3.231-1.3,3.018-7.8,5.59-10.025a33.373,33.373,0,0,1,10.925-6.054A40.047,40.047,0,0,1,357.3,296.1Z" transform="translate(-86.186 -276.8)" fill="#d0cde1"/>
        <path id="Path_1426" data-name="Path 1426" d="M904.4,412.516s67,17.637,68.179,25.867-34.09,30.672-34.09,30.672L864.437,433.68Z" transform="translate(-510.365 -244.33)" fill="#3f3d56"/>
        <path id="Path_1427" data-name="Path 1427" d="M904.4,412.516s67,17.637,68.179,25.867-34.09,30.672-34.09,30.672L864.437,433.68Z" transform="translate(-510.365 -244.33)" opacity="0.1"/>
        <path id="Path_1428" data-name="Path 1428" d="M934.022,402.264S912.863,428.131,887,425.78s31.738,55.262,31.738,55.262l29.388-25.867s8.229-34.1,15.282-35.273S934.022,402.264,934.022,402.264Z" transform="translate(-505.305 -247.599)" fill="#cf9595"/>
        <path id="Path_1429" data-name="Path 1429" d="M934.022,402.264S912.863,428.131,887,425.78s31.738,55.262,31.738,55.262l29.388-25.867s8.229-34.1,15.282-35.273S934.022,402.264,934.022,402.264Z" transform="translate(-505.305 -247.599)" opacity="0.1"/>
        <path id="Path_1430" data-name="Path 1430" d="M1029.38,668.514s3.526,21.164-7.053,25.867-31.739,76.426-31.739,76.426l19.984,19.988L1067,699.085s16.457-32.922,10.58-32.922S1029.38,668.514,1029.38,668.514Z" transform="translate(-470.187 -163.467)" fill="#ffb9b9"/>
        <path id="Path_1431" data-name="Path 1431" d="M1029.38,668.514s3.526,21.164-7.053,25.867-31.739,76.426-31.739,76.426l19.984,19.988L1067,699.085s16.457-32.922,10.58-32.922S1029.38,668.514,1029.38,668.514Z" transform="translate(-470.187 -163.467)" opacity="0.1"/>
        <path id="Path_1432" data-name="Path 1432" d="M1001.05,744.3l-4.7-2.351s-27.037,14.109-23.51,21.164,11.755,21.164,11.755,25.867,4.7,32.922,19.984,35.273,15.282-11.758,12.931-17.636-3.527-25.867-2.352-32.922a45.392,45.392,0,0,1,5.435-13.977Z" transform="translate(-475.942 -139.308)" fill="#2f2e41"/>
        <path id="Path_1433" data-name="Path 1433" d="M976.369,663.488s-3.526,88.183,21.159,124.633c0,0,9.4,25.867,10.579,28.219s21.159-8.23,21.159-8.23-10.58-70.547-9.4-82.305-5.878-27.043-5.878-27.043l-1.175-35.273Z" transform="translate(-474.772 -164.32)" fill="#ffb9b9"/>
        <path id="Path_1434" data-name="Path 1434" d="M1024.881,768.692l-24.545,11.6s2.21,17.791,3.387,21.318-16.457,29.395,2.351,31.746,37.616,0,32.914-5.879-11.755-31.746-10.58-38.8S1024.881,768.692,1024.881,768.692Z" transform="translate(-468.035 -130.781)" fill="#2f2e41"/>
        <path id="Path_1435" data-name="Path 1435" d="M985.306,414.746s-15.281-1.176-17.632,43.5a695.352,695.352,0,0,0,0,77.6l37.616,1.175-3.527-70.547Z" transform="translate(-477.831 -243.62)" fill="#ffb9b9"/>
        <path id="Path_1436" data-name="Path 1436" d="M1018.84,391.652s3.526,25.867-12.931,28.219,18.808,38.8,18.808,38.8l45.845-25.867s-17.632-31.746-8.228-47.031S1018.84,391.652,1018.84,391.652Z" transform="translate(-466.701 -254.624)" fill="#ffb9b9"/>
        <path id="Path_1437" data-name="Path 1437" d="M1018.84,391.652s3.526,25.867-12.931,28.219,18.808,38.8,18.808,38.8l45.845-25.867s-17.632-31.746-8.228-47.031S1018.84,391.652,1018.84,391.652Z" transform="translate(-466.701 -254.624)" opacity="0.1"/>
        <ellipse id="Ellipse_488" data-name="Ellipse 488" cx="41.143" cy="41.152" rx="41.143" ry="41.152" transform="translate(416.962 106.457)" fill="#cf9595"/>
        <ellipse id="Ellipse_489" data-name="Ellipse 489" cx="41.143" cy="41.152" rx="41.143" ry="41.152" transform="translate(527.459 68.833)" fill="#ffb9b9"/>
        <path id="Path_1438" data-name="Path 1438" d="M851.43,478.046s-1.175,43.5,0,50.559-7.053,67.019-7.053,67.019l25.861-18.812s19.984-63.492,11.755-79.953S851.43,478.046,851.43,478.046Z" transform="translate(-516.754 -223.439)" fill="#cf9595"/>
        <path id="Path_1439" data-name="Path 1439" d="M952.42,496.857s-4.7,35.274,10.58,37.625,18.807-27.043,18.807-27.043l-5.877-29.394Z" transform="translate(-482.561 -223.439)" fill="#cf9595"/>
        <path id="Path_1440" data-name="Path 1440" d="M931.654,401.677c2.118,1.924,4.238,4.024,6.965,4.888,4.566,1.446,10.128-.8,14.022,1.984,3.7,2.652,4,8.7,8.05,10.786a11.312,11.312,0,0,0,5.344.807l14.329-.169a6.861,6.861,0,0,0,4.744,9.156c1.5.284,3.38.213,4.123,1.547.8,1.441.426,4.309,2.03,3.929a23.614,23.614,0,0,1,7.563-7.916c1.751-1.13,3.742-2.114,4.786-3.917,1.441-2.487.6-5.6.5-8.469-.32-8.941,6.9-17.3,5.064-26.058a26.273,26.273,0,0,0-2.489-6.258l-9.167-18.3c-1.62-3.235-3.5-6.723-6.849-8.1-5.063-2.084-10.494,1.627-15.885,2.577-6.129,1.08-12.221-1.484-18.206-3.185s-13.132-2.313-17.768,1.838c-1.883,1.686-3.189,4.045-5.388,5.293-3.752,2.128-9.68.881-11.591,4.749-.938,1.9-.319,4.214-.93,6.24-.834,2.763-3.655,4.312-6.009,5.98s-4.641,4.433-3.681,7.154c.408,1.159,1.356,2.071,1.739,3.239.7,2.149-.659,4.356-1.71,6.359-3.5,6.681,2.261,7.975,6.629,4.975C923.186,397.148,926.3,396.812,931.654,401.677Z" transform="translate(-495.805 -263.089)" fill="#3f3d56"/>
        <path id="Path_1441" data-name="Path 1441" d="M1027.932,404.047s2.351,23.516,21.159,23.516,36.25-15.706,36.25-15.706,33.1,8.651,33.1,13.355-27.037,38.8-27.037,38.8-11.755,89.359-7.053,94.062,54.073,172.84,45.845,186.949-4.7,14.11-59.951,17.637-59.951,15.285-83.461-2.352-27.037-28.219-36.441-29.395S930.365,600.4,939.769,582.765s25.86-39.977,31.738-44.68,19.8-49.52,19.8-49.52l.188-72.761Z" transform="translate(-487.54 -247.03)" fill="#ff6584"/>
        <path id="Path_1442" data-name="Path 1442" d="M1073.017,418.345s27.037-3.527,18.808,24.691-19.983,79.953-38.791,82.3,3.526-68.2,3.526-68.2Z" transform="translate(-452.699 -242.517)" fill="#ffb9b9"/>
        <path id="Path_1443" data-name="Path 1443" d="M1030.068,335.747c12.961-2.852,26.7-3.51,39.355.476s24.1,13.1,28.775,25.525,1.382,28.005-9.257,35.939c-5.542,4.133-12.627,6.1-17.516,10.986-5.273,5.273-7.848,13.746-14.863,16.275a31.034,31.034,0,0,1-.469-15.983,47.369,47.369,0,0,0,1.873-8.437c.143-2.883-.884-6.071-3.4-7.477-2.679-1.494-6-.537-9.058-.763-7.61-.562-12.536-8.2-15.4-15.271s-5.419-15.11-12.02-18.941c-6.216-3.607-13.109-1.949-19.738-1.024-1-3.642,9.225-11.569,12.228-13.6A56.045,56.045,0,0,1,1030.068,335.747Z" transform="translate(-467.737 -269.546)" fill="#3f3d56"/>
        <path id="Path_1444" data-name="Path 1444" d="M1070.129,511.354s-10.58-47.031-10.58-52.91-5.877-34.1-2.35-41.152,11.755-47.031-1.176-43.5-18.808,54.086-18.808,54.086,2.351,29.394,0,38.8-1.176,71.723,7.052,72.9S1070.129,534.869,1070.129,511.354Z" transform="translate(-455.678 -256.747)" fill="#ffb9b9"/>
        <ellipse id="Ellipse_490" data-name="Ellipse 490" cx="25.861" cy="25.867" rx="25.861" ry="25.867" transform="translate(599.758 57.663)" fill="#3f3d56"/>
        <path id="Path_1445" data-name="Path 1445" d="M865.516,428.564s-22.922,33.51-22.922,72.31c0,0,28.212-1.176,44.67,22.34S865.516,428.564,865.516,428.564Z" transform="translate(-517.323 -239.214)" fill="#3f3d56"/>
        <path id="Path_1446" data-name="Path 1446" d="M857.751,740.291s17.632,37.624,17.632,56.437,36.44,3.528,36.44,3.528-23.51-61.141-21.158-69.372S857.751,740.291,857.751,740.291Z" transform="translate(-512.495 -143.532)" fill="#cf9595"/>
        <path id="Path_1447" data-name="Path 1447" d="M907.236,735.7s4.94,70.053-1.056,76.179,23.39,2.6,23.39,2.6,0-52.91,9.4-74.074Z" transform="translate(-497.328 -141.298)" fill="#cf9595"/>
        <path id="Path_1448" data-name="Path 1448" d="M879.381,549.37s-35.265,16.461-35.265,23.516-5.877,42.328-8.229,45.855-2.351,35.273,0,39.977,7.053,149.324,24.686,149.324,42.318-8.231,43.494-15.285c0,0-16.457-64.668-10.58-81.129s8.229-70.547,19.984-77.6,11.755,7.054,11.755,7.054l-2.351,98.766s-2.351,63.492,2.351,64.668,35.265,5.879,38.792,1.176S979.3,736.319,979.3,729.264s11.755-82.3,12.931-90.535,4.7-78.778-3.526-83.481S879.381,549.37,879.381,549.37Z" transform="translate(-520.02 -200.701)" fill="#2f2e41"/>
        <path id="Path_1449" data-name="Path 1449" d="M891.917,780s-11.755-9.406-18.808,8.23A70.641,70.641,0,0,1,854.3,815.269s-4.7,11.758,15.282,9.407,54.073-23.516,54.073-23.516-8.388-21.491-12.423-21.328S904.847,788.226,891.917,780Z" transform="translate(-513.747 -127.976)" fill="#2f2e41"/>
        <path id="Path_1450" data-name="Path 1450" d="M926.512,789.7s-17.621-4.7-21.153,0-8.234,31.746-2.357,35.273,31.739,2.352,35.266,0,0-17.636,0-17.636Z" transform="translate(-498.971 -124.749)" fill="#2f2e41"/>
        <path id="Path_1451" data-name="Path 1451" d="M920.625,441.18s-17.633-15.285-12.931-28.219c0,0-52.9,17.637-51.722,31.746s22.335,72.9,22.335,72.9-34.09,65.844-16.458,79.953,12.931-2.352,43.494,8.23,43.494,5.879,55.249,3.527,14.106-1.176,22.334-1.176,3.527-23.516,0-36.449-8.228-31.746-4.7-36.449,34.09-87.008,34.09-87.008-23.739-19.008-51.837-12.443C960.478,435.792,940.608,451.763,920.625,441.18Z" transform="translate(-513.068 -244.188)" fill="#3f3d56"/>
        <path id="Path_1452" data-name="Path 1452" d="M971.156,443.236c0-1.176,11.755-3.527,11.755-3.527s7.053,47.031,3.527,56.438-32.914,19.988-37.616,18.812S971.156,443.236,971.156,443.236Z" transform="translate(-483.665 -235.661)" fill="#3f3d56"/>
        <ellipse id="Ellipse_491" data-name="Ellipse 491" cx="27.688" cy="27.695" rx="27.688" ry="27.695" transform="translate(433.923 63.32)" fill="#3f3d56"/>
      </g>
    </g>
    <g id="undraw_happy_women_day_fbjt-2" data-name="undraw_happy_women_day_fbjt" transform="translate(5.083 130.65)">
      <path id="Path_1398-2" data-name="Path 1398" d="M356.777,569.574s-18.812,43.5,0,44.68,19.988-44.68,19.988-44.68Z" transform="translate(-70.1 -188.985)" fill="#ffb9b9"/>
      <path id="Path_1404-2" data-name="Path 1404" d="M269.149,368.576s-50.559-10.582-43.5,16.461,35.274,34.1,35.274,34.1Z" transform="translate(-109.42 -253.713)" fill="#ff6584"/>
      <path id="Path_1406-2" data-name="Path 1406" d="M226.3,329.746l30.571-23.515L299.2,321.516l28.218-5.878L345.056,341.5l-37.624,28.218-50.559,15.285L223.95,361.493Z" transform="translate(-47.781 -196.071)" fill="#ff6584"/>
      <path id="Path_1407-2" data-name="Path 1407" d="M304.281,346.686s1.176,19.988-4.7,23.516,54.086,11.758,54.086,11.758l4.7-31.746Z" transform="translate(-85.788 -260.042)" fill="#ffb9b9"/>
      <path id="Path_1408-2" data-name="Path 1408" d="M304.281,346.686s1.176,19.988-4.7,23.516,54.086,11.758,54.086,11.758l4.7-31.746Z" transform="translate(-85.788 -260.042)" opacity="0.1"/>
      <ellipse id="Ellipse_486-2" data-name="Ellipse 486" cx="41.152" cy="41.152" rx="41.152" ry="41.152" transform="translate(209.086 27.856)" fill="#ffb9b9"/>
      <path id="Path_1409-2" data-name="Path 1409" d="M360.518,391.264l15.873.588s13.522-.588,15.873,60.553,0,146.972,0,146.972,7.055,43.5-11.758,41.153-37.625-1.176-29.394-8.231,11.758-47.031,11.758-47.031L344.058,441.821Z" transform="translate(-71.491 -245.83)" fill="#ff6584"/>
      <path id="Path_1411-2" data-name="Path 1411" d="M249.619,300.543c4.529,3.774,9.107,7.6,12.3,12.117,4.167,5.9,5.755,12.691,6.313,19.4.47,5.647.133,11.648-3.774,16.432-2.821,3.454-7.357,6.076-9.241,9.893-2.08,4.215-.446,9.01,2.23,13.019s6.358,7.6,8.737,11.718a21.457,21.457,0,0,1,1.22,19.423c-2.506,5.793-7.649,11.452-6.008,17.427,1.331,4.846,7,9.692,3.949,14.05-1.7,2.43-5.551,3.439-9.11,3.672-8.7.568-17.664-2.456-23.043-7.777-5.325-5.267-7.95-12.947-16.065-15.253-2.978-.847-6.286-.787-9.271-1.62A14.31,14.31,0,0,1,197.5,400.727c-.913-8.539,4.483-16.715,10.74-23.786a126.706,126.706,0,0,1,14.727-14.114c7.464-6.1,16-11.8,20.3-19.512,4.933-8.858,3.2-19.726-4.359-27.4-2.8-2.841-6.324-5.26-8.724-8.313-2.889-3.674-7.921-16.82-1.948-19.937C234.76,284.263,245.987,297.517,249.619,300.543Z" transform="translate(-118.184 -279.033)" fill="#3f3d56"/>
      <ellipse id="Ellipse_487-2" data-name="Ellipse 487" cx="41.152" cy="41.152" rx="41.152" ry="41.152" transform="translate(60.988 18.448)" fill="#a0616a"/>
      <path id="Path_1419-2" data-name="Path 1419" d="M210.517,336.879s-15.285,37.625-36.449,42.328-27.043,72.9-27.043,72.9l96.414-18.812,29.394-12.933s2.352-28.219-8.23-34.1-31.746-3.527-31.746-3.527,0-23.516,10.582-28.219S210.517,336.879,210.517,336.879Z" transform="translate(-134.243 -263.168)" fill="#a0616a"/>
      <path id="Path_1421-2" data-name="Path 1421" d="M172.3,377.218s-24.692,21.164-27.043,88.183S220.5,588.858,220.5,588.858s21.164,70.547,36.449,54.086S236.965,572.4,236.965,572.4l-54.086-71.722L199.34,396.03S199.34,371.339,172.3,377.218Z" transform="translate(-134.824 -250.596)" fill="#a0616a"/>
      <path id="Path_1422-2" data-name="Path 1422" d="M152.941,404.249s-9.732,1.848-12.084,17.133,9.406,29.395,15.285,29.395,63.492-10.582,70.547-19.988,25.867-5.879,25.867-5.879L212.58,403.745S183.348,430.381,150.345,420Z" transform="translate(-136.306 -241.851)" fill="#d0cde1"/>
      <path id="Path_1423-2" data-name="Path 1423" d="M261.781,365.056c-2.379-4.12-6.061-7.708-8.737-11.718a15.979,15.979,0,0,1-3.145-9.552,41.1,41.1,0,0,1-33.891,17.932c-3.607,8.521-3.612,19.991-3.612,19.991s6.9,12.967-1.189,14.539c.512.1,1.02.209,1.516.35,8.115,2.306,10.74,9.986,16.065,15.253,5.379,5.32,14.34,8.345,23.043,7.777,3.56-.232,7.412-1.242,9.11-3.672,3.047-4.358-2.618-9.2-3.949-14.05-1.641-5.975,3.5-11.634,6.009-17.427A21.457,21.457,0,0,0,261.781,365.056Z" transform="translate(-113.804 -260.966)" fill="#3f3d56"/>
      <path id="Path_1424-2" data-name="Path 1424" d="M199.223,284.047a49.691,49.691,0,0,0-11.765,7.266c-8.956,7.105-16.735,16.022-20.992,26.632s-4.692,23.033.338,33.3c2.238,4.568,5.581,8.987,5.4,14.07-.231,6.475-6.067,11.253-11.772,14.323s-12.154,5.667-15.642,11.127c-5.835,9.133-.689,21.688-4.627,31.785-1.337,3.428-3.737,7-2.475,10.458,8,.828,15.8-2.995,22.188-7.886s11.853-10.917,18.386-15.609c8.8-6.321,19.494-10.208,26.766-18.242a33.241,33.241,0,0,0,7.332-30.332c-.75-2.8-1.885-5.58-1.8-8.482.132-4.778,3.505-8.827,7.087-11.992s7.65-5.994,10.039-10.134c2.4-4.16,2.809-9.14,4.3-13.707s4.8-9.223,9.587-9.616c2.914-.239,5.682,1.166,8.267,2.531l13.585,7.174a7.482,7.482,0,0,0,4.645,1.262c3-.54,4.1-4.3,3.978-7.34-.4-10.03-7.487-18.94-16.322-23.705-8.214-4.431-17.894-5.893-27.135-5.878C218.807,281.068,208.45,280.243,199.223,284.047Z" transform="translate(-137.332 -280.987)" fill="#3f3d56"/>
      <path id="Path_1425-2" data-name="Path 1425" d="M357.313,296.1c12.829,4.218,23.171,14.544,28.922,26.763a43.933,43.933,0,0,1,4.157,14.144c.938,9.173-1.8,18.3-4.937,26.973-2.473,6.827-5.237,14.322-2.706,21.128.878,2.36,2.356,4.476,3.083,6.887a12.062,12.062,0,0,1-4.058,12.686c-2.588,2-6.147,3.083-7.6,6.017,2.845.027,4.848,2.7,6.378,5.1l7.292,11.429L360.52,443.154a106.109,106.109,0,0,0-5.637-29.091,3.287,3.287,0,0,0-1.017-1.7,3.242,3.242,0,0,0-2.177-.347c-5.348.447-10.585,1.739-15.885,2.584-11.924,1.9-24.542,1.437-35.522-3.587a23.767,23.767,0,0,1-10.079-7.8c-2.411-3.562-3.246-8.407-1.267-12.227,3.012-5.815,10.779-7.1,15.576-11.555,2.135,8.5,11.739,13.514,20.481,12.894a17.063,17.063,0,0,0,6.135-1.476c3.99-1.9,6.691-5.705,8.969-9.491a150.016,150.016,0,0,0,14.341-33.726,47.62,47.62,0,0,0,2.193-9.853c.866-10.318-4.849-20.726-13.66-26.166s-17.824-3.186-27.432.675c3.231-1.3,3.019-7.8,5.592-10.025a33.383,33.383,0,0,1,10.927-6.054A40.065,40.065,0,0,1,357.313,296.1Z" transform="translate(-89.404 -276.8)" fill="#d0cde1"/>
      <path id="Path_1426-2" data-name="Path 1426" d="M904.414,412.516s67.02,17.637,68.2,25.867-34.1,30.672-34.1,30.672L864.437,433.68Z" transform="translate(-513.587 -244.33)" fill="#3f3d56"/>
      <path id="Path_1427-2" data-name="Path 1427" d="M904.414,412.516s67.02,17.637,68.2,25.867-34.1,30.672-34.1,30.672L864.437,433.68Z" transform="translate(-513.587 -244.33)" opacity="0.1"/>
      <path id="Path_1428-2" data-name="Path 1428" d="M934.035,402.264S912.871,428.131,887,425.78s31.746,55.262,31.746,55.262l29.394-25.867s8.231-34.1,15.285-35.273S934.035,402.264,934.035,402.264Z" transform="translate(-508.524 -247.599)" fill="#cf9595"/>
      <path id="Path_1429-2" data-name="Path 1429" d="M934.035,402.264S912.871,428.131,887,425.78s31.746,55.262,31.746,55.262l29.394-25.867s8.231-34.1,15.285-35.273S934.035,402.264,934.035,402.264Z" transform="translate(-508.524 -247.599)" opacity="0.1"/>
      <path id="Path_1435-2" data-name="Path 1435" d="M985.311,414.746s-15.286-1.176-17.637,43.5a695.264,695.264,0,0,0,0,77.6l37.625,1.175-3.527-70.547Z" transform="translate(-481.042 -243.62)" fill="#ffb9b9"/>
      <path id="Path_1436-2" data-name="Path 1436" d="M1018.845,391.652s3.527,25.867-12.934,28.219,18.813,38.8,18.813,38.8l45.856-25.867s-17.637-31.746-8.231-47.031S1018.845,391.652,1018.845,391.652Z" transform="translate(-469.929 -254.624)" fill="#ffb9b9"/>
      <path id="Path_1437-2" data-name="Path 1437" d="M1018.845,391.652s3.527,25.867-12.934,28.219,18.813,38.8,18.813,38.8l45.856-25.867s-17.637-31.746-8.231-47.031S1018.845,391.652,1018.845,391.652Z" transform="translate(-469.929 -254.624)" opacity="0.1"/>
      <ellipse id="Ellipse_488-2" data-name="Ellipse 488" cx="41.152" cy="41.152" rx="41.152" ry="41.152" transform="translate(413.743 106.457)" fill="#cf9595"/>
      <ellipse id="Ellipse_489-2" data-name="Ellipse 489" cx="41.152" cy="41.152" rx="41.152" ry="41.152" transform="translate(524.23 68.833)" fill="#ffb9b9"/>
      <path id="Path_1438-2" data-name="Path 1438" d="M851.432,478.046s-1.175,43.5,0,50.559-7.055,67.019-7.055,67.019l25.867-18.812S890.233,513.32,882,496.859,851.432,478.046,851.432,478.046Z" transform="translate(-519.966 -223.439)" fill="#cf9595"/>
      <path id="Path_1439-2" data-name="Path 1439" d="M952.42,496.857s-4.7,35.274,10.582,37.625,18.813-27.043,18.813-27.043l-5.879-29.394Z" transform="translate(-485.771 -223.439)" fill="#cf9595"/>
      <path id="Path_1440-2" data-name="Path 1440" d="M931.659,401.677c2.118,1.924,4.239,4.024,6.966,4.888,4.568,1.446,10.13-.8,14.026,1.984,3.705,2.652,4,8.7,8.051,10.786a11.317,11.317,0,0,0,5.345.807l14.333-.169a6.86,6.86,0,0,0,4.745,9.156c1.5.284,3.381.213,4.124,1.547.8,1.441.426,4.309,2.031,3.929a23.611,23.611,0,0,1,7.563-7.916c1.752-1.13,3.742-2.114,4.787-3.917,1.442-2.487.6-5.6.5-8.469-.32-8.941,6.9-17.3,5.065-26.058a26.268,26.268,0,0,0-2.489-6.258l-9.169-18.3c-1.621-3.235-3.505-6.723-6.851-8.1-5.065-2.084-10.5,1.627-15.89,2.577-6.13,1.08-12.223-1.484-18.211-3.185s-13.135-2.313-17.773,1.838c-1.883,1.686-3.189,4.045-5.389,5.293-3.753,2.128-9.682.881-11.594,4.749-.938,1.9-.319,4.214-.931,6.24-.834,2.763-3.655,4.312-6.01,5.98s-4.643,4.433-3.682,7.154c.409,1.159,1.357,2.071,1.739,3.239.7,2.149-.659,4.356-1.71,6.359-3.505,6.681,2.262,7.975,6.631,4.975C923.189,397.148,926.3,396.812,931.659,401.677Z" transform="translate(-499.027 -263.089)" fill="#3f3d56"/>
      <path id="Path_1442-2" data-name="Path 1442" d="M1073.024,418.345s27.043-3.527,18.812,24.691-19.988,79.953-38.8,82.3,3.527-68.2,3.527-68.2Z" transform="translate(-455.913 -242.517)" fill="#ffb9b9"/>
      <path id="Path_1443-2" data-name="Path 1443" d="M1030.076,335.747c12.964-2.852,26.7-3.51,39.365.476s24.106,13.1,28.781,25.525,1.382,28.005-9.26,35.939c-5.543,4.133-12.629,6.1-17.519,10.986-5.275,5.273-7.85,13.746-14.866,16.275a31.026,31.026,0,0,1-.47-15.983,47.349,47.349,0,0,0,1.873-8.437c.142-2.883-.884-6.071-3.4-7.477-2.679-1.494-6-.537-9.06-.763-7.612-.562-12.54-8.2-15.4-15.271s-5.421-15.11-12.023-18.941c-6.217-3.607-13.112-1.949-19.743-1.024-1-3.642,9.228-11.569,12.231-13.6A56.064,56.064,0,0,1,1030.076,335.747Z" transform="translate(-470.966 -269.546)" fill="#3f3d56"/>
      <path id="Path_1444-2" data-name="Path 1444" d="M1070.137,511.354s-10.582-47.031-10.582-52.91-5.879-34.1-2.351-41.152,11.758-47.031-1.176-43.5-18.813,54.086-18.813,54.086,2.351,29.394,0,38.8-1.176,71.723,7.055,72.9S1070.137,534.869,1070.137,511.354Z" transform="translate(-458.895 -256.747)" fill="#ffb9b9"/>
      <ellipse id="Ellipse_490-2" data-name="Ellipse 490" cx="25.867" cy="25.867" rx="25.867" ry="25.867" transform="translate(596.545 57.663)" fill="#3f3d56"/>
      <path id="Path_1445-2" data-name="Path 1445" d="M865.521,428.564s-22.928,33.51-22.928,72.31c0,0,28.218-1.176,44.68,22.34S865.521,428.564,865.521,428.564Z" transform="translate(-520.536 -239.214)" fill="#3f3d56"/>
      <path id="Path_1451-2" data-name="Path 1451" d="M920.64,441.18S903,425.9,907.706,412.962c0,0-52.91,17.637-51.734,31.746s22.34,72.9,22.34,72.9-34.1,65.844-16.461,79.953,12.934-2.352,43.5,8.23,43.5,5.879,55.262,3.527,14.109-1.176,22.339-1.176,3.528-23.516,0-36.449-8.231-31.746-4.7-36.449,34.1-87.008,34.1-87.008-23.745-19.008-51.849-12.443C960.5,435.792,940.628,451.763,920.64,441.18Z" transform="translate(-516.298 -244.188)" fill="#3f3d56"/>
      <path id="Path_1452-2" data-name="Path 1452" d="M971.162,443.236c0-1.176,11.758-3.527,11.758-3.527s7.054,47.031,3.527,56.438-32.922,19.988-37.625,18.812S971.162,443.236,971.162,443.236Z" transform="translate(-486.876 -235.661)" fill="#3f3d56"/>
      <ellipse id="Ellipse_491-2" data-name="Ellipse 491" cx="27.695" cy="27.695" rx="27.695" ry="27.695" transform="translate(430.71 63.32)" fill="#3f3d56"/>
    </g>
  </g>
</svg>
