<svg id="Group_473" data-name="Group 473" xmlns="http://www.w3.org/2000/svg" xmlns:xlink="http://www.w3.org/1999/xlink" width="626.573" height="635.141" viewBox="0 0 626.573 635.141">
  <defs>
    <clipPath id="clip-path">
      <path id="Path_1392" data-name="Path 1392" d="M880.493,465.367A294.523,294.523,0,0,1,695.708,738.661,288.123,288.123,0,0,1,665.183,749a296.054,296.054,0,0,1-157.814.02q-10.59-2.938-20.849-6.641a290.568,290.568,0,0,1-44.983-20.664A294.223,294.223,0,0,1,291.977,465.367c-.09-157.284,123.512-286.817,280.579-294.041q6.809-.317,13.679-.311,7.547,0,15.014.372C757.737,179.364,880.519,308.626,880.493,465.367Z" transform="translate(-291.977 -171.015)" fill="#4285f4"/>
    </clipPath>
    <linearGradient id="linear-gradient" x1="0.698" y1="15.882" x2="0.698" y2="16.883" gradientUnits="objectBoundingBox">
      <stop offset="0" stop-color="gray" stop-opacity="0.251"/>
      <stop offset="0.54" stop-color="gray" stop-opacity="0.122"/>
      <stop offset="1" stop-color="gray" stop-opacity="0.102"/>
    </linearGradient>
  </defs>
  <g id="undraw_celebrating_bol5_1_" data-name="undraw_celebrating_bol5 (1)" transform="translate(0)">
    <path id="Path_1358" data-name="Path 1358" d="M578.862,756.611a313.745,313.745,0,0,1-83.982-11.393c-7.571-2.1-15.041-4.48-22.2-7.072a310.422,310.422,0,0,1-47.9-22.005,313.659,313.659,0,0,1,15.786-554.3A310.208,310.208,0,0,1,564.3,130.061c9.7-.452,19.975-.449,30.55.064A313.525,313.525,0,0,1,695.379,734.21,308.591,308.591,0,0,1,662.93,745.2a313.886,313.886,0,0,1-84.067,11.414Zm0-624.871c-4.9,0-9.772.111-14.472.33a308.2,308.2,0,0,0-122.94,31.578,311.63,311.63,0,0,0,31.91,572.608c7.116,2.576,14.536,4.94,22.058,7.025a313.242,313.242,0,0,0,166.976-.021,306.345,306.345,0,0,0,32.237-10.916A311.5,311.5,0,0,0,594.75,132.132c-5.386-.261-10.731-.393-15.887-.393Z" transform="translate(-265.608 -129.731)" fill="#3f3d56"/>
    <path id="Path_1356" data-name="Path 1356" d="M880.493,465.367A294.523,294.523,0,0,1,695.708,738.661,288.123,288.123,0,0,1,665.183,749a296.054,296.054,0,0,1-157.814.02q-10.59-2.938-20.849-6.641a290.568,290.568,0,0,1-44.983-20.664A294.223,294.223,0,0,1,291.977,465.367c-.09-157.284,123.512-286.817,280.579-294.041q6.809-.317,13.679-.311,7.547,0,15.014.372C757.737,179.364,880.519,308.626,880.493,465.367Z" transform="translate(-266.953 -131.836)" fill="#03bfa6" opacity="0.5"/>
    <g id="Mask_Group_2" data-name="Mask Group 2" transform="translate(25.024 39.179)" clip-path="url(#clip-path)">
      <g id="Group_326" data-name="Group 326" transform="translate(-14.362 148.829)">
        <path id="Path_1050" data-name="Path 1050" d="M668.917,714.4l-6.372-19.99s-5.213-14.2-4.344-22.018c.869-7.532-1.738-15.934-1.738-15.934l5.213-26.943s.29-2.9.29-6.953c0-6.374-.869-15.644-5.5-17.962-7.24-3.766-21.721-35.634-24.907-35.634s-13.033-2.028-13.033-5.5v-.29h0v-.29h0v-.29h0a4.256,4.256,0,0,0-1.448-1.738c13.322-2.607,26.644-5.215,39.967-8.691h0a31.482,31.482,0,0,1-5.213-.29h-.29c-19.4-2.608-36.781-17.962-41.7-37.083-5.213-21.439,4.055-43.456,3.476-65.474a74.686,74.686,0,0,0-11.874-39.111,44.22,44.22,0,0,0-3.186-4.635,30.033,30.033,0,0,0,13.9-39.98,28.954,28.954,0,0,0-2.317-4.056,5.08,5.08,0,0,0-1.158-1.448,29.894,29.894,0,0,1-4.924,37.082,30.178,30.178,0,0,0-11.584-40.559C577.979,348.5,559.733,354,551.624,368.2c0,.29-.29.29-.29.579a14.132,14.132,0,0,0-2.027-.869A29.452,29.452,0,0,1,575.372,348.5h-1.738a30.048,30.048,0,0,0-27.513,18.252c-8.978-3.187-18.246-4.635-27.513-2.318a14.251,14.251,0,0,0-4.923,1.738l.29-.29a17.253,17.253,0,0,0-6.082,4.056c-2.606,2.607-4.634,5.794-6.951,8.691a34.8,34.8,0,0,1-8.4,7.532c.29,0,.579-.29.869-.29a40.233,40.233,0,0,1-37.07,4.925c-3.475-1.448-6.661-3.187-10.136-3.766a15.44,15.44,0,0,0-8.109,1.159l.29-.29a18.635,18.635,0,0,0-8.4,6.374c-4.055,4.925-5.792,11.009-7.24,17.093a50.845,50.845,0,0,0-1.448,13.326,26.24,26.24,0,0,0,4.634,15.644c5.213,6.953,12.453,8.691,19.983,9.85-.29.869-.29,1.448-.579,2.318a67.835,67.835,0,0,0,46.917,81.7l1.448,2.607h.579c3.475,5.794,7.24,12.457,11.005,18.831.29.29.29.579.579.869l-6.661,3.476h0a46.053,46.053,0,0,0-8.689,5.5,6.309,6.309,0,0,0-1.448,2.318c-1.158,3.477-6.372,12.458-10.136,14.775s-6.951,14.2-6.372,20.28c.29,6.084-2.027,5.5-8.109,5.794s0,9.271,0,9.271l.29.579a6.336,6.336,0,0,1-.869,1.448c-1.448,2.318-3.765,5.215-5.213,4.925-2.606-.29-4.344,6.373-4.344,7.532.29,1.159-4.634,9.271-6.661,10.14-1.738.869-9.847,2.607-7.82,10.14l-9.847,9.85-7.819,7.533S410.872,663.7,392.626,683.4a14.542,14.542,0,0,1,6.082.579l-.579.29c-4.923,2.318-13.032,6.084-19.4,8.692L346,694.121V669.786s-2.9-6.953-6.371,0l-.869,24.625-71.245,2.318,13.322-14.2h0l.29-.29a11.448,11.448,0,0,0,2.607-11.588L228.126,495.382h0l-.29-1.159a9.761,9.761,0,0,0-7.82-6.663L142.69,477.13h-.579l-7.24,2.028c-3.765.869-5.792,4.925-4.923,8.691h0c1.738,6.374,4.923,16.513,8.688,29.55H127.92l8.109,70.688,4.923,27.232c1.158,6.953,2.9,13.906,4.344,20.569,4.055,16.514,12.164,51.858,12.453,72.427L97.8,773.791v13.326H667.18s-2.027-3.476,2.317-8.691,2.317-25.494,2.317-25.494-2.607-3.187.579-10.43C674.71,734.969,668.917,714.4,668.917,714.4ZM193.372,698.756l-10.137.29-9.557-61.708C180.919,660.225,187.58,681.663,193.372,698.756Zm262.1,37.372-6.661-13.617a8.17,8.17,0,0,0,4.344-1.159c4.344-3.187,6.951-10.43,6.951-10.43l11.585-13.616.869-1.159c2.317,6.374,4.923,11.588,7.24,14.2,5.5,6.084,6.082,24.046,7.82,30.419,1.738,6.663.29,3.766,0,7.532a10.87,10.87,0,0,0,.29,2.9C480.089,743.371,469.374,736.128,455.472,736.128Z" transform="translate(-97.8 -348.5)" fill="url(#linear-gradient)"/>
        <path id="Path_1051" data-name="Path 1051" d="M98.9,548.8l67.19-73.006L433.4,467.1l46.917,94.734H98.9Z" transform="translate(-95.714 -123.507)" fill="#514e7f"/>
        <path id="Path_1052" data-name="Path 1052" d="M98.9,548.8l67.19-73.006L433.4,467.1l46.917,94.734H98.9Z" transform="translate(-95.714 -123.507)" opacity="0.2"/>
        <path id="Path_1053" data-name="Path 1053" d="M317.509,519.948v2.607a5.076,5.076,0,0,1-4.923,4.925H168.938c-2.607,0,0-5.5,0-5.5L167.2,486.343a6.263,6.263,0,0,1,4.344-6.084c8.109-2.028,13.612,1.159,13.612,1.159l88.911-2.318a35.019,35.019,0,0,1,5.5.29,23.633,23.633,0,0,1,16.218,9.56l20.563,27.812A4.829,4.829,0,0,1,317.509,519.948Z" transform="translate(33.792 -100.742)" fill="#514e7f"/>
        <path id="Path_1054" data-name="Path 1054" d="M317.13,498.084h0a5.076,5.076,0,0,1-4.923,4.925H168.558c-2.606,0,0-5.5,0-5.5s7.819-3.766,19.694-3.187L293.092,492s12.453.29,19.694,1.159A4.775,4.775,0,0,1,317.13,498.084Z" transform="translate(34.171 -76.27)" opacity="0.1"/>
        <path id="Path_1055" data-name="Path 1055" d="M264.259,481.3H173.9l2.607,27.522,104.261-2.028Z" transform="translate(46.496 -96.569)" fill="#f2f2f2"/>
        <path id="Path_1056" data-name="Path 1056" d="M230.184,506.3v9.561l-94.414,3.766s-21.721-1.448-24.328-14.775a9.55,9.55,0,0,1,0-4.056c.869-5.5,5.792-15.354,26.934-19.99l26.065-2.608h57.923S229.894,485.732,230.184,506.3Z" transform="translate(-72.344 -102.45)" fill="#514e7f"/>
        <path id="Path_1057" data-name="Path 1057" d="M230.184,491.794v9.271l-94.414,3.766s-21.721-1.448-24.328-14.775a9.55,9.55,0,0,1,0-4.056s13.033,12.458,30.7,10.429l83.119-3.476A30.3,30.3,0,0,0,230.184,491.794Z" transform="translate(-72.344 -87.653)" opacity="0.1"/>
        <ellipse id="Ellipse_456" data-name="Ellipse 456" cx="28.961" cy="4.925" rx="28.961" ry="4.925" transform="translate(55.971 386.269) rotate(-2.95)" opacity="0.1"/>
        <path id="Path_1058" data-name="Path 1058" d="M170.408,623.722l-15.35,7.532-16.218-3.766V600.835c1.158-19.411-7.82-57.942-12.164-75.614-1.738-6.663-3.186-13.616-4.344-20.569l-4.923-26.943L109.3,407.6h19.4L140,423.824Z" transform="translate(-75.995 -236.383)" fill="#514e7f"/>
        <path id="Path_1059" data-name="Path 1059" d="M167,623.532l-15.349,7.532L141.8,574.571c.29-9.56-11.874-55.334-12.743-57.362C119.5,494.323,111.1,407.7,111.1,407.7h13.612l11.295,16.224Z" transform="translate(-72.581 -236.193)" fill="#514e7f"/>
        <path id="Path_1060" data-name="Path 1060" d="M167,623.532l-15.349,7.532L141.8,574.571c.29-9.56-11.874-55.334-12.743-57.362C119.5,494.323,111.1,407.7,111.1,407.7h13.612l11.295,16.224Z" transform="translate(-72.581 -236.193)" opacity="0.15"/>
        <path id="Path_1061" data-name="Path 1061" d="M260.886,597.275l-52.13,54.755-6.082.289-7.53.58a8.606,8.606,0,0,1-8.4-4.925C171.106,612.339,120.423,440.833,110,404.619a7.08,7.08,0,0,1,4.634-8.691h.29l7.24-2.028h.579l75.879,10.14a12.086,12.086,0,0,1,9.557,7.822L263.782,585.4A13.406,13.406,0,0,1,260.886,597.275Z" transform="translate(-75.244 -262.373)" fill="#514e7f"/>
        <path id="Path_1062" data-name="Path 1062" d="M260.886,597.275l-52.13,54.755-6.082.289-7.53.58a8.606,8.606,0,0,1-8.4-4.925C171.106,612.339,120.423,440.833,110,404.619a7.08,7.08,0,0,1,4.634-8.691h.29l7.24-2.028h.579l75.879,10.14a12.086,12.086,0,0,1,9.557,7.822L263.782,585.4A13.406,13.406,0,0,1,260.886,597.275Z" transform="translate(-75.244 -262.373)" opacity="0.1"/>
        <path id="Path_1063" data-name="Path 1063" d="M252.246,597.085,200.4,651.839l-6.082.29L116.417,402.981A25.761,25.761,0,0,1,114.1,394l77.037,10.429a9.319,9.319,0,0,1,7.82,6.663l55.9,174.4A11.448,11.448,0,0,1,252.246,597.085Z" transform="translate(-66.893 -262.183)" fill="#514e7f"/>
        <path id="Path_1064" data-name="Path 1064" d="M240.9,579.377a15.936,15.936,0,0,1-2.027,2.607L187.9,629.5,118.1,398.6l66.9,6.663a12.172,12.172,0,0,1,10.136,8.4l46.917,156.442A11.728,11.728,0,0,1,240.9,579.377Z" transform="translate(-59.309 -253.457)" fill="#f2f2f2"/>
        <path id="Path_1065" data-name="Path 1065" d="M197.1,575.014,141.2,400.9a12.172,12.172,0,0,1,10.136,8.4l46.917,156.442A11.726,11.726,0,0,1,197.1,575.014Z" transform="translate(-15.508 -249.093)" opacity="0.1"/>
        <ellipse id="Ellipse_457" data-name="Ellipse 457" cx="29.541" cy="29.55" rx="29.541" ry="29.55" transform="translate(451.797 8.691)" fill="#945b79"/>
        <path id="Path_1066" data-name="Path 1066" d="M256.358,379.453a29.539,29.539,0,0,1,27.8-29.55h-1.738a29.7,29.7,0,0,0-.869,59.39h2.607A29.806,29.806,0,0,1,256.358,379.453Z" transform="translate(195.149 -345.847)" fill="#945b79"/>
        <path id="Path_1067" data-name="Path 1067" d="M257.086,381.05a29.539,29.539,0,0,1,27.8-29.55h-1.738a29.7,29.7,0,0,0,0,59.39h1.738C269.25,409.441,257.086,396.694,257.086,381.05Z" transform="translate(198.186 -342.809)" opacity="0.1"/>
        <path id="Path_1068" data-name="Path 1068" d="M258.234,499.255a53.5,53.5,0,0,1-8.4,3.766c-7.53,2.9-19.115,6.374-30.12,5.215C201.47,505.918,190.755,512,190.755,512l-4.055-30.13s13.322-4.056,18.825-4.925c4.055-.869,18.825-7.532,25.776-11.009,2.317-1.159,3.765-1.738,3.765-1.738h13.612Z" transform="translate(70.766 -129.009)" fill="#ffc1c7"/>
        <path id="Path_1069" data-name="Path 1069" d="M229.034,499.444a53.472,53.472,0,0,1-8.4,3.766c-.869-26.943-11.295-35.055-18.535-37.372,2.317-1.159,3.765-1.738,3.765-1.738h13.612Z" transform="translate(99.967 -129.198)" opacity="0.1"/>
        <path id="Path_1070" data-name="Path 1070" d="M282.65,452.119v66.343l-3.475,4.346L267.88,536.424s-2.607,7.243-6.661,10.14c-4.344,3.187-13.9-1.159-13.9-1.159l-2.606,4.346s-6.082,1.159-8.978,0-10.137,3.476-10.137,3.476c1.158-48.671-25.2-44.615-25.2-44.615,18.246-19.41,29.251-13.327,29.251-13.327l7.819-7.532,9.557-9.85c-2.317-7.533,5.792-9.271,7.53-10.14s6.661-8.981,6.661-10.14c-.29-1.159,1.448-7.532,4.344-7.532,1.448,0,3.475-2.608,5.213-4.925,1.159-2.028,2.027-3.766,2.027-3.766Z" transform="translate(96.743 -172.262)" fill="#ff6584"/>
        <path id="Path_1071" data-name="Path 1071" d="M236.9,428.84l19.983-10.14-1.158,11.878,4.055,12.168s-3.475,9.271-4.055,10.43-8.978,22.308-8.978,22.308l-6.951-8.691Z" transform="translate(165.952 -215.325)" fill="#ff6584"/>
        <path id="Path_1072" data-name="Path 1072" d="M239.8,466.791l-2.9-37.951,19.983-10.14" transform="translate(165.952 -215.325)" opacity="0.1"/>
        <path id="Path_1073" data-name="Path 1073" d="M333.723,470.438s-6.661,9.56-15.639,21.728c-21.142,28.391-55.606,70.978-50.393,39.979a9.857,9.857,0,0,0,.29-2.9c-1.158.869-4.344,0-7.53-1.448h-.29c-1.738-.87-3.186-1.738-4.634-2.608-.29,0-.29-.29-.579-.29-3.475-2.607-6.372-5.5-6.372-7.533,2.607-44.325,12.743-23.176,15.639-18.251.29.29.29.58.579.869,0-.289-.289-.579-.289-1.159A197.23,197.23,0,0,0,254.08,478.26h0L253.5,477.1c-3.765-6.663-7.82-13.326-11.295-19.41l-.869-1.738c-5.792-9.56-10.137-16.513-10.137-16.513s25.776-23.466,47.5-37.952c18.246-11.878,33.6-17.382,28.672,2.608-3.186,13.037-2.317,24.046.579,33.026,0,.29.29.58.29.869a38.683,38.683,0,0,0,2.027,5.215c1.158,2.318,2.317,4.635,3.475,6.663A71.313,71.313,0,0,0,333.723,470.438Z" transform="translate(155.144 -268.223)" fill="#ffc1c7"/>
        <path id="Path_1074" data-name="Path 1074" d="M293.377,434.062c-12.164,13.326-14.77,26.073-34.174,26.073a65.063,65.063,0,0,1-16.8-2.028c-6.082-10.429-11.005-18.251-11.005-18.251s86.884-79.38,76.168-35.344C303.8,417.549,290.191,424.5,293.377,434.062Z" transform="translate(155.523 -267.481)" opacity="0.15"/>
        <path id="Path_1075" data-name="Path 1075" d="M351.6,434.924A66.9,66.9,0,1,1,284.7,368h0a66.447,66.447,0,0,1,66.9,66.343Z" transform="translate(129.736 -311.509)" fill="#ffc1c7"/>
        <path id="Path_1076" data-name="Path 1076" d="M256.141,431.1s1.158,19.12,13.322,17.382,2.9,40.559,2.9,40.559l-13.322,12.168-14.48,4.346s-12.743-3.766-12.453-4.346,5.213-40.559,5.213-40.559l7.53-21.149Z" transform="translate(156.847 -191.802)" opacity="0.1"/>
        <path id="Path_1077" data-name="Path 1077" d="M256.141,431.6s1.158,19.121,13.322,17.383,2.9,40.559,2.9,40.559l-13.322,12.168-14.48,4.346s-12.743-3.766-12.453-4.346,5.213-40.559,5.213-40.559L244.846,440Z" transform="translate(156.847 -190.853)" fill="#514e7f"/>
        <path id="Path_1078" data-name="Path 1078" d="M236.574,451.74v66.343l-3.475,4.345c-3.765-9.85-6.371-22.886-4.634-34.765,2.317-15.644-2.317-35.923-3.765-42.3,1.159-2.028,2.027-3.766,2.027-3.766Z" transform="translate(142.819 -171.883)" opacity="0.1"/>
        <path id="Path_1079" data-name="Path 1079" d="M247.916,446.4a34.651,34.651,0,0,1-2.9,10.719,26.933,26.933,0,0,1-1.448,2.9c-3.475-2.607-6.372-5.5-6.372-7.532,2.607-44.325,12.743-23.177,15.639-18.252C251.681,435.677,248.495,438.864,247.916,446.4Z" transform="translate(166.521 -203.621)" opacity="0.1"/>
        <path id="Path_1080" data-name="Path 1080" d="M250.005,442.328c-2.027-5.215-6.371-13.037-11.005-21.438l.579-.29L250.3,442.328Z" transform="translate(169.934 -211.721)" opacity="0.1"/>
        <path id="Path_1081" data-name="Path 1081" d="M314.951,431.39s-73.851,106.032-66.321,62a9.862,9.862,0,0,0,.29-2.9c-1.448.869-4.344,0-7.819-1.449.579-2.9.869-4.925.869-4.925l8.109-23.177s4.634-18.251,4.055-22.018l.29-.29L294.968,411.4h0A69.162,69.162,0,0,0,314.951,431.39Z" transform="translate(173.916 -229.174)" opacity="0.1"/>
        <path id="Path_1082" data-name="Path 1082" d="M424.086,518.224l-5.792,29.84L400.917,674.087h-150.6s2.606-22.018,2.606-25.494-3.186-8.4-2.606-12.168,1.738-1.159,0-7.532-2.317-24.046-7.82-30.13-14.191-28.681-11.585-47.512c2.607-19.121-4.344-44.615-4.344-44.615s-6.082-8.981,0-9.271,8.4.29,8.109-5.794,2.606-17.672,6.371-19.99,9.268-11.3,10.137-14.485a6.3,6.3,0,0,1,1.448-2.318c3.186-2.9,9.268-6.084,9.268-6.084l6.082-2.9h0L278.7,467.236s-4.923,2.318-5.792,12.168a34.645,34.645,0,0,1-2.9,10.719c-.29.579-.579,1.448-.869,2.028a25.263,25.263,0,0,1-2.606,4.925h0a33.687,33.687,0,0,1-2.027,3.187s-.29,2.317-.869,5.5h0c-.869,6.663-2.317,17.093-3.475,19.7a91.861,91.861,0,0,0-3.186,9.56,12.76,12.76,0,0,0-.579,5.5v.29c1.159,3.187,6.082-10.43,6.082-10.43s3.765-11.588,5.5-11.588c1.158,0,4.344-16.224,5.5-23.756.29-2.318.579-3.766.579-3.766l8.109-23.176s1.158-4.346,2.317-9.271c1.158-5.215,2.317-11.009,1.738-12.747l.29-.29,40.546-27.232h0l.579-.29h0c-.29,0-1.158-.579-2.607-4.056-.29-.869-.869-2.028-1.448-3.477,0,0,13.033-5.215,17.666-1.449l.869.869c0,.29.29.29.29.58,3.186,6.374,4.344,11.009,7.53,15.065a2.26,2.26,0,0,0,1.158,1.159c3.765,3.766,11.005,8.4,9.847,9.56-1.448,1.449,10.137,7.243,10.137,7.243s6.661,3.766,8.978,7.243a4.118,4.118,0,0,1,.579,1.738c0,3.477,9.847,5.5,13.033,5.5s17.667,31.578,24.907,35.344C426.113,497.365,424.086,518.224,424.086,518.224Z" transform="translate(141.239 -235.76)" fill="#ff6584"/>
        <g id="Group_163" data-name="Group 163" transform="translate(390.575 172.507)" opacity="0.1">
          <path id="Path_1083" data-name="Path 1083" d="M255.075,442.918s-4.923,2.318-5.792,12.168a34.652,34.652,0,0,1-2.9,10.719,38.954,38.954,0,0,1-3.475,6.953h0a33.665,33.665,0,0,1-2.027,3.187s-.29,2.318-.869,5.5h0c-.869,6.663-2.317,17.093-3.475,19.7a91.844,91.844,0,0,0-3.186,9.56,12.757,12.757,0,0,0-.579,5.5v.29c1.158,3.187,6.082-10.429,6.082-10.429s3.765-11.588,5.5-11.588c.579,0,1.159-2.318,2.027-5.5.29-2.607.869-5.215,1.158-7.243h0c.579-3.187.869-5.5.869-5.5a6.432,6.432,0,0,0,1.158-2.028,67.784,67.784,0,0,0,1.158-7.243l8.109-23.177s.579-2.318,1.448-5.5L251.6,420.9l-6.082,2.9h0Z" transform="translate(-232.661 -383.659)"/>
          <path id="Path_1084" data-name="Path 1084" d="M347.894,493.668c-7.24-3.766-21.721-35.345-24.907-35.345s-13.033-2.028-13.033-5.5-9.557-8.981-9.557-8.981-11.585-5.794-10.136-7.243c1.158-1.159-6.082-5.794-9.847-9.56l-1.158-1.159c-3.186-4.056-4.344-8.981-7.53-15.065,0-.29-.29-.29-.29-.579l-.869-.869c-2.028-1.738-5.792-1.449-9.268-.869a9.657,9.657,0,0,1,1.738.869l.869.869c0,.29.29.29.29.579,3.186,6.374,4.344,11.009,7.53,15.065.29.29.579.869,1.158,1.159,3.765,3.766,11.005,8.4,9.847,9.56-1.448,1.448,10.136,7.243,10.136,7.243s9.557,5.5,9.557,8.981,9.847,5.5,13.033,5.5,17.666,31.578,24.907,35.345S345.577,518,345.577,518l-5.792,29.84L322.408,673.865h7.53l17.377-126.022L353.107,518S355.135,497.434,347.894,493.668Z" transform="translate(-178.357 -408.045)"/>
        </g>
        <path id="Path_1085" data-name="Path 1085" d="M219.352,473.111s-43.152-12.457-46.338,6.663S190.68,509.9,204,509.614s19.114-13.037,19.114-13.037Z" transform="translate(44.196 -119.668)" fill="#ffc1c7"/>
        <path id="Path_1086" data-name="Path 1086" d="M373.182,506.575s-9.557,6.953-30.12,6.953-44.6,4.346-44.6,4.346-30.7-72.137-91.807-10.43c0,0-11.005,14.2,46.338,15.644,0,0,20.273-.579,24.617,9.271H391.717l15.639-11.588Z" transform="translate(106.997 -94.322)" fill="#ffc1c7"/>
        <path id="Path_1087" data-name="Path 1087" d="M189.509,461.639s-2.9-6.663-6.371,0L181.4,514.366l4.054,12.457,4.055-11.009Z" transform="translate(60.717 -139.485)" fill="#514e7f"/>
        <path id="Path_1088" data-name="Path 1088" d="M277.135,410.225c-5.792,2.028-12.453,6.663-14.481,8.112-.29,0-1.448-.869-4.055-7.532C258.6,410.8,273.37,405.01,277.135,410.225Z" transform="translate(207.098 -235.532)" opacity="0.1"/>
        <path id="Path_1089" data-name="Path 1089" d="M264.326,442.728s-4.923,2.317-5.792,12.168a34.646,34.646,0,0,1-2.9,10.719l-3.186,6.953h0l-2.606,8.691h0l.29,17.962-6.951,11.3-.579,5.5-1.738,16.8-9.268-4.346s3.765-26.943,6.661-32.447,6.661-34.475,6.661-34.475-.29-10.719,1.158-12.457-2.317-1.449-2.607-5.5c-.289-2.318-2.9-8.691-4.923-13.616,3.186-2.9,9.268-6.084,9.268-6.084L253.9,421Z" transform="translate(155.903 -210.962)" fill="#ff6584"/>
        <path id="Path_1090" data-name="Path 1090" d="M264.326,442.728s-4.923,2.317-5.792,12.168a34.646,34.646,0,0,1-2.9,10.719l-3.186,6.953h0l-2.606,8.691h0l.29,17.962-6.951,11.3-.579,5.5-1.738,16.8-9.268-4.346s3.765-26.943,6.661-32.447,6.661-34.475,6.661-34.475-.29-10.719,1.158-12.457-2.317-1.449-2.607-5.5c-.289-2.318-2.9-8.691-4.923-13.616,3.186-2.9,9.268-6.084,9.268-6.084L253.9,421Z" transform="translate(155.903 -210.962)" opacity="0.1"/>
        <path id="Path_1091" data-name="Path 1091" d="M310.284,426.672c-7.53,6.084-28.093,23.756-30.41,35.634-2.9,14.775-11.584,13.327-11.584,13.327-10.716-23.467-18.246-29.261-22.59-30.13l40.546-27.232h0l.579-.29h0c-.29,0-1.158-.579-2.606-4.056L300.437,409l.869.869c0,.29.29.29.29.579,3.186,6.374,4.344,11.009,7.53,15.065C309.7,425.8,309.994,426.382,310.284,426.672Z" transform="translate(182.638 -233.727)" opacity="0.1"/>
        <path id="Path_1092" data-name="Path 1092" d="M310.284,426.272c-7.53,6.084-28.093,23.756-30.41,35.634-2.9,14.775-11.584,13.327-11.584,13.327-10.716-23.466-18.246-29.26-22.59-30.13l40.546-27.232h0l.579-.29h0c-.29,0-1.158-.58-2.606-4.056l16.218-4.925.869.869c0,.29.29.29.29.579,3.186,6.374,4.344,11.009,7.53,15.065A2.262,2.262,0,0,1,310.284,426.272Z" transform="translate(182.638 -234.486)" fill="#ff6584"/>
        <path id="Path_1093" data-name="Path 1093" d="M252.2,461.049c.579-.29,26.934-15.065,24.038-3.766C273.052,468.581,252.2,461.049,252.2,461.049Z" transform="translate(194.963 -150.193)" opacity="0.1"/>
        <path id="Path_1094" data-name="Path 1094" d="M212.6,460.7s13.9,21.728,18.825,20.859S212.6,460.7,212.6,460.7Z" transform="translate(119.876 -135.649)" opacity="0.1"/>
        <path id="Path_1095" data-name="Path 1095" d="M218.6,457.9s.869,16.8,8.109,17.961C234.239,477.31,218.6,457.9,218.6,457.9Z" transform="translate(131.253 -140.96)" opacity="0.1"/>
        <path id="Path_1096" data-name="Path 1096" d="M245.3,476.6s17.377,28.681,13.9,38.821Z" transform="translate(181.879 -105.485)" opacity="0.1"/>
        <path id="Path_1097" data-name="Path 1097" d="M252.2,477.8s23.459,30.709,19.4,33.316C267.55,513.434,252.2,477.8,252.2,477.8Z" transform="translate(194.963 -103.208)" opacity="0.1"/>
        <path id="Path_1098" data-name="Path 1098" d="M234.276,460.7s-2.317,21.728,6.661,28.1Z" transform="translate(160.467 -135.649)" opacity="0.1"/>
        <path id="Path_1099" data-name="Path 1099" d="M292.746,427.356s-39.967,31-33.6,63.446c6.372,32.158,12.743,34.765,12.743,34.765s2.317,13.037,6.661,18.252c4.344,5.5,3.765,8.981,3.765,8.981s4.055-1.738,5.5,7.532,8.4,15.934,8.4,15.934,2.317,7.532-3.765,11.588-4.634,8.4-4.634,8.4l-24.907,14.485,27.513,27.232h71.245s-2.027-3.476,2.317-8.691,2.317-25.2,2.317-25.2-2.606-3.187.579-10.43-2.606-27.522-2.606-27.522l-6.372-19.99s-5.213-14.2-4.344-21.728-1.738-15.934-1.738-15.934l-13.612-43.166C338.215,465.6,338.794,422.431,292.746,427.356Z" transform="translate(206.837 -199.646)" opacity="0.1"/>
        <path id="Path_1100" data-name="Path 1100" d="M293.246,427.356s-39.967,31-33.6,63.446S272.1,525.567,272.1,525.567s2.317,13.037,6.661,18.252c4.344,5.5,3.765,8.981,3.765,8.981s4.055-1.738,5.5,7.532,8.4,15.934,8.4,15.934,2.317,7.532-3.765,11.588-4.634,8.4-4.634,8.4l-24.907,14.485,27.8,27.232h71.245s-2.027-3.476,2.317-8.691,2.317-25.2,2.317-25.2-2.607-3.187.579-10.43-2.606-27.522-2.606-27.522l-6.372-19.99s-5.213-14.2-4.344-21.728-1.738-15.934-1.738-15.934l-13.612-43.166C338.715,465.6,339.294,422.431,293.246,427.356Z" transform="translate(207.785 -199.646)" fill="#ff6584"/>
        <path id="Path_1101" data-name="Path 1101" d="M275.4,435.05s28.672,9.56,36.2,14.485S300.307,430.7,275.4,435.05Z" transform="translate(238.953 -185.322)" opacity="0.1"/>
        <path id="Path_1102" data-name="Path 1102" d="M280.6,485.4s40.546,5.215,38.229,13.037C316.222,506.549,280.6,485.4,280.6,485.4Z" transform="translate(248.813 -88.791)" opacity="0.1"/>
        <path id="Path_1103" data-name="Path 1103" d="M277.8,488.4s29.83,9.56,24.328,17.383C296.914,513.6,277.8,488.4,277.8,488.4Z" transform="translate(243.504 -83.1)" opacity="0.1"/>
        <path id="Path_1104" data-name="Path 1104" d="M390.63,527.249c-16.218,3.187-32.437,5.794-48.655,8.4l-4.344.579c-8.978,1.448-17.956,2.9-26.934,2.9a29.17,29.17,0,0,1-13.033-2.607,16.181,16.181,0,0,1-2.317-1.449,11.541,11.541,0,0,1-4.634-8.981c0-6.374,6.082-10.719,11.295-14.485,7.53-5.5,15.06-12.168,17.956-20.859a30.309,30.309,0,0,0,1.159-4.925c.869-7.243-1.738-14.486-4.634-21.438-3.186-7.243-7.24-15.355-13.612-19.7a23.529,23.529,0,0,0-8.4-3.477c-9.557-1.159-18.535,5.5-28.092,5.215-7.82-.29-14.481-5.215-19.115-11.3-3.475-4.345-5.5-10.14-10.716-12.457-5.5-2.9-11.874-3.477-17.956-4.346,8.978-35.924,45.469-57.362,81.381-48.381s57.343,45.484,48.365,81.408a70.586,70.586,0,0,1-15.929,29.261c0,.29.29.579.29.869a38.655,38.655,0,0,0,2.027,5.215s13.033-5.215,17.666-1.448l.869.869c0,.29.29.29.29.579,3.186,6.374,4.344,11.009,7.53,15.065a2.262,2.262,0,0,0,1.158,1.159c3.765,3.766,11.005,8.4,9.847,9.56-1.448,1.449,10.137,7.243,10.137,7.243S388.6,524.062,390.63,527.249Z" transform="translate(131.253 -311.707)" opacity="0.1"/>
        <path id="Path_1105" data-name="Path 1105" d="M215.056,431.1c-6.082-7.822-5.5-18.831-3.186-28.391,1.448-6.084,3.475-12.168,7.24-17.093s10.136-8.112,16.218-7.243c3.475.579,6.951,2.318,10.136,3.766,15.35,6.084,34.174,1.159,44.311-11.878,2.317-2.9,4.344-6.084,6.951-8.691a25.262,25.262,0,0,1,10.716-5.5c17.087-4.345,34.754,4.056,49.524,14.2,12.453,8.4,24.328,18.251,32.726,31a73.692,73.692,0,0,1,11.874,38.821c.29,21.728-8.689,43.746-3.475,64.894,5.213,20.859,25.486,36.793,46.918,37.082-29.541,7.243-59.371,12.168-89.49,17.093-8.978,1.449-17.956,2.9-26.934,2.9a29.168,29.168,0,0,1-13.033-2.607c-4.055-2.028-7.24-6.084-7.24-10.43,0-6.373,6.082-10.719,11.295-14.485,8.978-6.373,17.956-14.775,19.115-25.784.869-7.243-1.738-14.485-4.634-21.438-4.344-10.429-11.005-21.728-22.011-23.176-9.557-1.159-18.535,5.5-28.092,5.215-7.82-.29-14.481-5.215-19.115-11.3-3.475-4.345-5.5-10.14-10.716-12.457C241.7,439.214,224.9,444.139,215.056,431.1Z" transform="translate(115.392 -336.368)" fill="#945b79"/>
        <path id="Path_1106" data-name="Path 1106" d="M298.156,393.49a29.75,29.75,0,0,0,8.4-39.69,5.086,5.086,0,0,0,1.158,1.449,29.7,29.7,0,1,1-48.365,34.475c-.29-.29-.29-.579-.579-.869-.29-.579-.579-.869-.869-1.448A29.514,29.514,0,0,0,298.156,393.49Z" transform="translate(205.771 -338.446)" fill="#945b79"/>
        <g id="Group_164" data-name="Group 164" transform="translate(325.628 21.438)" opacity="0.1">
          <path id="Path_1107" data-name="Path 1107" d="M247.933,365.75c2.317-2.9,4.344-6.084,6.951-8.691.579-.29.869-.869,1.448-1.159a21.536,21.536,0,0,0-6.082,3.766c-2.607,2.607-4.634,5.794-6.951,8.691a34.8,34.8,0,0,1-8.4,7.532A36.972,36.972,0,0,0,247.933,365.75Z" transform="translate(-163.468 -355.9)"/>
          <path id="Path_1108" data-name="Path 1108" d="M360.152,540.311c-8.978,1.448-17.956,2.9-26.934,2.9a29.173,29.173,0,0,1-13.033-2.607c-4.055-2.028-7.24-6.084-6.951-10.43,0-6.373,6.082-10.719,11.295-14.485,8.978-6.374,17.956-14.775,19.114-25.784.869-7.243-1.738-14.485-4.634-21.438-4.344-10.43-11.005-21.728-22.011-23.176-9.557-1.159-18.535,5.5-28.092,5.214-7.82-.29-14.481-5.214-19.115-11.3-3.475-4.346-5.5-10.14-10.716-12.457-12.743-6.374-29.541-1.449-39.387-14.485-6.082-7.822-5.5-18.831-3.186-28.391,1.448-6.084,3.475-12.167,7.24-17.093a14.18,14.18,0,0,1,3.765-3.477,20.331,20.331,0,0,0-8.4,6.374c-4.055,4.925-5.792,11.009-7.24,17.093-2.317,9.56-2.9,20.569,3.186,28.391,9.847,12.747,26.644,8.112,39.387,14.485,5.213,2.607,7.24,8.4,10.716,12.747,4.634,5.794,11.295,11.009,19.115,11.3,9.557.29,18.535-6.374,28.092-5.215,11.005,1.448,17.667,13.037,22.011,23.177,2.9,6.663,5.5,13.906,4.634,21.438C337.852,504.1,328.874,512.5,319.9,518.872c-5.213,3.767-11.295,8.112-11.295,14.486,0,4.346,3.186,8.4,7.24,10.429a28.4,28.4,0,0,0,13.033,2.608c8.978,0,18.246-1.449,26.934-2.9,29.83-4.925,59.95-9.85,89.49-17.093a31.449,31.449,0,0,1-5.213-.29C413.441,531.62,386.8,535.965,360.152,540.311Z" transform="translate(-210.235 -341.862)"/>
        </g>
        <ellipse id="Ellipse_458" data-name="Ellipse 458" cx="13.033" cy="6.953" rx="13.033" ry="6.953" transform="translate(240.089 355.471)" fill="#ffc1c7"/>
      </g>
    </g>
    <g id="Group_327" data-name="Group 327" transform="translate(212.102 193.548)">
      <path id="Path_1054-2" data-name="Path 1054" d="M317.179,498.084h0a5.077,5.077,0,0,1-4.925,4.925H168.559c-2.607,0,0-5.5,0-5.5s7.822-3.766,19.7-3.187L293.133,492s12.457.29,19.7,1.159A4.776,4.776,0,0,1,317.179,498.084Z" transform="translate(-167.4 -80.321)" opacity="0.1"/>
      <ellipse id="Ellipse_457-2" data-name="Ellipse 457" cx="29.55" cy="29.55" rx="29.55" ry="29.55" transform="translate(250.307 4.64)" fill="#945b79"/>
      <path id="Path_1066-2" data-name="Path 1066" d="M256.359,379.453a29.543,29.543,0,0,1,27.812-29.55h-1.738a29.7,29.7,0,1,0-.869,59.39h2.607A29.81,29.81,0,0,1,256.359,379.453Z" transform="translate(-6.341 -349.898)" fill="#945b79"/>
      <path id="Path_1067-2" data-name="Path 1067" d="M257.087,381.05A29.543,29.543,0,0,1,284.9,351.5h-1.738a29.7,29.7,0,0,0,0,59.39H284.9C269.255,409.441,257.087,396.694,257.087,381.05Z" transform="translate(-3.303 -346.86)" opacity="0.1"/>
      <path id="Path_1069-2" data-name="Path 1069" d="M229.043,499.444a53.5,53.5,0,0,1-8.4,3.766c-.869-26.943-11.3-35.055-18.541-37.372,2.318-1.159,3.766-1.738,3.766-1.738h13.616Z" transform="translate(-101.572 -133.25)" opacity="0.1"/>
      <path id="Path_1070-2" data-name="Path 1070" d="M282.677,452.119v66.343l-3.477,4.346-11.3,13.616s-2.607,7.243-6.663,10.14c-4.346,3.187-13.906-1.159-13.906-1.159l-2.607,4.346s-6.084,1.159-8.981,0-10.14,3.476-10.14,3.476c1.159-48.671-25.2-44.615-25.2-44.615,18.252-19.41,29.26-13.327,29.26-13.327l7.822-7.532,9.56-9.85c-2.318-7.533,5.794-9.271,7.532-10.14s6.663-8.981,6.663-10.14c-.29-1.159,1.449-7.532,4.346-7.532,1.449,0,3.477-2.608,5.215-4.925,1.159-2.028,2.028-3.766,2.028-3.766Z" transform="translate(-104.797 -176.313)" fill="#ff6584"/>
      <path id="Path_1071-2" data-name="Path 1071" d="M236.9,428.84l19.99-10.14-1.159,11.878,4.056,12.168s-3.476,9.271-4.056,10.43-8.981,22.308-8.981,22.308l-6.953-8.691Z" transform="translate(-35.553 -219.377)" fill="#ff6584"/>
      <path id="Path_1072-2" data-name="Path 1072" d="M239.8,466.791l-2.9-37.951,19.99-10.14" transform="translate(-35.553 -219.377)" opacity="0.1"/>
      <path id="Path_1073-2" data-name="Path 1073" d="M333.757,470.438s-6.663,9.56-15.644,21.728c-21.149,28.391-55.624,70.978-50.409,39.979a9.856,9.856,0,0,0,.29-2.9c-1.159.869-4.346,0-7.532-1.448h-.29c-1.738-.87-3.187-1.738-4.635-2.608-.29,0-.29-.29-.579-.29-3.476-2.607-6.374-5.5-6.374-7.533,2.607-44.325,12.747-23.176,15.644-18.251.29.29.29.58.579.869,0-.289-.29-.579-.29-1.159a197.2,197.2,0,0,0-10.43-20.569h0l-.579-1.159c-3.766-6.663-7.822-13.326-11.3-19.41l-.869-1.738c-5.794-9.56-10.14-16.513-10.14-16.513s25.784-23.466,47.512-37.952c18.252-11.878,33.606-17.382,28.681,2.608-3.187,13.037-2.318,24.046.579,33.026,0,.29.29.58.29.869a38.678,38.678,0,0,0,2.028,5.215c1.159,2.318,2.318,4.635,3.476,6.663A71.321,71.321,0,0,0,333.757,470.438Z" transform="translate(-46.367 -272.274)" fill="#ffc1c7"/>
      <path id="Path_1074-2" data-name="Path 1074" d="M293.4,434.062c-12.168,13.326-14.775,26.073-34.186,26.073a65.1,65.1,0,0,1-16.8-2.028c-6.084-10.429-11.009-18.251-11.009-18.251s86.912-79.38,76.193-35.344C303.827,417.549,290.211,424.5,293.4,434.062Z" transform="translate(-45.987 -271.532)" opacity="0.15"/>
      <path id="Path_1075-2" data-name="Path 1075" d="M351.645,434.924A66.922,66.922,0,1,1,284.723,368h0a66.458,66.458,0,0,1,66.922,66.343Z" transform="translate(-71.787 -315.56)" fill="#ffc1c7"/>
      <path id="Path_1076-2" data-name="Path 1076" d="M256.149,431.1s1.159,19.12,13.327,17.382,2.9,40.559,2.9,40.559l-13.327,12.168-14.485,4.346s-12.747-3.766-12.458-4.346,5.215-40.559,5.215-40.559L244.85,439.5Z" transform="translate(-44.662 -195.853)" opacity="0.1"/>
      <path id="Path_1077-2" data-name="Path 1077" d="M256.149,431.6s1.159,19.121,13.327,17.383,2.9,40.559,2.9,40.559l-13.327,12.168-14.485,4.346s-12.747-3.766-12.458-4.346,5.215-40.559,5.215-40.559L244.85,440Z" transform="translate(-44.662 -194.904)" fill="#514e7f"/>
      <path id="Path_1078-2" data-name="Path 1078" d="M236.578,451.74v66.343l-3.476,4.345c-3.766-9.85-6.374-22.886-4.635-34.765,2.318-15.644-2.318-35.923-3.766-42.3,1.159-2.028,2.028-3.766,2.028-3.766Z" transform="translate(-58.698 -175.934)" opacity="0.1"/>
      <path id="Path_1079-2" data-name="Path 1079" d="M247.919,446.4a34.643,34.643,0,0,1-2.9,10.719,26.931,26.931,0,0,1-1.449,2.9c-3.476-2.607-6.374-5.5-6.374-7.532,2.607-44.325,12.747-23.177,15.644-18.252C251.685,435.677,248.5,438.864,247.919,446.4Z" transform="translate(-34.984 -207.672)" opacity="0.1"/>
      <path id="Path_1080-2" data-name="Path 1080" d="M250.009,442.328c-2.028-5.215-6.373-13.037-11.009-21.438l.58-.29L250.3,442.328Z" transform="translate(-31.569 -215.772)" opacity="0.1"/>
      <path id="Path_1081-2" data-name="Path 1081" d="M314.975,431.39s-73.876,106.032-66.343,62a9.856,9.856,0,0,0,.29-2.9c-1.448.869-4.346,0-7.822-1.449.579-2.9.869-4.925.869-4.925l8.112-23.177s4.635-18.251,4.056-22.018l.29-.29L294.986,411.4h0A69.174,69.174,0,0,0,314.975,431.39Z" transform="translate(-27.585 -233.225)" opacity="0.1"/>
      <path id="Path_1082-2" data-name="Path 1082" d="M424.151,518.224l-5.794,29.84L400.975,674.087H250.327s2.607-22.018,2.607-25.494-3.187-8.4-2.607-12.168,1.738-1.159,0-7.532-2.318-24.046-7.822-30.13-14.2-28.681-11.588-47.512c2.607-19.121-4.346-44.615-4.346-44.615s-6.084-8.981,0-9.271,8.4.29,8.112-5.794,2.607-17.672,6.374-19.99,9.271-11.3,10.14-14.485a6.307,6.307,0,0,1,1.449-2.318c3.187-2.9,9.271-6.084,9.271-6.084L268,445.8h0l10.719,21.438s-4.925,2.318-5.794,12.168a34.64,34.64,0,0,1-2.9,10.719c-.29.579-.579,1.448-.869,2.028a25.251,25.251,0,0,1-2.607,4.925h0a33.687,33.687,0,0,1-2.028,3.187s-.29,2.317-.869,5.5h0c-.869,6.663-2.318,17.093-3.476,19.7a91.769,91.769,0,0,0-3.187,9.56,12.754,12.754,0,0,0-.579,5.5v.29c1.159,3.187,6.084-10.43,6.084-10.43S266.261,518.8,268,518.8c1.159,0,4.346-16.224,5.5-23.756.29-2.318.579-3.766.579-3.766l8.112-23.176s1.159-4.346,2.318-9.271c1.159-5.215,2.318-11.009,1.738-12.747l.29-.29L327.1,418.565h0l.58-.29h0c-.29,0-1.159-.579-2.607-4.056-.29-.869-.869-2.028-1.448-3.477,0,0,13.037-5.215,17.672-1.449l.869.869c0,.29.29.29.29.58,3.187,6.374,4.346,11.009,7.532,15.065a2.261,2.261,0,0,0,1.159,1.159c3.766,3.766,11.009,8.4,9.85,9.56-1.448,1.449,10.14,7.243,10.14,7.243s6.663,3.766,8.981,7.243a4.12,4.12,0,0,1,.579,1.738c0,3.477,9.85,5.5,13.037,5.5S411.4,489.833,418.647,493.6C426.179,497.365,424.151,518.224,424.151,518.224Z" transform="translate(-60.278 -239.811)" fill="#ff6584"/>
      <g id="Group_163-2" data-name="Group 163" transform="translate(189.065 168.456)" opacity="0.1">
        <path id="Path_1083-2" data-name="Path 1083" d="M255.082,442.918s-4.925,2.318-5.794,12.168a34.641,34.641,0,0,1-2.9,10.719,38.973,38.973,0,0,1-3.476,6.953h0a33.671,33.671,0,0,1-2.028,3.187s-.29,2.318-.869,5.5h0c-.869,6.663-2.318,17.093-3.477,19.7a91.867,91.867,0,0,0-3.187,9.56,12.755,12.755,0,0,0-.579,5.5v.29c1.159,3.187,6.084-10.429,6.084-10.429s3.766-11.588,5.5-11.588c.579,0,1.159-2.318,2.028-5.5.29-2.607.869-5.215,1.159-7.243h0c.579-3.187.869-5.5.869-5.5a6.431,6.431,0,0,0,1.159-2.028,67.767,67.767,0,0,0,1.159-7.243l8.112-23.177s.579-2.318,1.449-5.5L251.605,420.9l-6.084,2.9h0Z" transform="translate(-232.661 -383.659)"/>
        <path id="Path_1084-2" data-name="Path 1084" d="M347.923,493.668c-7.243-3.766-21.728-35.345-24.915-35.345s-13.037-2.028-13.037-5.5-9.56-8.981-9.56-8.981-11.588-5.794-10.14-7.243c1.159-1.159-6.084-5.794-9.85-9.56l-1.159-1.159c-3.187-4.056-4.345-8.981-7.532-15.065,0-.29-.29-.29-.29-.579l-.869-.869c-2.028-1.738-5.794-1.449-9.271-.869a9.652,9.652,0,0,1,1.738.869l.869.869c0,.29.29.29.29.579,3.187,6.374,4.346,11.009,7.532,15.065.29.29.579.869,1.159,1.159,3.766,3.766,11.009,8.4,9.85,9.56-1.449,1.448,10.14,7.243,10.14,7.243s9.56,5.5,9.56,8.981,9.85,5.5,13.037,5.5,17.672,31.578,24.915,35.345S345.6,518,345.6,518l-5.794,29.84L322.428,673.865h7.532l17.382-126.022L353.137,518S355.165,497.434,347.923,493.668Z" transform="translate(-178.33 -408.045)"/>
      </g>
      <path id="Path_1086-2" data-name="Path 1086" d="M373.236,506.575s-9.56,6.953-30.13,6.953-44.615,4.346-44.615,4.346-30.709-72.137-91.837-10.43c0,0-11.009,14.2,46.353,15.644,0,0,20.28-.579,24.625,9.271,0,0,29.6,5.308,58.133,5.308s56.012-5.308,56.012-5.308l15.644-11.588Z" transform="translate(-94.538 -98.373)" fill="#ffc1c7"/>
      <path id="Path_1088-2" data-name="Path 1088" d="M277.141,410.225c-5.794,2.028-12.458,6.663-14.485,8.112-.29,0-1.449-.869-4.056-7.532C258.6,410.8,273.375,405.01,277.141,410.225Z" transform="translate(5.613 -239.583)" opacity="0.1"/>
      <path id="Path_1089-2" data-name="Path 1089" d="M264.337,442.728s-4.925,2.317-5.794,12.168a34.638,34.638,0,0,1-2.9,10.719l-3.187,6.953h0l-2.607,8.691h0l.29,17.962-6.953,11.3-.579,5.5-1.738,16.8-9.271-4.346s3.766-26.943,6.664-32.447,6.663-34.475,6.663-34.475-.29-10.719,1.159-12.457-2.318-1.449-2.607-5.5c-.29-2.318-2.9-8.691-4.925-13.616,3.187-2.9,9.271-6.084,9.271-6.084l6.084-2.9Z" transform="translate(-45.608 -215.013)" fill="#ff6584"/>
      <path id="Path_1090-2" data-name="Path 1090" d="M264.337,442.728s-4.925,2.317-5.794,12.168a34.638,34.638,0,0,1-2.9,10.719l-3.187,6.953h0l-2.607,8.691h0l.29,17.962-6.953,11.3-.579,5.5-1.738,16.8-9.271-4.346s3.766-26.943,6.664-32.447,6.663-34.475,6.663-34.475-.29-10.719,1.159-12.457-2.318-1.449-2.607-5.5c-.29-2.318-2.9-8.691-4.925-13.616,3.187-2.9,9.271-6.084,9.271-6.084l6.084-2.9Z" transform="translate(-45.608 -215.013)" opacity="0.1"/>
      <path id="Path_1091-2" data-name="Path 1091" d="M310.3,426.672c-7.533,6.084-28.1,23.756-30.419,35.634-2.9,14.775-11.588,13.327-11.588,13.327-10.719-23.467-18.252-29.261-22.6-30.13l40.559-27.232h0l.58-.29h0c-.29,0-1.159-.579-2.607-4.056L300.455,409l.869.869c0,.29.29.29.29.579,3.187,6.374,4.346,11.009,7.532,15.065C309.725,425.8,310.015,426.382,310.3,426.672Z" transform="translate(-18.859 -237.778)" opacity="0.1"/>
      <path id="Path_1092-2" data-name="Path 1092" d="M310.3,426.272c-7.533,6.084-28.1,23.756-30.419,35.634-2.9,14.775-11.588,13.327-11.588,13.327-10.719-23.466-18.252-29.26-22.6-30.13l40.559-27.232h0l.58-.29h0c-.29,0-1.159-.58-2.607-4.056l16.224-4.925.869.869c0,.29.29.29.29.579,3.187,6.374,4.346,11.009,7.532,15.065A2.262,2.262,0,0,1,310.3,426.272Z" transform="translate(-18.859 -238.537)" fill="#ff6584"/>
      <path id="Path_1093-2" data-name="Path 1093" d="M252.2,461.049c.579-.29,26.943-15.065,24.045-3.766C273.059,468.581,252.2,461.049,252.2,461.049Z" transform="translate(-6.528 -154.244)" opacity="0.1"/>
      <path id="Path_1094-2" data-name="Path 1094" d="M212.6,460.7s13.906,21.728,18.831,20.859S212.6,460.7,212.6,460.7Z" transform="translate(-81.652 -139.7)" opacity="0.1"/>
      <path id="Path_1095-2" data-name="Path 1095" d="M218.6,457.9s.869,16.8,8.112,17.961C234.244,477.31,218.6,457.9,218.6,457.9Z" transform="translate(-70.27 -145.011)" opacity="0.1"/>
      <path id="Path_1096-2" data-name="Path 1096" d="M245.3,476.6s17.382,28.681,13.906,38.821Z" transform="translate(-19.618 -109.536)" opacity="0.1"/>
      <path id="Path_1097-2" data-name="Path 1097" d="M252.2,477.8s23.466,30.709,19.41,33.316C267.554,513.434,252.2,477.8,252.2,477.8Z" transform="translate(-6.528 -107.26)" opacity="0.1"/>
      <path id="Path_1098-2" data-name="Path 1098" d="M234.276,460.7s-2.318,21.728,6.663,28.1Z" transform="translate(-41.041 -139.7)" opacity="0.1"/>
      <path id="Path_1099-2" data-name="Path 1099" d="M292.757,427.356s-39.979,31-33.606,63.446c6.374,32.158,12.747,34.765,12.747,34.765s2.318,13.037,6.663,18.252c4.346,5.5,3.766,8.981,3.766,8.981s4.056-1.738,5.5,7.532,8.4,15.934,8.4,15.934,2.318,7.532-3.766,11.588-4.635,8.4-4.635,8.4l-24.915,14.485,27.522,27.232h71.268s-2.028-3.476,2.318-8.691,2.318-25.2,2.318-25.2-2.607-3.187.579-10.43-2.607-27.522-2.607-27.522l-6.374-19.99s-5.215-14.2-4.346-21.728-1.738-15.934-1.738-15.934l-13.616-43.166C338.241,465.6,338.821,422.431,292.757,427.356Z" transform="translate(5.352 -203.698)" opacity="0.1"/>
      <path id="Path_1100-2" data-name="Path 1100" d="M293.257,427.356s-39.98,31-33.606,63.446,12.457,34.765,12.457,34.765,2.318,13.037,6.663,18.252c4.346,5.5,3.766,8.981,3.766,8.981s4.056-1.738,5.5,7.532,8.4,15.934,8.4,15.934,2.318,7.532-3.766,11.588-4.635,8.4-4.635,8.4l-24.915,14.485,27.812,27.232s19.737,6.518,39.236,7.268,32.032-7.268,32.032-7.268-2.028-3.476,2.318-8.691,2.318-25.2,2.318-25.2-2.607-3.187.58-10.43-2.608-27.522-2.608-27.522l-6.373-19.99s-5.215-14.2-4.346-21.728-1.738-15.934-1.738-15.934l-13.616-43.166C338.741,465.6,339.32,422.431,293.257,427.356Z" transform="translate(6.301 -203.698)" fill="#ff6584"/>
      <path id="Path_1101-2" data-name="Path 1101" d="M275.4,435.05s28.681,9.56,36.213,14.485S300.315,430.7,275.4,435.05Z" transform="translate(37.484 -189.373)" opacity="0.1"/>
      <path id="Path_1102-2" data-name="Path 1102" d="M280.6,485.4s40.559,5.215,38.241,13.037C316.234,506.549,280.6,485.4,280.6,485.4Z" transform="translate(47.349 -92.842)" opacity="0.1"/>
      <path id="Path_1103-2" data-name="Path 1103" d="M277.8,488.4s29.84,9.56,24.336,17.383C296.921,513.6,277.8,488.4,277.8,488.4Z" transform="translate(42.037 -87.151)" opacity="0.1"/>
      <path id="Path_1104-2" data-name="Path 1104" d="M390.686,527.249c-16.224,3.187-32.447,5.794-48.671,8.4l-4.346.579c-8.981,1.448-17.962,2.9-26.943,2.9a29.188,29.188,0,0,1-13.037-2.607,16.191,16.191,0,0,1-2.318-1.449,11.54,11.54,0,0,1-4.635-8.981c0-6.374,6.084-10.719,11.3-14.485,7.532-5.5,15.065-12.168,17.962-20.859a30.3,30.3,0,0,0,1.159-4.925c.869-7.243-1.738-14.486-4.635-21.438-3.187-7.243-7.243-15.355-13.616-19.7a23.54,23.54,0,0,0-8.4-3.477c-9.56-1.159-18.541,5.5-28.1,5.215-7.822-.29-14.485-5.215-19.121-11.3-3.476-4.345-5.5-10.14-10.719-12.457-5.5-2.9-11.878-3.477-17.962-4.346,8.981-35.924,45.484-57.362,81.408-48.381s57.362,45.484,48.381,81.408a70.582,70.582,0,0,1-15.934,29.261c0,.29.29.579.29.869a38.689,38.689,0,0,0,2.028,5.215s13.037-5.215,17.672-1.448l.869.869c0,.29.29.29.29.579,3.187,6.374,4.346,11.009,7.532,15.065a2.262,2.262,0,0,0,1.159,1.159c3.766,3.766,11.009,8.4,9.85,9.56-1.448,1.449,10.14,7.243,10.14,7.243S388.659,524.062,390.686,527.249Z" transform="translate(-70.27 -315.758)" opacity="0.1"/>
      <path id="Path_1105-2" data-name="Path 1105" d="M215.058,431.1c-6.084-7.822-5.5-18.831-3.187-28.391,1.448-6.084,3.476-12.168,7.243-17.093s10.14-8.112,16.224-7.243c3.476.579,6.953,2.318,10.14,3.766,15.355,6.084,34.185,1.159,44.325-11.878,2.318-2.9,4.346-6.084,6.953-8.691a25.273,25.273,0,0,1,10.719-5.5c17.093-4.345,34.765,4.056,49.54,14.2,12.457,8.4,24.335,18.251,32.737,31a73.675,73.675,0,0,1,11.878,38.821c.29,21.728-8.691,43.746-3.477,64.894,5.215,20.859,25.494,36.793,46.933,37.082-29.55,7.243-59.39,12.168-89.52,17.093-8.981,1.449-17.962,2.9-26.943,2.9a29.186,29.186,0,0,1-13.037-2.607c-4.056-2.028-7.243-6.084-7.243-10.43,0-6.373,6.084-10.719,11.3-14.485,8.981-6.373,17.962-14.775,19.121-25.784.869-7.243-1.738-14.485-4.635-21.438-4.346-10.429-11.009-21.728-22.018-23.176-9.56-1.159-18.541,5.5-28.1,5.215-7.822-.29-14.485-5.215-19.121-11.3-3.476-4.345-5.5-10.14-10.719-12.457C241.711,439.214,224.908,444.139,215.058,431.1Z" transform="translate(-86.138 -340.419)" fill="#945b79"/>
      <path id="Path_1106-2" data-name="Path 1106" d="M298.169,393.49a29.744,29.744,0,0,0,8.4-39.69,5.086,5.086,0,0,0,1.159,1.449,29.7,29.7,0,1,1-48.381,34.475c-.29-.29-.29-.579-.58-.869-.29-.579-.579-.869-.869-1.448A29.53,29.53,0,0,0,298.169,393.49Z" transform="translate(4.285 -342.497)" fill="#945b79"/>
      <g id="Group_164-2" data-name="Group 164" transform="translate(124.097 17.387)" opacity="0.1">
        <path id="Path_1107-2" data-name="Path 1107" d="M247.937,365.75c2.318-2.9,4.346-6.084,6.953-8.691.579-.29.869-.869,1.449-1.159a21.542,21.542,0,0,0-6.084,3.766c-2.607,2.607-4.635,5.794-6.953,8.691a34.813,34.813,0,0,1-8.4,7.532A36.984,36.984,0,0,0,247.937,365.75Z" transform="translate(-163.445 -355.9)"/>
        <path id="Path_1108-2" data-name="Path 1108" d="M360.2,540.311c-8.981,1.448-17.962,2.9-26.943,2.9a29.191,29.191,0,0,1-13.037-2.607c-4.056-2.028-7.243-6.084-6.953-10.43,0-6.373,6.084-10.719,11.3-14.485,8.981-6.374,17.962-14.775,19.121-25.784.869-7.243-1.738-14.485-4.635-21.438-4.346-10.43-11.009-21.728-22.018-23.176-9.56-1.159-18.541,5.5-28.1,5.214-7.822-.29-14.485-5.214-19.121-11.3-3.477-4.346-5.5-10.14-10.719-12.457-12.747-6.374-29.55-1.449-39.4-14.485-6.084-7.822-5.5-18.831-3.187-28.391,1.448-6.084,3.476-12.167,7.243-17.093a14.179,14.179,0,0,1,3.766-3.477,20.339,20.339,0,0,0-8.4,6.374c-4.056,4.925-5.794,11.009-7.243,17.093-2.318,9.56-2.9,20.569,3.187,28.391,9.85,12.747,26.653,8.112,39.4,14.485,5.215,2.607,7.243,8.4,10.719,12.747,4.635,5.794,11.3,11.009,19.121,11.3,9.56.29,18.541-6.374,28.1-5.215,11.009,1.448,17.672,13.037,22.018,23.177,2.9,6.663,5.5,13.906,4.635,21.438-1.159,11.009-10.14,19.411-19.121,25.784-5.215,3.767-11.3,8.112-11.3,14.486,0,4.346,3.187,8.4,7.243,10.429a28.417,28.417,0,0,0,13.037,2.608c8.981,0,18.252-1.449,26.943-2.9,29.84-4.925,59.97-9.85,89.52-17.093a31.471,31.471,0,0,1-5.215-.29C413.508,531.62,386.854,535.965,360.2,540.311Z" transform="translate(-210.235 -341.862)"/>
      </g>
    </g>
  </g>
</svg>
