<svg xmlns="http://www.w3.org/2000/svg" width="53" height="51.714" viewBox="0 0 53 51.714">
  <g id="Group_467" data-name="Group 467" transform="translate(-265 -1108)">
    <g id="Group_468" data-name="Group 468" transform="translate(265 1108)">
      <g id="calendar" transform="translate(0 0)">
        <path id="Subtraction_5" data-name="Subtraction 5" d="M24.151,31.551H3.424A3.431,3.431,0,0,1,0,28.122V0H43.832V12.436A15.228,15.228,0,0,0,24.151,31.549Z" transform="translate(0 11.122)" fill="#f2f2f2"/>
        <g id="Group_439" data-name="Group 439" transform="translate(0 1.093)">
          <path id="Path_1830" data-name="Path 1830" d="M40.12,22H3.4A3.533,3.533,0,0,0,0,25.644V32.2H43.52v-6.56A3.533,3.533,0,0,0,40.12,22ZM5.44,29.289a2.192,2.192,0,0,1,0-4.373,2.192,2.192,0,0,1,0,4.373Zm32.64,0A2.192,2.192,0,1,1,40.12,27.1,2.117,2.117,0,0,1,38.08,29.289Z" transform="translate(0 -22)" fill="#03bfa6"/>
        </g>
        <g id="Group_455" data-name="Group 455" transform="translate(5.831 15.706)">
          <g id="Group_440" data-name="Group 440" transform="translate(13.014)">
            <path id="Path_1831" data-name="Path 1831" d="M226.915,206a2.916,2.916,0,1,0,2.916,2.916A2.918,2.918,0,0,0,226.915,206Z" transform="translate(-224 -206)" fill="#fff"/>
          </g>
          <g id="Group_441" data-name="Group 441" transform="translate(6.507)">
            <path id="Path_1832" data-name="Path 1832" d="M146.915,206a2.916,2.916,0,1,0,2.916,2.916A2.918,2.918,0,0,0,146.915,206Z" transform="translate(-144 -206)" fill="#fff"/>
          </g>
          <g id="Group_442" data-name="Group 442">
            <path id="Path_1833" data-name="Path 1833" d="M66.916,206a2.916,2.916,0,1,0,2.916,2.916A2.918,2.918,0,0,0,66.916,206Z" transform="translate(-64 -206)" fill="#fff"/>
          </g>
          <g id="Group_443" data-name="Group 443" transform="translate(19.52)">
            <path id="Path_1834" data-name="Path 1834" d="M306.915,206a2.916,2.916,0,1,0,2.915,2.916A2.918,2.918,0,0,0,306.915,206Z" transform="translate(-304 -206)" fill="#fff"/>
          </g>
          <g id="Group_445" data-name="Group 445" transform="translate(13.014 7.289)">
            <path id="Path_1836" data-name="Path 1836" d="M226.915,286a2.916,2.916,0,1,0,2.916,2.915A2.918,2.918,0,0,0,226.915,286Z" transform="translate(-224 -286)" fill="#fff"/>
          </g>
          <g id="Group_446" data-name="Group 446" transform="translate(6.507 7.289)">
            <path id="Path_1837" data-name="Path 1837" d="M146.915,286a2.916,2.916,0,1,0,2.916,2.915A2.918,2.918,0,0,0,146.915,286Z" transform="translate(-144 -286)" fill="#fff"/>
          </g>
          <g id="Group_447" data-name="Group 447" transform="translate(0 7.289)">
            <path id="Path_1838" data-name="Path 1838" d="M66.916,286a2.916,2.916,0,1,0,2.916,2.915A2.918,2.918,0,0,0,66.916,286Z" transform="translate(-64 -286)" fill="#fff"/>
          </g>
          <g id="Group_451" data-name="Group 451" transform="translate(6.507 14.578)">
            <path id="Path_1842" data-name="Path 1842" d="M146.915,366a2.916,2.916,0,1,0,2.916,2.916A2.918,2.918,0,0,0,146.915,366Z" transform="translate(-144 -366)" fill="#fff"/>
          </g>
          <g id="Group_452" data-name="Group 452" transform="translate(0 14.578)">
            <path id="Path_1843" data-name="Path 1843" d="M66.916,366a2.916,2.916,0,1,0,2.916,2.916A2.918,2.918,0,0,0,66.916,366Z" transform="translate(-64 -366)" fill="#fff"/>
          </g>
          <g id="Group_454" data-name="Group 454" transform="translate(26.027 14.578)">
            <path id="Path_1845" data-name="Path 1845" d="M386.916,366a2.916,2.916,0,1,0,2.916,2.916A2.918,2.918,0,0,0,386.916,366Z" transform="translate(-384 -366)" fill="#fff"/>
          </g>
        </g>
        <g id="Group_457" data-name="Group 457" transform="translate(4.738)">
          <g id="Group_456" data-name="Group 456">
            <path id="Path_1846" data-name="Path 1846" d="M53.093,17.289A1.093,1.093,0,0,1,52,16.2v-5.1a1.093,1.093,0,1,1,2.187,0v5.1A1.093,1.093,0,0,1,53.093,17.289Z" transform="translate(-52 -10)" fill="#3f3d56"/>
          </g>
        </g>
        <g id="Group_459" data-name="Group 459" transform="translate(36.596)">
          <g id="Group_458" data-name="Group 458">
            <path id="Path_1847" data-name="Path 1847" d="M437.093,17.289A1.093,1.093,0,0,1,436,16.2v-5.1a1.093,1.093,0,1,1,2.187,0v5.1A1.093,1.093,0,0,1,437.093,17.289Z" transform="translate(-436 -10)" fill="#3f3d56"/>
          </g>
        </g>
        <g id="Group_460" data-name="Group 460" transform="translate(6.179 15.966)">
          <ellipse id="Ellipse_536" data-name="Ellipse 536" cx="2.472" cy="3.089" rx="2.472" ry="3.089" fill="#5674c6"/>
        </g>
      </g>
      <g id="clock" transform="translate(25.029 23.744)">
        <path id="Path_1823" data-name="Path 1823" d="M23.875,4.1A13.985,13.985,0,1,0,4.1,23.874,13.985,13.985,0,1,0,23.875,4.1Z" transform="translate(0 0)" fill="#5390f5"/>
        <path id="Path_1825" data-name="Path 1825" d="M70.585,59.872A10.715,10.715,0,1,0,81.3,70.587,10.727,10.727,0,0,0,70.585,59.872Z" transform="translate(-56.599 -56.601)" fill="#fff"/>
        <path id="Path_1827" data-name="Path 1827" d="M234.888,171.857h-5.539a.9.9,0,0,1-.9-.9v-5.587a.9.9,0,1,1,1.806,0v4.684h4.636a.9.9,0,1,1,0,1.806Z" transform="translate(-215.966 -155.478)" fill="#03bfa6"/>
      </g>
    </g>
  </g>
</svg>
