<svg xmlns="http://www.w3.org/2000/svg" width="53.128" height="53.128" viewBox="0 0 53.128 53.128">
  <path id="facebook" d="M45.971,0H7.161A7.159,7.159,0,0,0,0,7.159v38.81a7.159,7.159,0,0,0,7.159,7.159H26.3l.033-18.985H21.4a1.164,1.164,0,0,1-1.164-1.159l-.024-6.12A1.164,1.164,0,0,1,21.379,25.7H26.3V19.783c0-6.862,4.191-10.6,10.312-10.6h5.023A1.164,1.164,0,0,1,42.8,10.348v5.16a1.164,1.164,0,0,1-1.163,1.164H38.556c-3.329,0-3.974,1.582-3.974,3.9V25.7H41.9A1.164,1.164,0,0,1,43.053,27l-.725,6.12a1.164,1.164,0,0,1-1.156,1.027H34.615l-.033,18.985H45.971a7.159,7.159,0,0,0,7.159-7.159V7.159A7.159,7.159,0,0,0,45.971,0Z" transform="translate(-0.002)" fill="#3f3d56"/>
</svg>
