<svg xmlns="http://www.w3.org/2000/svg" viewBox="0 0 37.428 36.649">
  <defs>
    <style>
      .cls-1 {
        fill: #3f3d56;
      }
    </style>
  </defs>
  <g id="github" transform="translate(0 0)">
    <g id="Group_4" data-name="Group 4" transform="translate(0 0)">
      <path id="Path_3" data-name="Path 3" class="cls-1" d="M18.712,5.329A18.8,18.8,0,0,0,12.8,41.945c.936.173,1.277-.407,1.277-.905,0-.447-.016-1.628-.026-3.2-5.2,1.135-6.3-2.519-6.3-2.519A4.961,4.961,0,0,0,5.67,32.576c-1.7-1.165.126-1.142.126-1.142a3.93,3.93,0,0,1,2.866,1.937,3.977,3.977,0,0,0,5.448,1.56A4.011,4.011,0,0,1,15.3,32.42c-4.154-.475-8.524-2.087-8.524-9.284A7.283,7.283,0,0,1,8.7,18.092a6.77,6.77,0,0,1,.182-4.971s1.572-.505,5.146,1.925a17.664,17.664,0,0,1,9.371,0c3.572-2.43,5.142-1.925,5.142-1.925a6.78,6.78,0,0,1,.187,4.971,7.269,7.269,0,0,1,1.923,5.043c0,7.217-4.374,8.8-8.543,9.27a4.494,4.494,0,0,1,1.27,3.478c0,2.512-.023,4.538-.023,5.153,0,.5.337,1.088,1.287.9A18.8,18.8,0,0,0,18.712,5.329Z" transform="translate(0 -5.329)"/>
    </g>
  </g>
</svg>
