<svg xmlns="http://www.w3.org/2000/svg" width="52.513" height="52.513" viewBox="0 0 52.513 52.513">
  <path id="linkedin" d="M47.763,0H4.75A4.75,4.75,0,0,0,0,4.75V47.762a4.75,4.75,0,0,0,4.75,4.75H47.762a4.75,4.75,0,0,0,4.75-4.75V4.75A4.75,4.75,0,0,0,47.763,0ZM16.25,45.343a1.382,1.382,0,0,1-1.382,1.382H8.983A1.382,1.382,0,0,1,7.6,45.343V20.676a1.382,1.382,0,0,1,1.382-1.382h5.884a1.382,1.382,0,0,1,1.382,1.382ZM11.925,16.968a5.59,5.59,0,1,1,5.59-5.59A5.59,5.59,0,0,1,11.925,16.968ZM47,45.454a1.271,1.271,0,0,1-1.271,1.271H39.416a1.271,1.271,0,0,1-1.271-1.271V33.884c0-1.726.506-7.564-4.511-7.564-3.892,0-4.681,4-4.839,5.789V45.454a1.271,1.271,0,0,1-1.271,1.271H21.417a1.271,1.271,0,0,1-1.271-1.271V20.564a1.271,1.271,0,0,1,1.271-1.271h6.107A1.271,1.271,0,0,1,28.8,20.564v2.152c1.443-2.166,3.588-3.837,8.154-3.837C47.06,18.879,47,28.326,47,33.516V45.454Z" fill="#3f3d56"/>
</svg>
