<svg xmlns="http://www.w3.org/2000/svg" width="42" height="48.453" viewBox="0 0 42 48.453">
  <g id="placeholder" transform="translate(-29.78)">
    <path id="Path_1848" data-name="Path 1848" d="M50.78,0c-11.6,0-21,9.057-21,20.151,0,6.4,3.4,13.076,10.132,19.868a62.77,62.77,0,0,0,9.962,8.151,1.591,1.591,0,0,0,1.811,0,62.77,62.77,0,0,0,9.962-8.151C68.384,33.227,71.78,26.547,71.78,20.151,71.78,9.057,62.384,0,50.78,0Z" transform="translate(0)" fill="#3acfd5"/>
    <path id="Path_1849" data-name="Path 1849" d="M143.871,102.272a8.557,8.557,0,1,0-8.557-8.557A8.578,8.578,0,0,0,143.871,102.272Z" transform="translate(-93.091 -75.297)" fill="rgba(83,144,245,0.6)"/>
  </g>
</svg>
