<svg id="medium-seeklogo.com" xmlns="http://www.w3.org/2000/svg" width="53.196" height="53.197" viewBox="0 0 53.196 53.197">
  <path id="Exclusion_1" data-name="Exclusion 1" d="M53.2,53.2H0V0H53.2V53.2ZM33.28,19.931h0v16.24c0,.438,0,.517-.283.8l-2.886,2.8v.6H44.128v-.6l-2.787-2.735a.835.835,0,0,1-.318-.8V16.14a.835.835,0,0,1,.318-.8L44.194,12.6V12H34.317l-7.04,17.562L19.268,12H8.907v.6l3.336,4.02a1.387,1.387,0,0,1,.451,1.167v15.8a1.826,1.826,0,0,1-.485,1.568L8.457,39.708v.6H19.1v-.6l-3.754-4.554a1.873,1.873,0,0,1-.518-1.568V19.926l9.343,20.382h1.085Z" transform="translate(0 0)" fill="#3f3d56"/>
</svg>
