<svg id="twitter-logo-silhouette" xmlns="http://www.w3.org/2000/svg" width="61.821" height="50.217" viewBox="0 0 61.821 50.217">
  <g id="Group_3" data-name="Group 3" transform="translate(0)">
    <path id="Path_1" data-name="Path 1" d="M61.823,63.382a25.326,25.326,0,0,1-7.282,2,12.735,12.735,0,0,0,5.574-7.012,25.567,25.567,0,0,1-8.059,3.079,12.692,12.692,0,0,0-21.61,11.562A36.005,36.005,0,0,1,4.308,59.759,12.7,12.7,0,0,0,8.233,76.687,12.683,12.683,0,0,1,2.489,75.1v.158A12.7,12.7,0,0,0,12.66,87.689a12.846,12.846,0,0,1-3.342.444A12.171,12.171,0,0,1,6.931,87.9a12.689,12.689,0,0,0,11.844,8.808,25.445,25.445,0,0,1-15.75,5.42A26.953,26.953,0,0,1,0,101.952a35.848,35.848,0,0,0,19.439,5.706c23.329,0,36.082-19.323,36.082-36.082l-.043-1.642A25.325,25.325,0,0,0,61.823,63.382Z" transform="translate(-0.001 -57.441)" fill="#3f3d56"/>
  </g>
</svg>
