<svg xmlns="http://www.w3.org/2000/svg" width="53" height="47.878" viewBox="0 0 53 47.878">
  <g id="domain_1_" data-name="domain (1)" transform="translate(0 0.001)">
    <path id="Path_1792" data-name="Path 1792" d="M73.445,23.939a24.351,24.351,0,0,1-48.695,0,24.351,24.351,0,0,1,48.695,0Zm0,0" transform="translate(-22.597 -0.001)" fill="#80e0dc"/>
    <path id="Path_1793" data-name="Path 1793" d="M214.067,25.72c0,13.23-9,23.955-20.113,23.955a17.154,17.154,0,0,1-5.911-1.051,17.122,17.122,0,0,0,2.637.2c11.108,0,20.113-10.725,20.113-23.955,0-10.781-5.979-19.9-14.2-22.9,9.862,1.538,17.476,11.586,17.476,23.751Zm0,0" transform="translate(-163.219 -1.799)" fill="#00a8b0"/>
    <path id="Path_1794" data-name="Path 1794" d="M100.388,35.537a28.653,28.653,0,0,0,1.734-17.794,29.224,29.224,0,0,0-1.745-5.4q1.686-.334,3.305-.759a33.477,33.477,0,0,0,4.245-1.37q-.5-.676-1.05-1.317a33.926,33.926,0,0,1-3.647,1.144q-1.737.456-3.557.8A29.02,29.02,0,0,0,90.476.2h0Q89.839.12,89.195.072,88.254,0,87.294,0h-.169q-.959,0-1.9.072Q84.578.12,83.943.2h0A29.009,29.009,0,0,0,74.7,10.932,37.789,37.789,0,0,1,67.54,8.9q-.548.641-1.047,1.316A38.71,38.71,0,0,0,74,12.433a29.21,29.21,0,0,0-1.707,5.31,28.658,28.658,0,0,0,1.694,17.7,38.633,38.633,0,0,0-7.5,2.214q.5.676,1.047,1.316A37.76,37.76,0,0,1,74.7,36.945a27.68,27.68,0,0,0,2.756,4.34,32.333,32.333,0,0,0,6.546,6.4q.61.072,1.23.118c.622.045,1.252.069,1.887.07H87.3c.635,0,1.265-.025,1.887-.07q.619-.047,1.23-.118a32.355,32.355,0,0,0,6.546-6.4,27.722,27.722,0,0,0,2.712-4.253q1.819.348,3.559.8a33.832,33.832,0,0,1,3.647,1.144q.55-.641,1.05-1.317a33.6,33.6,0,0,0-4.244-1.37q-1.614-.425-3.294-.756Zm.079-17.468A27.114,27.114,0,0,1,98.69,35.226q-2.369-.4-4.857-.618a63.664,63.664,0,0,0,.632-16.434c-.151-1.688-.366-3.328-.641-4.9q2.486-.221,4.858-.618a27.785,27.785,0,0,1,1.785,5.418Zm-13.257,29.7a28.032,28.032,0,0,1-3.407-7.2,41.38,41.38,0,0,1-1.216-4.511c1.35-.069,2.648-.1,3.869-.118q2.745-.035,5.376.126a41.569,41.569,0,0,1-1.215,4.5,28.031,28.031,0,0,1-3.407,7.2Zm-.778-13.428c-1.308.017-2.7.053-4.157.133a62.054,62.054,0,0,1-.637-16.161c.152-1.692.369-3.332.646-4.9,1.451.079,2.843.115,4.148.132q.516.007,1.027.006,2.38,0,4.675-.147c.278,1.573.495,3.216.647,4.911a62.04,62.04,0,0,1-.639,16.17q-2.792-.18-5.71-.141ZM87.209.106a31.346,31.346,0,0,1,4.619,11.705q-2.626.161-5.373.126c-1.22-.016-2.516-.049-3.866-.118A31.337,31.337,0,0,1,87.209.106Zm8.6,7.607a27.393,27.393,0,0,1,2.139,3.433q-2.161.346-4.424.54a38.973,38.973,0,0,0-3.155-9.542,27.186,27.186,0,0,1,5.439,5.568Zm-17.2,0A27.187,27.187,0,0,1,84.05,2.145a39,39,0,0,0-3.16,9.567c-1.45-.107-2.946-.262-4.459-.49a27.449,27.449,0,0,1,2.179-3.509ZM73.952,18.069a27.73,27.73,0,0,1,1.75-5.338c1.661.265,3.3.443,4.888.565-.273,1.568-.487,3.2-.637,4.878a63.675,63.675,0,0,0,.628,16.407c-1.587.122-3.228.3-4.889.565a27.114,27.114,0,0,1-1.741-17.077Zm4.872,22.268a26.267,26.267,0,0,1-2.386-3.683c1.509-.227,3-.383,4.447-.49a43.094,43.094,0,0,0,1.305,4.888,37.96,37.96,0,0,0,1.873,4.628,31.211,31.211,0,0,1-5.239-5.343Zm16.77,0a31.212,31.212,0,0,1-5.239,5.343,37.989,37.989,0,0,0,1.873-4.628,43.221,43.221,0,0,0,1.3-4.862q2.256.2,4.411.539a26.192,26.192,0,0,1-2.346,3.608Zm0,0" transform="translate(-60.709)" fill="#00a8b0"/>
    <path id="Path_1795" data-name="Path 1795" d="M51.818,205.264H1.182A1.1,1.1,0,0,1,0,204.27v-6.055a1.1,1.1,0,0,1,1.182-.993H51.818a1.1,1.1,0,0,1,1.182.993v6.055A1.1,1.1,0,0,1,51.818,205.264Zm0,0" transform="translate(0 -175.992)" fill="#e7e7e7"/>
    <g id="Group_437" data-name="Group 437" transform="translate(4.337 22.961)">
      <path id="Path_1796" data-name="Path 1796" d="M50.481,221.607c0,.1-.144.2-.313.2s-.308-.1-.308-.2v-3.234c0-.116.125-.193.308-.193s.313.077.313.193v1.48a.661.661,0,0,1,.607-.366.927.927,0,0,1,.829.978v1.142c0,.13-.159.2-.313.2s-.308-.068-.308-.2v-1.142a.446.446,0,0,0-.42-.434.41.41,0,0,0-.4.434Zm0,0" transform="translate(-49.859 -218.088)" fill="#5a5a5a"/>
      <path id="Path_1797" data-name="Path 1797" d="M82.739,224.312c0,.188.068.255.27.255H83.2a.263.263,0,1,1,0,.525h-.188c-.579,0-.892-.236-.892-.781v-2.338c0-.116.164-.193.308-.193s.313.077.313.193v.829h.569c.1,0,.159.116.159.227s-.058.226-.159.226h-.569Zm0,0" transform="translate(-79.312 -221.377)" fill="#5a5a5a"/>
      <path id="Path_1798" data-name="Path 1798" d="M105.3,224.312c0,.188.067.255.27.255h.188a.263.263,0,1,1,0,.525h-.188c-.579,0-.892-.236-.892-.781v-2.338c0-.116.164-.193.308-.193s.313.077.313.193v.829h.569c.1,0,.159.116.159.227s-.058.226-.159.226H105.3Zm0,0" transform="translate(-99.908 -221.377)" fill="#5a5a5a"/>
      <path id="Path_1799" data-name="Path 1799" d="M127.927,233.421v.144a.758.758,0,0,1,.651-.366.926.926,0,0,1,.863.978v.4a.957.957,0,0,1-.843.988.717.717,0,0,1-.632-.381v1.205c0,.1-.145.2-.318.2s-.3-.1-.3-.2v-2.965c0-.115.13-.193.294-.193S127.927,233.305,127.927,233.421Zm.892.757a.452.452,0,0,0-.439-.434.422.422,0,0,0-.414.434v.482a.469.469,0,0,0,.424.357.46.46,0,0,0,.429-.444Zm0,0" transform="translate(-120.605 -231.801)" fill="#5a5a5a"/>
      <path id="Path_1800" data-name="Path 1800" d="M159.093,234.881c0-.424-1.142-.159-1.142-.964,0-.342.217-.718.863-.718.39,0,.766.135.766.313,0,.087-.082.3-.227.3-.116,0-.265-.14-.53-.14-.241,0-.337.12-.337.217,0,.352,1.157.111,1.157.969,0,.429-.318.7-.887.7-.492,0-.872-.2-.872-.414,0-.1.087-.275.207-.275.14,0,.246.217.651.217C159.025,235.089,159.093,234.978,159.093,234.881Zm0,0" transform="translate(-148.487 -231.801)" fill="#5a5a5a"/>
      <path id="Path_1801" data-name="Path 1801" d="M185.968,236.8a.334.334,0,0,1-.323.328.328.328,0,1,1,.323-.328Zm0,1.408a.334.334,0,0,1-.323.328.328.328,0,1,1,.323-.328Zm0,0" transform="translate(-173.535 -234.786)" fill="#5a5a5a"/>
      <path id="Path_1802" data-name="Path 1802" d="M201.676,217.346a.187.187,0,0,1-.019.087l-1.73,3.5a.209.209,0,0,1-.188.106.225.225,0,0,1-.231-.212.164.164,0,0,1,.024-.082l1.731-3.514a.187.187,0,0,1,.173-.1A.234.234,0,0,1,201.676,217.346Zm0,0" transform="translate(-186.492 -217.129)" fill="#5a5a5a"/>
      <path id="Path_1803" data-name="Path 1803" d="M218.415,217.346a.191.191,0,0,1-.019.087l-1.731,3.5a.209.209,0,0,1-.188.106.225.225,0,0,1-.231-.212.161.161,0,0,1,.024-.082L218,217.23a.188.188,0,0,1,.174-.1A.234.234,0,0,1,218.415,217.346Zm0,0" transform="translate(-201.775 -217.129)" fill="#5a5a5a"/>
      <path id="Path_1804" data-name="Path 1804" d="M246.859,235.509c-.034.082-.14.111-.246.111s-.227-.038-.255-.111l-.371-1.051-.366,1.046c-.029.077-.144.116-.265.116a.242.242,0,0,1-.241-.116l-.742-1.9a.2.2,0,0,1-.024-.091c0-.15.241-.255.4-.255a.177.177,0,0,1,.178.1l.482,1.369.361-1.19c.034-.111.116-.125.212-.125s.178.014.212.125l.357,1.2.487-1.374a.179.179,0,0,1,.179-.1c.154,0,.4.106.4.26a.178.178,0,0,1-.019.087Zm0,0" transform="translate(-227.432 -231.851)" fill="#5a5a5a"/>
      <path id="Path_1805" data-name="Path 1805" d="M288.593,235.509c-.034.082-.14.111-.246.111s-.226-.038-.256-.111l-.371-1.051-.367,1.046c-.029.077-.144.116-.265.116a.241.241,0,0,1-.241-.116l-.742-1.9a.2.2,0,0,1-.024-.091c0-.15.241-.255.4-.255a.176.176,0,0,1,.178.1l.482,1.369.361-1.19c.034-.111.116-.125.212-.125s.178.014.212.125l.357,1.2.487-1.374a.178.178,0,0,1,.178-.1c.154,0,.4.106.4.26a.175.175,0,0,1-.019.087Zm0,0" transform="translate(-265.536 -231.851)" fill="#5a5a5a"/>
      <path id="Path_1806" data-name="Path 1806" d="M330.327,235.509c-.034.082-.14.111-.246.111s-.227-.038-.255-.111l-.371-1.051-.366,1.046c-.029.077-.145.116-.265.116a.241.241,0,0,1-.241-.116l-.742-1.9a.2.2,0,0,1-.024-.091c0-.15.241-.255.4-.255a.176.176,0,0,1,.178.1l.482,1.369.361-1.19c.034-.111.116-.125.212-.125s.178.014.212.125l.357,1.2.487-1.374a.179.179,0,0,1,.178-.1c.154,0,.4.106.4.26a.178.178,0,0,1-.019.087Zm0,0" transform="translate(-303.641 -231.851)" fill="#5a5a5a"/>
    </g>
    <path id="Path_1807" data-name="Path 1807" d="M418.5,204.349h-7.819v-8.162H418.5a.993.993,0,0,1,.993.993v6.175A.993.993,0,0,1,418.5,204.349Zm0,0" transform="translate(-366.495 -175.052)" fill="#c9f0ff"/>
    <path id="Path_1808" data-name="Path 1808" d="M439.1,219.631l.4.816a.338.338,0,0,0,.253.184l.9.131a.337.337,0,0,1,.187.574l-.652.635a.336.336,0,0,0-.1.3l.154.9a.337.337,0,0,1-.488.355l-.806-.424a.338.338,0,0,0-.313,0l-.806.424a.337.337,0,0,1-.488-.355l.154-.9a.337.337,0,0,0-.1-.3l-.652-.635a.337.337,0,0,1,.186-.574l.9-.131a.337.337,0,0,0,.253-.184l.4-.816A.337.337,0,0,1,439.1,219.631Zm0,0" transform="translate(-390.208 -196.313)" fill="#ffd86e"/>
    <path id="Path_1809" data-name="Path 1809" d="M487.856,205.264h-1.212v-8.041h1.212a.993.993,0,0,1,.993.993v6.055A.993.993,0,0,1,487.856,205.264Zm0,0" transform="translate(-435.85 -175.992)" fill="#9ae7fd"/>
  </g>
</svg>
