<?xml version="1.0" encoding="utf-8"?>
<svg viewBox="105.175 192.821 543.406 86.812" xmlns="http://www.w3.org/2000/svg">
  <g transform="matrix(1, 0, 0, 1, 78.130386, -66.807747)">
    <g>
      <path class="st0" d="M209.2,301.6c0,5.2-1.5,9.4-4.6,12.5c-3.5,3.7-8,5.5-13.7,5.5c-5.4,0-10-1.9-13.8-5.6 c-3.8-3.8-5.6-8.4-5.6-13.9c0-5.5,1.9-10.1,5.6-13.9c3.8-3.8,8.3-5.6,13.8-5.6c2.7,0,5.3,0.5,7.8,1.5c2.4,1,4.4,2.3,6,4.1 l-3.4,3.4c-1.1-1.4-2.6-2.5-4.5-3.3c-1.8-0.8-3.8-1.2-5.9-1.2c-4.1,0-7.5,1.4-10.3,4.2c-2.8,2.9-4.2,6.4-4.2,10.7 s1.4,7.8,4.2,10.7c2.8,2.8,6.3,4.2,10.3,4.2c3.7,0,6.8-1,9.3-3.1c2.5-2.1,3.9-5,4.3-8.6h-13.6v-4.5H209 C209.1,299.8,209.2,300.7,209.2,301.6z" style="fill: rgb(103, 108, 114);"/>
      <path class="st0" d="M215.1,318.8v-37.3h11.4c5.7,0,10.3,1.7,13.7,5.2c3.5,3.4,5.2,7.9,5.2,13.5c0,5.6-1.7,10.1-5.2,13.5 c-3.5,3.4-8,5.1-13.7,5.1H215.1z M219.9,286.1v28.1h6.6c4.3,0,7.8-1.2,10.3-3.7c2.5-2.5,3.8-5.9,3.8-10.3c0-4.4-1.3-7.8-3.8-10.3 c-2.5-2.5-5.9-3.8-10.3-3.8H219.9z" style="fill: rgb(103, 108, 114);"/>
      <path class="st0" d="M287,301.6c0,5.2-1.5,9.4-4.6,12.5c-3.5,3.7-8,5.5-13.7,5.5c-5.4,0-10-1.9-13.8-5.6 c-3.8-3.8-5.6-8.4-5.6-13.9c0-5.5,1.9-10.1,5.6-13.9c3.8-3.8,8.3-5.6,13.8-5.6c2.7,0,5.3,0.5,7.8,1.5c2.4,1,4.4,2.3,6,4.1 l-3.4,3.4c-1.1-1.4-2.6-2.5-4.5-3.3c-1.8-0.8-3.8-1.2-5.9-1.2c-4.1,0-7.5,1.4-10.3,4.2c-2.8,2.9-4.2,6.4-4.2,10.7 s1.4,7.8,4.2,10.7c2.8,2.8,6.3,4.2,10.3,4.2c3.7,0,6.8-1,9.3-3.1c2.5-2.1,3.9-5,4.3-8.6h-13.6v-4.5h18.1 C286.9,299.8,287,300.7,287,301.6z" style="fill: rgb(103, 108, 114);"/>
      <path class="st0" d="M304.9,318.8h-5.3l14.1-37.3h5.4l14.1,37.3h-5.3l-3.6-10.1h-15.7L304.9,318.8z M316.3,287.4l-6.1,16.8h12.4 l-6.1-16.8H316.3z" style="fill: rgb(103, 108, 114);"/>
      <path class="st0" d="M341.5,281.5v37.3h-4.8v-37.3H341.5z" style="fill: rgb(103, 108, 114);"/>
      <path class="st0" d="M358.4,330.9c-1.4,0-2.8-0.2-4-0.5c-1.3-0.4-2.4-0.9-3.4-1.5c-1-0.7-1.9-1.4-2.6-2.3c-0.7-0.9-1.3-1.9-1.7-3 l4.5-1.9c0.5,1.5,1.4,2.7,2.7,3.6c1.3,0.9,2.8,1.4,4.5,1.4c2.6,0,4.6-0.8,6.1-2.3c1.5-1.6,2.2-3.7,2.2-6.5v-2.4h-0.2 c-0.9,1.4-2.1,2.4-3.7,3.2c-1.5,0.8-3.2,1.2-5,1.2c-3.3,0-6.2-1.3-8.6-3.9c-2.4-2.7-3.5-5.9-3.5-9.7c0-3.8,1.2-7,3.5-9.6 c2.4-2.6,5.3-4,8.6-4c1.8,0,3.5,0.4,5,1.2c1.5,0.8,2.8,1.9,3.7,3.2h0.2v-3.5h4.6v24.4c0,4.1-1.2,7.3-3.5,9.6 C365.4,329.7,362.3,330.9,358.4,330.9z M358.6,315.2c2.4,0,4.3-0.9,5.8-2.6c1.6-1.7,2.3-3.9,2.3-6.7c0-2.7-0.8-4.9-2.3-6.6 c-1.5-1.7-3.5-2.6-5.8-2.6c-2.3,0-4.2,0.9-5.8,2.6c-1.6,1.7-2.3,3.9-2.3,6.6c0,2.7,0.8,4.9,2.3,6.6 C354.4,314.4,356.3,315.2,358.6,315.2z" style="fill: rgb(103, 108, 114);"/>
      <path class="st0" d="M383.3,284.4c0,0.9-0.3,1.7-1,2.4c-0.7,0.7-1.5,1-2.4,1c-0.9,0-1.7-0.3-2.4-1c-0.7-0.7-1-1.5-1-2.4 c0-0.9,0.3-1.7,1-2.4c0.7-0.7,1.5-1,2.4-1c0.9,0,1.7,0.3,2.4,1C383,282.7,383.3,283.5,383.3,284.4z M382.3,293.2v25.5h-4.8v-25.5 H382.3z" style="fill: rgb(103, 108, 114);"/>
      <path class="st0" d="M399.8,319.6c-3.8,0-6.8-1.3-9.3-3.9c-2.4-2.6-3.6-5.8-3.6-9.7c0-3.9,1.2-7.1,3.5-9.7 c2.4-2.6,5.4-3.9,9.1-3.9c3.8,0,6.8,1.2,9,3.7c2.2,2.4,3.4,5.9,3.4,10.3l-0.1,0.5h-20.1c0.1,2.5,0.9,4.5,2.5,6 c1.6,1.5,3.5,2.3,5.7,2.3c3.1,0,5.5-1.5,7.2-4.6l4.3,2.1c-1.1,2.2-2.7,3.8-4.8,5.1C404.7,319,402.4,319.6,399.8,319.6z M392.1,302.9h14.6c-0.1-1.8-0.9-3.2-2.2-4.4c-1.3-1.2-3-1.7-5.2-1.7c-1.8,0-3.4,0.6-4.7,1.7C393.4,299.6,392.6,301.1,392.1,302.9 z" style="fill: rgb(103, 108, 114);"/>
      <path class="st0" d="M421.1,318.8h-4.8v-25.5h4.6v4.2h0.2c0.5-1.4,1.5-2.5,3-3.5c1.5-1,3-1.4,4.5-1.4c1.4,0,2.6,0.2,3.5,0.6 l-1.5,4.6c-0.6-0.2-1.5-0.4-2.8-0.4c-1.8,0-3.4,0.7-4.7,2.2c-1.3,1.5-2,3.2-2,5.1V318.8z" style="fill: rgb(103, 108, 114);"/>
      <path class="st0" d="M453.7,311.7c0,2.2-1,4.1-2.9,5.6c-1.9,1.5-4.4,2.3-7.3,2.3c-2.6,0-4.8-0.7-6.8-2c-1.9-1.3-3.3-3.1-4.2-5.3 l4.3-1.8c0.6,1.5,1.5,2.7,2.7,3.6c1.2,0.9,2.5,1.3,3.9,1.3c1.5,0,2.8-0.3,3.8-1c1-0.7,1.5-1.4,1.5-2.3c0-1.6-1.3-2.8-3.8-3.6 l-4.4-1.1c-5-1.3-7.5-3.6-7.5-7.2c0-2.3,0.9-4.2,2.8-5.6c1.9-1.4,4.3-2.1,7.3-2.1c2.3,0,4.3,0.5,6.1,1.6c1.8,1.1,3.1,2.5,3.8,4.3 l-4.3,1.8c-0.5-1.1-1.3-1.9-2.4-2.5c-1.1-0.6-2.3-0.9-3.7-0.9c-1.3,0-2.4,0.3-3.4,0.9c-1,0.6-1.5,1.4-1.5,2.3 c0,1.5,1.4,2.5,4.1,3.1l3.9,1C451.2,305.3,453.7,307.8,453.7,311.7z" style="fill: rgb(103, 108, 114);"/>
    </g>
    <g>
      <path class="st0" d="M209.2,301.6c0,5.2-1.5,9.4-4.6,12.5c-3.5,3.7-8,5.5-13.7,5.5c-5.4,0-10-1.9-13.8-5.6 c-3.8-3.8-5.6-8.4-5.6-13.9c0-5.5,1.9-10.1,5.6-13.9c3.8-3.8,8.3-5.6,13.8-5.6c2.7,0,5.3,0.5,7.8,1.5c2.4,1,4.4,2.3,6,4.1 l-3.4,3.4c-1.1-1.4-2.6-2.5-4.5-3.3c-1.8-0.8-3.8-1.2-5.9-1.2c-4.1,0-7.5,1.4-10.3,4.2c-2.8,2.9-4.2,6.4-4.2,10.7 s1.4,7.8,4.2,10.7c2.8,2.8,6.3,4.2,10.3,4.2c3.7,0,6.8-1,9.3-3.1c2.5-2.1,3.9-5,4.3-8.6h-13.6v-4.5H209 C209.1,299.8,209.2,300.7,209.2,301.6z" style="fill: rgb(103, 108, 114);"/>
      <path class="st0" d="M215.1,318.8v-37.3h11.4c5.7,0,10.3,1.7,13.7,5.2c3.5,3.4,5.2,7.9,5.2,13.5c0,5.6-1.7,10.1-5.2,13.5 c-3.5,3.4-8,5.1-13.7,5.1H215.1z M219.9,286.1v28.1h6.6c4.3,0,7.8-1.2,10.3-3.7c2.5-2.5,3.8-5.9,3.8-10.3c0-4.4-1.3-7.8-3.8-10.3 c-2.5-2.5-5.9-3.8-10.3-3.8H219.9z" style="fill: rgb(103, 108, 114);"/>
      <path class="st0" d="M287,301.6c0,5.2-1.5,9.4-4.6,12.5c-3.5,3.7-8,5.5-13.7,5.5c-5.4,0-10-1.9-13.8-5.6 c-3.8-3.8-5.6-8.4-5.6-13.9c0-5.5,1.9-10.1,5.6-13.9c3.8-3.8,8.3-5.6,13.8-5.6c2.7,0,5.3,0.5,7.8,1.5c2.4,1,4.4,2.3,6,4.1 l-3.4,3.4c-1.1-1.4-2.6-2.5-4.5-3.3c-1.8-0.8-3.8-1.2-5.9-1.2c-4.1,0-7.5,1.4-10.3,4.2c-2.8,2.9-4.2,6.4-4.2,10.7 s1.4,7.8,4.2,10.7c2.8,2.8,6.3,4.2,10.3,4.2c3.7,0,6.8-1,9.3-3.1c2.5-2.1,3.9-5,4.3-8.6h-13.6v-4.5h18.1 C286.9,299.8,287,300.7,287,301.6z" style="fill: rgb(103, 108, 114);"/>
      <path class="st0" d="M304.9,318.8h-5.3l14.1-37.3h5.4l14.1,37.3h-5.3l-3.6-10.1h-15.7L304.9,318.8z M316.3,287.4l-6.1,16.8h12.4 l-6.1-16.8H316.3z" style="fill: rgb(103, 108, 114);"/>
      <path class="st0" d="M341.5,281.5v37.3h-4.8v-37.3H341.5z" style="fill: rgb(103, 108, 114);"/>
      <path class="st0" d="M358.4,330.9c-1.4,0-2.8-0.2-4-0.5c-1.3-0.4-2.4-0.9-3.4-1.5c-1-0.7-1.9-1.4-2.6-2.3c-0.7-0.9-1.3-1.9-1.7-3 l4.5-1.9c0.5,1.5,1.4,2.7,2.7,3.6c1.3,0.9,2.8,1.4,4.5,1.4c2.6,0,4.6-0.8,6.1-2.3c1.5-1.6,2.2-3.7,2.2-6.5v-2.4h-0.2 c-0.9,1.4-2.1,2.4-3.7,3.2c-1.5,0.8-3.2,1.2-5,1.2c-3.3,0-6.2-1.3-8.6-3.9c-2.4-2.7-3.5-5.9-3.5-9.7c0-3.8,1.2-7,3.5-9.6 c2.4-2.6,5.3-4,8.6-4c1.8,0,3.5,0.4,5,1.2c1.5,0.8,2.8,1.9,3.7,3.2h0.2v-3.5h4.6v24.4c0,4.1-1.2,7.3-3.5,9.6 C365.4,329.7,362.3,330.9,358.4,330.9z M358.6,315.2c2.4,0,4.3-0.9,5.8-2.6c1.6-1.7,2.3-3.9,2.3-6.7c0-2.7-0.8-4.9-2.3-6.6 c-1.5-1.7-3.5-2.6-5.8-2.6c-2.3,0-4.2,0.9-5.8,2.6c-1.6,1.7-2.3,3.9-2.3,6.6c0,2.7,0.8,4.9,2.3,6.6 C354.4,314.4,356.3,315.2,358.6,315.2z" style="fill: rgb(103, 108, 114);"/>
      <path class="st0" d="M383.3,284.4c0,0.9-0.3,1.7-1,2.4c-0.7,0.7-1.5,1-2.4,1c-0.9,0-1.7-0.3-2.4-1c-0.7-0.7-1-1.5-1-2.4 c0-0.9,0.3-1.7,1-2.4c0.7-0.7,1.5-1,2.4-1c0.9,0,1.7,0.3,2.4,1C383,282.7,383.3,283.5,383.3,284.4z M382.3,293.2v25.5h-4.8v-25.5 H382.3z" style="fill: rgb(103, 108, 114);"/>
      <path class="st0" d="M399.8,319.6c-3.8,0-6.8-1.3-9.3-3.9c-2.4-2.6-3.6-5.8-3.6-9.7c0-3.9,1.2-7.1,3.5-9.7 c2.4-2.6,5.4-3.9,9.1-3.9c3.8,0,6.8,1.2,9,3.7c2.2,2.4,3.4,5.9,3.4,10.3l-0.1,0.5h-20.1c0.1,2.5,0.9,4.5,2.5,6 c1.6,1.5,3.5,2.3,5.7,2.3c3.1,0,5.5-1.5,7.2-4.6l4.3,2.1c-1.1,2.2-2.7,3.8-4.8,5.1C404.7,319,402.4,319.6,399.8,319.6z M392.1,302.9h14.6c-0.1-1.8-0.9-3.2-2.2-4.4c-1.3-1.2-3-1.7-5.2-1.7c-1.8,0-3.4,0.6-4.7,1.7C393.4,299.6,392.6,301.1,392.1,302.9 z" style="fill: rgb(103, 108, 114);"/>
      <path class="st0" d="M421.1,318.8h-4.8v-25.5h4.6v4.2h0.2c0.5-1.4,1.5-2.5,3-3.5c1.5-1,3-1.4,4.5-1.4c1.4,0,2.6,0.2,3.5,0.6 l-1.5,4.6c-0.6-0.2-1.5-0.4-2.8-0.4c-1.8,0-3.4,0.7-4.7,2.2c-1.3,1.5-2,3.2-2,5.1V318.8z" style="fill: rgb(103, 108, 114);"/>
      <path class="st0" d="M453.7,311.7c0,2.2-1,4.1-2.9,5.6c-1.9,1.5-4.4,2.3-7.3,2.3c-2.6,0-4.8-0.7-6.8-2c-1.9-1.3-3.3-3.1-4.2-5.3 l4.3-1.8c0.6,1.5,1.5,2.7,2.7,3.6c1.2,0.9,2.5,1.3,3.9,1.3c1.5,0,2.8-0.3,3.8-1c1-0.7,1.5-1.4,1.5-2.3c0-1.6-1.3-2.8-3.8-3.6 l-4.4-1.1c-5-1.3-7.5-3.6-7.5-7.2c0-2.3,0.9-4.2,2.8-5.6c1.9-1.4,4.3-2.1,7.3-2.1c2.3,0,4.3,0.5,6.1,1.6c1.8,1.1,3.1,2.5,3.8,4.3 l-4.3,1.8c-0.5-1.1-1.3-1.9-2.4-2.5c-1.1-0.6-2.3-0.9-3.7-0.9c-1.3,0-2.4,0.3-3.4,0.9c-1,0.6-1.5,1.4-1.5,2.3 c0,1.5,1.4,2.5,4.1,3.1l3.9,1C451.2,305.3,453.7,307.8,453.7,311.7z" style="fill: rgb(103, 108, 114);"/>
    </g>
    <g id="Group_2_" transform="translate(44.000000, 143.000000)">
      <path id="Rectangle-Copy_2_" class="st1" d="M32.6,132.2l-30,17.3c-4.1,2.4-5.5,7.6-3.1,11.7l0,0c2.4,4.1,7.6,5.5,11.7,3.1 l30-17.3c4.1-2.4,5.5-7.6,3.1-11.7l0,0C42,131.2,36.7,129.8,32.6,132.2z" style="clip-rule: evenodd; fill: rgb(234, 67, 52); fill-rule: evenodd;"/>
      <path id="Rectangle-Copy-2_2_" class="st2" d="M41,167l-30-17.3c-4.1-2.4-9.4-1-11.7,3.1l0,0c-2.4,4.1-1,9.4,3.1,11.7l30,17.3 c4.1,2.4,9.4,1,11.7-3.1l0,0C46.5,174.6,45.1,169.3,41,167z" style="clip-rule: evenodd; fill: rgb(66, 133, 244); fill-rule: evenodd;"/>
      <path id="Rectangle_2_" class="st3" d="M61,167.3l30-17.3c4.1-2.4,9.4-1,11.7,3.1l0,0c2.4,4.1,1,9.4-3.1,11.7l-30,17.3 c-4.1,2.4-9.4,1-11.7-3.1l0,0C55.5,174.9,56.9,169.6,61,167.3z" style="clip-rule: evenodd; fill: rgb(252, 188, 5); fill-rule: evenodd;"/>
      <path class="st4" d="M69.9,132.5l30,17.3c4.1,2.4,5.5,7.6,3.1,11.7l0,0c-2.4,4.1-7.6,5.5-11.7,3.1l-30-17.3 c-4.1-2.4-5.5-7.6-3.1-11.7l0,0C60.5,131.5,65.8,130.1,69.9,132.5z" style="clip-rule: evenodd; fill: rgb(13, 157, 88); fill-rule: evenodd;"/>
    </g>
    <path class="st0" d="M560.1,331.5h-19.3c-10.9-4.8-19.3-13.1-25.3-24.8c0.1-0.2,0.1-0.4,0-0.6c-1.4-10.5-1.8-23.2-1-35.7 c0.1-0.8-0.6-1.6-1.4-1.6c-0.8-0.1-1.6,0.6-1.6,1.4c-0.6,9.4-0.5,19,0.1,27.6c-1.3-3.7-2.5-7.6-3.4-11.8c0-0.1,0-0.2-0.1-0.2 c0.5-5.5,1.3-11.3,2.6-17.3c0.2-0.8-0.4-1.6-1.2-1.8c-0.8-0.2-1.6,0.4-1.8,1.2c-0.9,4.2-1.6,8.3-2.1,12.3c-0.3,0.1-0.5,0.4-0.7,0.6 c-1.5-0.3-3-0.3-4.5,0c-0.1-0.3-0.2-0.5-0.5-0.7c-0.6-4.1-1.5-8.2-2.7-12.3c-0.2-0.8-1.1-1.3-1.9-1c-0.8,0.2-1.3,1.1-1,1.9 c1.6,5.5,2.6,11.1,3.1,16.6c0,0.1,0,0.2,0,0.3c0,0,0,0,0,0.1c0,0.1,0,0.2,0,0.2c-0.5,6-1.9,11.6-4.1,16.9c0.9-9.1,1.2-20,0.8-32.4 c0-0.8-0.7-1.5-1.6-1.5c-0.8,0-1.5,0.7-1.5,1.6c0.5,16-0.1,29.3-1.8,39.6c0,0.1,0,0.2,0,0.3c-5.3,8.3-13.2,15.4-23.5,21.4h-16.5 c-0.7,0-1.3,0.6-1.3,1.3c0,0.7,0.6,1.3,1.3,1.3h11.8h6.4H487h0.3h3.1h0h0.3h1.5h8h1.5h1.5h1.5h7.8h1.5h0.5h0.2h3.1h0.3h20.6h8.8 h12.4c0.7,0,1.3-0.6,1.3-1.3C561.3,332,560.8,331.5,560.1,331.5z M505,302.3c0.2,2.7,0.6,5.3,1,7.8c-0.7-1.7-1.3-3.4-1.8-5.1 C504.5,304.1,504.7,303.2,505,302.3z M500.6,285c0,0.3,0,0.5,0.1,0.8c0,0.3,0,0.5,0.1,0.8h4c-0.3,4.2-0.9,8.5-2,12.9 c-0.9-3.6-1.5-7.2-1.8-10.7c-0.1-0.7-0.1-1.4-0.2-2.1c0-0.3,0-0.5,0-0.8C500.6,285.5,500.6,285.3,500.6,285L500.6,285z M500.2,302.3c0.2,0.9,0.5,1.8,0.8,2.7c-0.7,2.3-1.6,4.6-2.5,6.9C499.3,308.7,499.8,305.5,500.2,302.3z M488.3,331.5h-16.7 c12.7-8.3,21.3-18.5,25.7-30.7C496.2,311,493.2,321.2,488.3,331.5z M502.2,331.5c0.2-1.4,0.3-2.9,0.5-4.4c0.1,1.5,0.3,3,0.5,4.4 H502.2z M513.3,331.5h-0.7h-8c-0.7-5.8-1.1-12.3-1.2-19.6c0,0,0-0.1,0-0.1c0-0.5,0-1.1,0-1.6c0-0.8,0-1.7,0-2.5c0-0.8,0-1.6,0-2.5 c0-0.4-0.3-0.8-0.7-0.8c-0.4,0-0.7,0.3-0.7,0.8c0,0.9,0,1.7,0,2.6c0,0.8,0,1.6,0,2.4c0,0.5,0,1.1,0,1.6c0,0,0,0.1,0,0.1 c-0.1,7.4-0.5,13.9-1.2,19.7h-8.2H492h-0.3c0.3-0.7,7.8-13.5,10.2-19.7c0-0.5,0-1.1,0-1.7c0-0.8,0-1.7,0-2.5c0-0.8,0-1.6,0-2.5 c0-0.4,0.3-0.8,0.8-0.8c0,0,0,0,0,0c0,0,0,0,0,0c0,0,0,0,0,0c0,0,0,0,0,0c0.4,0,0.8,0.3,0.8,0.8c0,0.8,0,1.6,0,2.4 c0,0.9,0,1.8,0,2.6c0,0.6,0,1.2,0,1.7C505.7,317.8,513.3,331.3,513.3,331.5L513.3,331.5z M517,331.5h-0.1c-0.4-0.6-0.7-1.3-1.1-1.9 c-5.2-9.8-7.8-21-8-33.7c5.3,16.5,14.2,28.5,26.4,35.6H517z" style="fill: rgb(103, 108, 114);"/>
  </g>
</svg>