<svg xmlns="http://www.w3.org/2000/svg" width="862.964" height="901.3" viewBox="0 0 862.964 901.3">
  <g id="Group_470" data-name="Group 470" transform="translate(-261.718 -165.426)">
    <g id="Group_129" data-name="Group 129" transform="translate(941.308 596.312) rotate(117)" opacity="0.32">
      <path id="Path_906" data-name="Path 906" d="M186.014,203.43,476.022,55.664s116.858,44.945,0,0c-74.874-28.8-156.515-48.047-235.468-53.8a671.325,671.325,0,0,0-99.524-.033C-200.69,27.763,186.014,203.43,186.014,203.43Z" transform="translate(0 0)" fill="#5390f5"/>
    </g>
    <g id="Group_342" data-name="Group 342" transform="translate(261.718 165.426)">
      <g id="Group_130" data-name="Group 130" transform="matrix(-0.883, -0.469, 0.469, -0.883, 473.084, 898.557)" opacity="0.32">
        <path id="Path_906-2" data-name="Path 906" d="M108.992,79.475C30.654,236.982-8.253,418.8,1.466,546.642,12.512,691.848,73.722,762.994,177.172,793.3c7.5,2.2.125.234.125.234L420.041,664.463,108.992,79.475Z" transform="translate(0 0)" fill="#03bfa6"/>
      </g>
      <g id="Group_128" data-name="Group 128" transform="translate(862.964 349.391) rotate(135)">
        <path id="Path_906-3" data-name="Path 906" d="M615.926,18.49C546.191,2.889,474.271-3.458,404.558,1.833,229.6,15.11,89.423,161.35,0,331.875H0L151.723,481.894l464.2-463.4Z" transform="translate(0 0)" fill="#fff"/>
      </g>
    </g>
  </g>
</svg>
